<svg width="178" height="181" viewBox="0 0 178 181" fill="none" xmlns="http://www.w3.org/2000/svg">
<g id="monk 1" clip-path="url(#clip0_1_3)">
<g id="Lines" filter="url(#filter0_d_1_3)">
<path id="Vector" fill-rule="evenodd" clip-rule="evenodd" d="M138.446 33.0453C139.677 33.0453 140.686 34.056 140.686 35.2892V46.3875C140.686 47.6207 139.677 48.6275 138.446 48.6275C137.215 48.6275 136.211 47.6168 136.211 46.3875V35.2892C136.211 34.056 137.219 33.0453 138.446 33.0453Z" fill="#F58220"/>
<path id="Vector_2" fill-rule="evenodd" clip-rule="evenodd" d="M118.665 38.3565C119.732 37.7399 121.107 38.1106 121.723 39.176L127.261 48.7875C127.876 49.8568 127.506 51.2343 126.443 51.8509C125.376 52.4674 124.001 52.0967 123.386 51.0314L117.847 41.4237C117.232 40.3545 117.598 38.9769 118.665 38.3604" fill="#F58220"/>
<path id="Vector_3" fill-rule="evenodd" clip-rule="evenodd" d="M158.223 38.3565C159.29 38.973 159.656 40.3506 159.041 41.4198L153.503 51.0275C152.887 52.0967 151.513 52.4635 150.446 51.847C149.378 51.2304 149.008 49.8528 149.628 48.7836L155.166 39.1759C155.781 38.1067 157.156 37.7399 158.223 38.3565Z" fill="#F58220"/>
<path id="Vector_4" fill-rule="evenodd" clip-rule="evenodd" d="M172.699 52.8616C173.311 53.9308 172.945 55.3084 171.882 55.9249L162.289 61.4741C161.226 62.0907 159.847 61.72 159.232 60.6546C158.616 59.5854 158.986 58.2078 160.05 57.5913L169.642 52.0421C170.709 51.4255 172.084 51.7962 172.699 52.8616Z" fill="#F58220"/>
<path id="Vector_5" fill-rule="evenodd" clip-rule="evenodd" d="M178 72.6778C178 73.911 176.995 74.9217 175.764 74.9217H164.688C163.457 74.9217 162.449 73.911 162.449 72.6778C162.449 71.4447 163.457 70.434 164.688 70.434H175.764C176.995 70.434 178 71.4447 178 72.6778Z" fill="#F58220"/>
<path id="Vector_6" fill-rule="evenodd" clip-rule="evenodd" d="M172.699 92.4941C172.084 93.5634 170.709 93.9302 169.642 93.3136L160.05 87.7644C158.986 87.1479 158.616 85.7703 159.232 84.7011C159.847 83.6318 161.222 83.265 162.289 83.8816L171.882 89.4307C172.945 90.0473 173.315 91.4249 172.699 92.4941Z" fill="#F58220"/>
</g>
<g id="body">
<path id="Vector_7" fill-rule="evenodd" clip-rule="evenodd" d="M87.633 140.037C91.5704 139.631 99.0403 139.607 103.379 138.249C96.3258 136.868 95.839 133.403 91.1031 129.5C87.8822 126.843 85.857 125.863 83.9837 121.352C83.2476 119.237 83.9331 119.366 84.8055 120.08C86.4529 121.426 88.2483 122.663 89.9775 123.912C101.202 131.99 99.1689 136.349 116.036 135.213C121.617 133.703 127.261 131.1 128.811 125.063C124.176 122.25 120.675 117.992 120.605 112.31C119.366 111.112 118.342 109.704 117.618 108.139C113.711 108.431 109.79 106.718 107.063 103.944C103.92 107.12 97.0697 113.313 92.7038 112.002C91.512 111.643 91.995 111.495 93.0037 110.765C96.209 108.439 98.4523 106.746 101.019 103.733C101.693 102.941 103.418 101.114 103.395 100.014C103.359 98.5428 100.166 96.537 99.1299 95.8463C96.8321 94.4999 94.3006 93.6492 91.6756 93.2473C88.1977 99.335 83.0685 104.291 78.095 109.146C74.3017 112.849 70.816 116.139 67.5172 120.322C66.1853 122.012 65.1649 122.453 63.6226 120.498C61.1963 117.422 58.6881 114.999 55.9152 112.244C54.4547 113.727 53.0604 115.272 51.744 116.88C53.1188 117.543 54.8675 118.433 55.884 119.752C58.3337 122.929 55.7009 126.226 51.4441 126.445C48.8152 126.574 45.9488 124.868 44.391 127.498C43.4718 129.052 43.9509 131.163 45.4581 131.846C49.0684 133.489 50.6301 128.814 53.8082 127.26C58.0144 125.2 61.6558 127.077 61.2742 132.088C61.0171 136.177 58.7738 140.88 56.7642 143.631C58.6492 144.926 61.9635 146.32 64.016 146.671C72.3349 148.099 77.3823 146.761 84.7665 144.021C79.8632 144.497 70.0526 144.958 66.232 141.129C65.2856 140.177 64.7365 137.949 66.2398 138.636C72.3933 141.43 81.0082 140.727 87.6369 140.045" fill="#F58220"/>
<path id="Vector_8" fill-rule="evenodd" clip-rule="evenodd" d="M21.3698 122C21.2763 117.758 21.6736 113.329 22.5849 109.185C23.2431 106.18 25.4319 103.842 27.8388 105.032C29.0773 102.293 32.154 100.771 35.4255 103.76C38.1284 106.23 39.7447 111.241 40.3327 114.929C43.0746 114.461 45.5048 114.667 48.1726 115.487C49.7772 113.462 51.4948 111.526 53.3096 109.688C48.1064 104.615 42.6812 99.4559 39.0787 93.0756C34.9465 95.3506 29.9146 95.0658 25.8136 97.575C18.9006 101.805 17.3661 110.07 12.9847 116.334C9.57299 121.208 6.97138 130.066 12.8484 134.199C16.521 136.782 19.9405 135.448 24.0026 136.123C22.2461 131.791 21.475 126.597 21.3737 122.004" fill="#AD332F"/>
<path id="Vector_9" fill-rule="evenodd" clip-rule="evenodd" d="M26.0551 109.914C25.2956 112.377 24.9801 120.092 25.0191 121.926C25.2021 130.293 27.4532 139.139 34.9893 143.838C41.5557 147.931 50.0576 147.576 54.4196 140.552C55.1635 139.35 56.289 137.169 57.0056 134.948C58.7777 130.047 56.4487 129.368 54.1704 131.537C51.0663 134.488 48.4336 137.04 44.5312 135.471C40.6599 133.918 38.9735 129.282 41.2402 125.633C43.7561 121.575 47.1561 123.093 51.4052 123.233C52.5969 123.272 54.4196 121.813 52.2308 120.564C49.3449 118.917 43.464 117.707 40.1458 118.699C38.3114 119.245 37.0846 119.9 36.925 117.282C36.738 114.219 35.2814 108.588 32.9641 106.469C32.1112 105.692 31.453 106.028 30.9039 106.921C29.2798 109.587 31.6438 118.055 32.3994 121.102C33.2328 124.458 30.8143 124.86 29.7082 122.246C27.8933 117.945 27.1417 114.578 26.9976 109.942C26.9586 108.728 26.3471 108.966 26.0551 109.922" fill="#E79860"/>
<path id="Vector_10" fill-rule="evenodd" clip-rule="evenodd" d="M26.1991 140.29C24.8516 139.986 23.3755 139.658 22.0085 139.549C10.6284 138.651 1.19955 147.432 3.98031 159.112C4.83323 162.694 6.08341 163.763 9.45615 164.485C15.5902 165.792 21.9891 165.238 28.0608 163.869C29.642 163.513 29.2681 164.274 28.5905 164.942C25.1281 168.181 17.0585 169.41 11.5437 169.316C24.4427 178.495 41.6764 178.885 56.4409 175.123C67.4822 172.313 77.4213 170.081 87.0488 163.751C91.6172 160.754 87.1968 169.617 74.5198 175.166C88.4586 178.28 125.481 179.548 127.382 160.645C127.557 158.885 127.479 157.102 127.249 155.354C126.817 152.064 126.509 153.067 123.806 154.21C114.225 158.284 106.097 154.983 109.525 154.433C111.671 154.089 127.522 151.463 123.647 147.01C120.196 143.045 115.071 141.766 109.988 141.992C101.233 142.386 94.8692 144.123 86.784 147.159C82.6946 148.696 78.8428 150.117 74.4692 150.655C71.0847 151.073 68.5649 151.334 65.2856 152.458C58.5168 154.753 57.1303 155.295 45.9955 160.591C44.2157 161.453 44.0599 160.758 45.1076 159.623C47.421 157.106 55.1206 151.521 60.577 149.543C58.5245 148.778 55.5335 147.354 54.2327 146.351C48.196 151.56 39.5889 151.014 33.0498 146.94C30.3197 145.239 27.979 142.956 26.1914 140.283" fill="#F58220"/>
<path id="Vector_11" fill-rule="evenodd" clip-rule="evenodd" d="M27.0871 63.476C27.6207 63.6438 29.5446 63.9365 30.4599 63.9873C28.3334 57.8566 26.2108 50.1182 25.9966 43.57C20.77 49.9582 28.4853 55.3786 27.0871 63.476Z" fill="#E79860"/>
<path id="Vector_12" fill-rule="evenodd" clip-rule="evenodd" d="M100.392 63.9873C101.303 63.9365 103.231 63.6438 103.765 63.476C102.366 55.3747 110.082 49.9582 104.855 43.57C104.645 50.1182 102.522 57.8566 100.396 63.9873" fill="#F9A870"/>
<path id="b1" fill-rule="evenodd" clip-rule="evenodd" d="M122.689 74.2388C122.759 78.8943 124.32 81.5558 127.066 85.1537C129.157 87.8932 130.754 90.1722 131.159 93.657C131.541 95.8267 143.973 95.6824 144.218 93.6765C144.646 90.1488 146.232 87.8932 148.323 85.1537C151.069 81.5558 152.63 78.8943 152.701 74.2388C152.763 70.1881 151.248 66.5004 148.381 63.6477C142.45 57.7435 132.9 57.7903 127.012 63.6477C124.133 66.5121 122.63 70.2037 122.689 74.2388Z" fill="#FFCB05"/>
<path id="Vector_13" fill-rule="evenodd" clip-rule="evenodd" d="M146.999 100.108C145.667 104.634 141.27 105.825 137.048 105.157C136.495 105.071 135.93 104.95 135.377 104.798C136.032 105.715 136.585 106.718 136.943 107.756C139.56 108.966 143.408 109.302 146.228 108.654C149.604 108.256 149.199 110.945 146.761 112.264C144.304 113.594 139.786 113.075 137.005 112.217C136.666 113.079 136.121 113.813 135.424 114.414C137.858 115.783 140.896 116.786 143.599 117.032C144.483 117.079 146.426 117.274 146.531 118.468C146.699 120.377 142.551 120.72 141.352 120.689C137.399 120.587 133.656 118.738 130.68 116.217C128.651 116.373 126.587 115.951 124.729 115.116C127.043 122.105 140.522 128.318 147.151 123.854C152.895 119.982 154.691 109.879 150.831 103.386C150.469 102.777 147.895 98.4999 146.999 100.108Z" fill="#E79860"/>
<path id="Vector_14" fill-rule="evenodd" clip-rule="evenodd" d="M133.551 109.801C133.453 107.347 130.739 105.306 129.516 103.214C128.456 101.399 126.423 97.6179 123.837 98.3945C121.734 99.0267 119.919 101.208 120.114 103.483C120.387 106.718 122.365 109.512 125.091 111.183C127.23 112.49 133.722 113.984 133.555 109.797" fill="#F9A870"/>
<path id="b2" fill-rule="evenodd" clip-rule="evenodd" d="M137.609 101.7C138.84 102.215 140.962 101.891 142.559 100.986C143.451 100.486 143.388 99.8111 143.388 98.8316C143.416 97.8052 142.789 98.1409 142.166 98.336C139.252 99.2062 137.095 99.1516 134.17 98.3555C133.605 98.2501 133.294 98.3126 133.157 98.4179C131.989 99.3467 141.313 100.677 137.609 101.7Z" fill="#58595B"/>
<path id="b3" fill-rule="evenodd" clip-rule="evenodd" d="M130.583 93.8443C131.019 96.295 144.401 96.1623 144.705 93.8443C144.845 92.6385 146.119 90.4844 146.492 89.5088C131.039 89.6259 119.69 69.8564 127.343 60.92C126.953 61.2439 126.579 61.5834 126.217 61.9385C123.374 64.7677 121.598 68.6506 121.598 72.9354V73.2593C121.715 78.9412 124.075 82.0318 126.268 84.904C128.254 87.5108 130.123 89.9615 130.579 93.8443" fill="#F29A23"/>
<path id="Vector_15" fill-rule="evenodd" clip-rule="evenodd" d="M34.9698 80.9938C31.8736 80.0533 28.5905 78.3519 26.055 76.229C26.3666 81.3489 29.7978 86.1684 35.3243 83.0387C35.1841 82.3635 35.0594 81.6806 34.9698 80.9977" fill="#E79860"/>
<path id="Vector_16" fill-rule="evenodd" clip-rule="evenodd" d="M104.797 76.229C102.261 78.3519 98.9741 80.0533 95.8818 80.9938C95.7922 81.6767 95.6676 82.3596 95.5274 83.0347C101.058 86.1645 104.485 81.3489 104.797 76.2251" fill="#F9A870"/>
<path id="Vector_17" fill-rule="evenodd" clip-rule="evenodd" d="M96.9411 63.7843C99.7959 55.3123 102.082 47.9992 101.256 39.0199C99.535 20.1792 85.2222 3.84774 65.4336 3.84774C44.2936 3.84774 29.4667 22.4348 29.4667 42.7505C29.4667 49.7085 31.7217 57.1932 33.9417 63.7843C35.5112 63.6399 36.4771 63.3941 37.996 62.9804C45.3451 60.9629 54.3846 54.3094 62.0881 56.3503C65.7841 57.1854 65.0714 57.1854 68.7713 56.3503C76.471 54.3055 85.5143 60.9629 92.8635 62.9765C94.3824 63.3941 95.3794 63.6399 96.945 63.7843" fill="#E79860"/>
<path id="Vector_18" fill-rule="evenodd" clip-rule="evenodd" d="M91.2939 65.8955C85.304 64.1277 75.3454 57.9581 69.3166 59.7727C65.5193 60.6039 65.3986 60.6156 61.539 59.7727C55.5101 57.9581 45.5515 64.1277 39.5655 65.8955C34.557 67.3784 30.1717 67.6282 25.1671 66.5784C23.5703 66.2428 23.4768 66.5979 24.3375 68.5452C30.121 81.5636 52.5813 82.3089 62.5944 73.8681C65.4609 71.6476 65.4375 71.6866 68.2611 73.8681C78.2742 82.3089 100.738 81.5636 106.518 68.5452C107.375 66.5979 107.285 66.2428 105.688 66.5784C100.684 67.6321 96.3024 67.3784 91.29 65.8955" fill="white"/>
<path id="Vector_19" fill-rule="evenodd" clip-rule="evenodd" d="M71.1276 79.6319C68.1715 78.1763 66.9175 77.2007 66.2125 76.7129C64.7326 75.7256 65.6011 76.7949 59.3892 79.7958C53.1461 82.6172 45.5944 83.2338 38.8606 81.9616C40.9092 92.5097 47.8611 99.2569 55.2998 106.519C58.5635 109.707 61.5117 112.556 64.4911 116.025C65.3246 116.997 65.4648 117.075 66.3021 116.088C69.2776 112.623 72.2804 109.704 75.548 106.519C81.3587 100.849 86.8696 95.4911 89.9814 88.3927C90.8538 86.4025 91.5393 84.2718 91.9872 81.9616C85.1093 83.2143 77.2616 82.7031 71.1237 79.6319" fill="white"/>
<path id="Vector_20" d="M47.7987 48.9358C46.4746 48.2763 43.1174 45.8997 42.724 44.1827C42.4203 42.8676 43.9625 42.0559 45.1115 42.6491C46.6576 43.453 46.9848 44.85 49.2398 45.9076C50.486 46.4929 51.7245 46.6139 53.0487 46.2236C53.7108 46.0285 54.3962 45.7046 55.1051 45.248C56.0125 44.6627 56.6902 43.7183 57.5119 43.0198C58.6063 42.0949 60.4835 43.2149 59.8331 44.8968C59.4242 45.9505 58.3882 46.9066 57.4341 47.6012C56.2968 48.4324 55.1401 49.1426 53.7653 49.5407C51.7012 50.1455 49.711 49.8841 47.7987 48.928" fill="#351709"/>
<path id="Vector_21" d="M83.7072 48.9358C85.0314 48.2763 88.3924 45.8997 88.7858 44.1827C89.0896 42.8676 87.5473 42.0559 86.3984 42.6491C84.8522 43.453 84.5251 44.85 82.2701 45.9076C81.0277 46.4929 79.7853 46.6139 78.4611 46.2236C77.7991 46.0285 77.1136 45.7046 76.4048 45.248C75.5012 44.6627 74.8197 43.7183 73.994 43.0198C72.8996 42.0949 71.0224 43.2149 71.6728 44.8968C72.0817 45.9505 73.1216 46.9066 74.0719 47.6012C75.2091 48.4324 76.3619 49.1426 77.7406 49.5407C79.8048 50.1455 81.7988 49.8841 83.7072 48.928" fill="#351709"/>
<path id="Vector_22" fill-rule="evenodd" clip-rule="evenodd" d="M65.4336 31.4297C67.5445 31.4297 69.2542 33.1429 69.2542 35.2541C69.2542 37.3652 67.5445 39.0784 65.4336 39.0784C63.3227 39.0784 61.6169 37.3652 61.6169 35.2541C61.6169 33.1429 63.3266 31.4297 65.4336 31.4297Z" fill="#AB292E"/>
<path id="Vector_23" fill-rule="evenodd" clip-rule="evenodd" d="M44.3403 77.7704C37.8285 85.7196 71.8597 109.395 64.7637 119.19C55.5724 107.534 44.1339 100.494 38.7827 88.9234C37.3573 85.8406 36.3641 82.4377 35.9591 78.5353C36.3602 78.6563 36.7653 78.7656 37.1742 78.8709C39.0086 79.3431 38.6269 78.0709 40.5859 78.2387C44.831 78.6017 41.2402 78.3753 44.3403 77.7704Z" fill="#BCBDC0"/>
<path id="Vector_24" fill-rule="evenodd" clip-rule="evenodd" d="M65.4375 75.3002H65.5466C69.0322 75.3002 72.2414 76.8066 72.2414 79.0621C72.183 80.5138 69.9163 82.8084 67.8833 84.0103C66.0957 85.0679 65.1181 85.0367 63.2799 84.0494C61.1067 82.8787 58.805 80.6036 58.7426 79.0621C58.7426 76.8027 61.9479 75.3002 65.4375 75.3002Z" fill="#BCBDC0"/>
<path id="Vector_25" fill-rule="evenodd" clip-rule="evenodd" d="M80.9615 81.306C80.0618 93.9419 66.5981 100.615 67.1979 109.524C72.2804 99.9047 82.4687 94.7536 84.8055 81.9928C83.5125 81.8328 82.2234 81.6026 80.9615 81.306Z" fill="#BCBDC0"/>
<path id="Vector_26" fill-rule="evenodd" clip-rule="evenodd" d="M65.9049 73.0486C73.8187 81.3333 107.106 84.9079 107.605 66.4106C102.46 72.1783 94.7173 73.6339 87.7693 74.3129C80.4279 75.031 73.7331 74.1022 68.2845 70.395C65.5271 68.5374 64.8689 69.1423 62.649 70.4886C57.2276 74.1217 50.5795 75.0232 43.3043 74.3129C36.3563 73.6339 28.3879 71.6203 23.2392 65.8526C21.1595 78.9646 53.0487 85.665 65.0714 73.0993C65.5855 72.6427 65.4375 72.5881 65.901 73.0486" fill="#BCBDC0"/>
<path id="Vector_27" fill-rule="evenodd" clip-rule="evenodd" d="M100.263 104.595C100.513 104.318 100.766 104.033 101.023 103.733C101.696 102.941 103.422 101.114 103.398 100.014C103.363 98.5428 100.17 96.537 99.1338 95.8463C96.836 94.4999 94.3045 93.6492 91.6795 93.2473C90.9239 94.5702 90.0905 95.8423 89.1947 97.0716C93.7553 98.1721 97.4591 100.818 100.263 104.599" fill="#F29A23"/>
<path id="Vector_28" fill-rule="evenodd" clip-rule="evenodd" d="M107.067 103.944C106.035 104.986 104.61 106.348 103.001 107.667C106.008 110.23 114.292 113.883 120.141 111.838C119.109 110.749 118.253 109.501 117.622 108.139C113.715 108.431 109.793 106.718 107.067 103.944Z" fill="#F29A23"/>
<path id="Vector_29" fill-rule="evenodd" clip-rule="evenodd" d="M150.831 103.386C150.469 102.777 147.895 98.4999 146.999 100.108C145.667 104.634 141.27 105.825 137.048 105.157C136.495 105.071 135.93 104.95 135.377 104.798C136.032 105.715 136.585 106.718 136.943 107.756C139.56 108.966 143.408 109.302 146.228 108.654C149.604 108.256 149.199 110.945 146.761 112.264C144.304 113.594 139.786 113.075 137.005 112.217C136.666 113.079 136.121 113.813 135.424 114.414C136.53 115.034 137.761 115.584 139.03 116.014C139.665 116.045 140.312 116.061 140.962 116.061C150.29 116.061 157.21 114.121 150.831 103.382" fill="#F9A870"/>
<path id="Vector_30" fill-rule="evenodd" clip-rule="evenodd" d="M21.3971 138.648C9.38994 138.347 -0.0233678 148.103 3.55579 160.22C3.92578 161.465 4.95786 162.729 5.46027 163.455C1.56953 146.761 15.0761 140.794 28.9565 143.139C28.0257 142.242 26.6198 140.228 25.8447 139.186C24.4076 138.94 22.842 138.679 21.3971 138.644" fill="#F29A23"/>
<path id="Vector_31" fill-rule="evenodd" clip-rule="evenodd" d="M52.2308 120.564C49.3449 118.917 43.464 117.707 40.1458 118.699C38.3114 119.245 37.0846 119.901 36.925 117.282C36.738 114.219 35.0672 108.798 32.9641 106.469C31.4374 104.779 30.6935 106.012 30.2535 109.056C28.6722 119.982 37.3728 154.316 55.8645 139.373C56.0281 138.948 56.8654 135.381 57.0056 134.948C58.7777 130.047 56.4487 129.368 54.1704 131.537C51.0663 134.488 48.4336 137.04 44.5312 135.471C40.6599 133.918 38.9735 129.282 41.2402 125.633C43.7561 121.575 47.1561 123.093 51.4052 123.233C52.5969 123.272 54.4196 121.813 52.2308 120.564Z" fill="#F9A870"/>
<path id="Vector_32" fill-rule="evenodd" clip-rule="evenodd" d="M137.609 101.7C138.839 102.215 140.962 101.891 142.559 100.986C143.451 100.486 143.388 99.8111 143.388 98.8316C143.416 97.8052 142.789 98.1409 142.165 98.336C139.252 99.2062 137.095 99.1516 134.17 98.3555C133.605 98.2501 133.293 98.3126 133.157 98.4179C131.989 99.3467 141.312 100.677 137.609 101.7ZM74.5235 175.174C88.4624 178.288 125.485 179.556 127.385 160.653C127.561 158.893 127.483 157.11 127.253 155.361C126.821 152.072 126.513 153.075 123.81 154.218C114.229 158.292 106.101 154.991 109.528 154.44C111.674 154.097 127.525 151.471 123.65 147.018C120.2 143.053 115.074 141.773 109.992 142C101.237 142.394 94.8729 144.13 86.7877 147.166C82.6983 148.704 78.8465 150.124 74.4729 150.663C71.0884 151.08 68.5686 151.342 65.2893 152.466C58.5205 154.76 57.134 155.303 45.9993 160.598C44.2194 161.461 44.0636 160.766 45.1113 159.631C47.4247 157.114 55.1244 151.529 60.5807 149.551C58.5283 148.786 55.5372 147.362 54.2364 146.359C48.1997 151.568 39.5926 151.022 33.0535 146.948C30.3234 145.246 27.9827 142.964 26.1951 140.29C24.8475 139.986 23.3715 139.658 22.0045 139.549C10.6244 138.651 1.19547 147.432 3.97624 159.112C4.82916 162.694 6.07934 163.763 9.45208 164.485C15.5861 165.792 21.985 165.238 28.0567 163.869C29.6379 163.513 29.264 164.274 28.5864 164.942C25.1241 168.181 17.0544 169.41 11.5396 169.316C24.4386 178.495 41.6723 178.885 56.4369 175.123C67.4781 172.313 77.4172 170.081 87.0447 163.751C91.6131 160.754 87.1927 169.617 74.5157 175.166L74.5235 175.174ZM32.4031 121.099C33.2366 124.455 30.818 124.857 29.7119 122.242C27.897 117.942 27.1454 114.574 27.0013 109.938C26.9623 108.724 26.3509 108.962 26.0588 109.918C25.2993 112.381 24.9839 120.096 25.0228 121.93C25.2058 130.296 27.4569 139.143 34.993 143.842C41.5594 147.935 50.0614 147.58 54.4233 140.556C55.1672 139.354 56.2928 137.172 57.0094 134.952C58.7814 130.051 56.4524 129.372 54.1741 131.541C51.0701 134.491 48.4373 137.044 44.5349 135.475C40.6636 133.922 38.9772 129.286 41.2439 125.637C43.7598 121.579 47.1599 123.097 51.4089 123.237C52.6006 123.276 54.4233 121.817 52.2346 120.568C49.3486 118.921 43.4677 117.711 40.1495 118.702C38.3152 119.249 37.0884 119.904 36.9287 117.286C36.7417 114.223 35.2851 108.591 32.9678 106.472C32.1149 105.696 31.4567 106.031 30.9076 106.925C29.2835 109.59 31.6476 118.059 32.4031 121.106V121.099ZM129.516 103.21C128.456 101.395 126.423 97.614 123.837 98.3906C121.734 99.0228 119.919 101.204 120.114 103.479C120.387 106.714 122.365 109.508 125.091 111.179C127.229 112.486 133.722 113.981 133.554 109.793C133.457 107.339 130.742 105.298 129.52 103.206L129.516 103.21ZM124.729 115.116C127.043 122.105 140.522 128.318 147.15 123.854C152.895 119.982 154.69 109.879 150.831 103.386C150.469 102.777 147.894 98.4999 146.999 100.108C145.667 104.634 141.27 105.825 137.048 105.157C136.495 105.071 135.93 104.95 135.377 104.798C136.031 105.715 136.584 106.718 136.943 107.756C139.56 108.966 143.408 109.302 146.227 108.654C149.604 108.256 149.199 110.945 146.761 112.264C144.304 113.594 139.786 113.075 137.005 112.217C136.666 113.079 136.121 113.813 135.424 114.414C137.858 115.783 140.896 116.786 143.599 117.032C144.483 117.079 146.426 117.274 146.531 118.468C146.699 120.377 142.551 120.72 141.351 120.689C137.398 120.587 133.656 118.738 130.68 116.217C128.651 116.373 126.587 115.951 124.729 115.116ZM30.4597 63.9873C28.3332 57.8566 26.2107 50.1182 25.9965 43.57C20.7699 49.9582 28.4851 55.3786 27.087 63.476C27.6205 63.6439 29.5445 63.9365 30.4597 63.9873ZM35.3241 83.0387C35.1839 82.3635 35.0593 81.6806 34.9697 80.9977C31.8734 80.0572 28.5903 78.3558 26.0549 76.2329C26.3664 81.3528 29.7976 86.1723 35.3241 83.0426V83.0387ZM48.1725 115.487C49.777 113.462 51.4946 111.526 53.3095 109.688C48.1063 104.615 42.681 99.456 39.0785 93.0756C34.9463 95.3507 29.9144 95.0658 25.8134 97.575C18.9004 101.805 17.366 110.07 12.9845 116.334C9.57281 121.208 6.97121 130.066 12.8482 134.199C16.5208 136.782 19.9403 135.448 24.0024 136.123C22.2459 131.791 21.4748 126.597 21.3735 122.004C21.2801 117.762 21.6773 113.333 22.5887 109.188C23.2468 106.184 25.4356 103.846 27.8425 105.036C29.081 102.297 32.1578 100.775 35.4292 103.764C38.1321 106.234 39.7484 111.245 40.3365 114.933C43.0783 114.464 45.5085 114.671 48.1764 115.491L48.1725 115.487ZM51.7438 116.88C53.1186 117.543 54.8673 118.433 55.8838 119.752C58.3335 122.929 55.7008 126.226 51.4439 126.445C48.8151 126.574 45.9486 124.868 44.3908 127.498C43.4716 129.052 43.9507 131.163 45.4579 131.846C49.0682 133.489 50.63 128.814 53.808 127.26C58.0142 125.2 61.6557 127.077 61.274 132.088C61.0169 136.177 58.7736 140.88 56.764 143.631C58.649 144.926 61.9633 146.32 64.0158 146.671C72.3347 148.099 77.3822 146.761 84.7664 144.021C79.863 144.497 70.0525 144.958 66.2318 141.129C65.2854 140.177 64.7363 137.949 66.2396 138.636C72.3931 141.43 81.0081 140.727 87.6367 140.045C91.5742 139.639 99.0441 139.615 103.383 138.257C96.3295 136.876 95.8427 133.411 91.1068 129.508C87.886 126.851 85.8608 125.871 83.9874 121.36C83.2514 119.245 83.9368 119.374 84.8092 120.088C86.4566 121.434 88.2521 122.671 89.9813 123.92C101.206 131.998 99.1726 136.357 116.04 135.221C121.621 133.711 127.265 131.108 128.815 125.071C124.18 122.258 120.679 118 120.609 112.318C119.37 111.12 118.346 109.711 117.621 108.147C113.715 108.439 109.793 106.726 107.067 103.951C103.924 107.128 97.0734 113.321 92.7075 112.01C91.5158 111.651 91.9987 111.503 93.0074 110.773C96.2127 108.447 98.456 106.753 101.023 103.741C101.696 102.949 103.422 101.122 103.398 100.022C103.363 98.5506 100.17 96.5448 99.1336 95.8541C96.8358 94.5077 94.3043 93.657 91.6793 93.2551C88.2014 99.3428 83.0722 104.299 78.0988 109.153C74.3054 112.857 70.8197 116.146 67.521 120.33C66.189 122.019 65.1686 122.46 63.6263 120.505C61.2 117.43 58.6918 115.007 55.9189 112.252C54.4584 113.735 53.0641 115.28 51.7477 116.888L51.7438 116.88ZM127.066 85.1537C124.32 81.5558 122.758 78.8943 122.688 74.2388C122.63 70.1998 124.133 66.5082 127.011 63.6478C132.896 57.7903 142.45 57.7435 148.381 63.6478C151.252 66.5004 152.763 70.1881 152.7 74.2388C152.63 78.8943 151.068 81.5558 148.323 85.1537C146.231 87.8932 144.646 90.1488 144.218 93.6765C143.972 95.6785 131.545 95.8267 131.159 93.657C130.754 90.1722 129.157 87.8932 127.066 85.1537ZM91.9909 81.9655C85.113 83.2182 77.2653 82.707 71.1274 79.6358C68.1714 78.1802 66.9173 77.2046 66.2124 76.7168C64.7324 75.7295 65.6009 76.7988 59.389 79.7997C53.1459 82.6211 45.5942 83.2377 38.8604 81.9655C40.909 92.5136 47.8609 99.2608 55.2996 106.523C58.5633 109.711 61.5116 112.56 64.4909 116.029C65.3244 117.001 65.4646 117.079 66.3019 116.092C69.2774 112.626 72.2802 109.707 75.5478 106.523C81.3586 100.853 86.8695 95.495 89.9813 88.3966C90.8537 86.4064 91.5391 84.2757 91.987 81.9655H91.9909ZM104.796 76.2329C102.288 78.3402 99.0168 80.0416 95.8855 80.9938H95.8777C95.7882 81.6767 95.6635 82.3635 95.5233 83.0387C101.05 86.1684 104.481 81.3528 104.793 76.2368L104.796 76.2329ZM100.392 63.9834H100.485L100.524 63.9756H100.579L100.621 63.9677H100.68L100.727 63.9599H100.785L100.832 63.9482H100.886L100.894 63.9404H100.949L100.995 63.9287H101.003L101.054 63.9209H101.061L101.112 63.9131H101.12L101.171 63.9053H101.174L101.229 63.8975H101.237L101.291 63.8897H101.299L101.354 63.8819H101.361L101.416 63.8741H101.424L101.478 63.8663H101.486L101.541 63.8585H101.548L101.603 63.8507H101.611L101.665 63.8429H101.673L101.727 63.8351H101.735L101.794 63.8273H101.801L101.86 63.8195H101.864L101.918 63.8117H101.926L101.985 63.8038H101.992L102.047 63.7921H102.055L102.109 63.7843H102.117L102.171 63.7765H102.179L102.238 63.7648H102.245L102.3 63.757H102.308L102.362 63.7453H102.37L102.425 63.7375H102.432L102.487 63.7297H102.491L102.545 63.718H102.553L102.608 63.7102H102.615L102.666 63.6985H102.674L102.728 63.6907H102.732L102.787 63.679H102.795L102.845 63.6673H102.853L102.904 63.6556H102.908L102.954 63.6438H102.962L103.009 63.636H103.017L103.063 63.6243L103.11 63.6165H103.118L103.161 63.6087H103.168L103.211 63.597H103.219L103.262 63.5892H103.27L103.309 63.5814H103.316L103.355 63.5736H103.363L103.402 63.5619H103.406L103.445 63.5541H103.453L103.488 63.5463H103.496L103.531 63.5385C103.636 63.5151 103.725 63.4917 103.792 63.4721C102.393 55.3708 110.109 49.9543 104.882 43.5661C104.672 50.1143 102.549 57.8527 100.423 63.9834H100.392ZM68.7711 56.3503C76.4708 54.3055 85.5141 60.9629 92.8633 62.9765C94.3822 63.3941 95.3792 63.6399 96.9449 63.7843C99.7996 55.3123 102.086 47.9992 101.26 39.0199C99.5387 20.1792 85.2259 3.84774 65.4373 3.84774C44.2973 3.84774 29.4705 22.4348 29.4705 42.7505C29.4705 49.7085 31.7255 57.1932 33.9454 63.7843C35.5149 63.6399 36.4808 63.3941 37.9997 62.9804C45.3489 60.9629 54.3883 54.3094 62.0919 56.3503C65.7879 57.1854 65.0751 57.1854 68.775 56.3503H68.7711ZM68.2648 73.8642C78.2779 82.305 100.742 81.5597 106.522 68.5413C107.379 66.594 107.289 66.2389 105.692 66.5745C100.688 67.6282 96.3061 67.3745 91.2938 65.8916C85.3038 64.1238 75.3453 57.9542 69.3164 59.7688C65.5191 60.6 65.3984 60.6117 61.5388 59.7688C55.5099 57.9542 45.5514 64.1238 39.5653 65.8916C34.5568 67.3745 30.1715 67.6243 25.1669 66.5745C23.5701 66.2389 23.4766 66.594 24.3373 68.5413C30.1209 81.5597 52.5812 82.305 62.5943 73.8642C65.4607 71.6437 65.4373 71.6827 68.2609 73.8642H68.2648ZM109.961 52.0772C108.827 55.5776 106.323 59.1132 107.456 62.9609C107.566 62.9297 107.675 62.9063 107.78 62.8829L107.928 62.8517H107.936L108.08 62.8204H108.087L108.228 62.797H108.235L108.372 62.7775H108.376L108.508 62.7619H108.516L108.644 62.7502H108.652L108.777 62.7424H108.905C111.168 62.6956 111.639 64.5999 110.296 68.4204C109.898 69.5442 108.835 71.6554 108.041 72.7442C108.816 81.1304 104.127 90.7029 94.6938 86.3479C94.3199 87.5537 93.9032 88.6776 93.4008 89.8288C96.0686 90.3634 98.639 91.3117 100.991 92.6892C103.885 94.3868 106.428 96.7282 108.239 99.5574C110.039 102.363 113.189 104.431 116.558 104.51C116.274 102.469 116.504 100.576 117.524 98.7496C119.436 95.3155 123.6 93.4229 127.654 94.8121C127.51 91.6902 125.991 89.6688 124.207 87.3352C120.932 83.0387 119.187 79.8933 119.109 74.309C119.039 69.2477 120.897 64.6546 124.472 61.0956C131.759 53.8411 143.599 53.8138 150.913 61.0956C154.492 64.6585 156.357 69.2555 156.283 74.309C156.206 79.8777 154.469 83.0191 151.174 87.3352C149.472 89.5673 147.824 91.8034 147.731 94.7263C147.704 95.5185 147.528 95.7721 148.21 96.0414C150.776 97.0365 152.587 99.1984 153.966 101.516C159.01 109.996 156.322 122.499 148.701 127.214C143.595 130.371 137.34 128.981 132.141 126.761C129.932 134.011 123.374 137.122 116.55 138.874C121.037 139.881 124.932 142.261 127.635 146.203C130.614 150.55 131.599 156.407 130.992 161.593C128.441 183.24 88.8986 182.362 72.7475 178.522C65.5152 176.805 64.5026 176.852 57.3365 178.678C41.1543 182.799 21.2606 182.108 7.73066 170.998C-3.61439 161.683 -2.48884 143.311 11.2125 137.496C2.96753 132.474 5.35104 120.849 9.99343 114.219C14.8812 107.233 15.7497 99.4638 23.6207 94.5663C28.2242 91.7019 33.3222 92.2522 37.3766 89.6376C36.8897 88.5176 36.5275 87.5147 36.1692 86.3479C26.7364 90.7029 22.0473 81.1265 22.8262 72.7403C21.837 71.2691 21.1788 70.1179 20.579 68.4204C18.9861 63.8975 19.9403 62.0556 23.3987 62.9609C24.5321 59.1132 22.0278 55.5776 20.8945 52.0772C19.3289 47.2422 20.6258 42.7193 25.8134 39.0706C27.5115 18.1734 43.7443 0 65.4257 0C87.107 0 103.344 18.228 105.038 39.0745C110.023 41.8881 111.519 47.2656 109.961 52.0811V52.0772Z" fill="#351709"/>
<path id="Vector_33" fill-rule="evenodd" clip-rule="evenodd" d="M121.582 151.17C123.834 150.05 125.08 148.657 123.654 147.018C120.418 143.299 115.709 141.941 110.946 141.976C110.631 141.976 110.315 141.984 109.996 142C102.468 142.339 96.7075 143.666 90.1061 145.964C96.2206 144.751 102.658 144.064 108.477 143.818C113.746 143.596 120.48 144.88 121.582 151.17Z" fill="#F29A23"/>
<path id="Vector_34" fill-rule="evenodd" clip-rule="evenodd" d="M123.814 154.222C123.436 154.382 123.059 154.53 122.685 154.671C122.93 154.991 123.074 155.72 123.234 157.075C123.475 159.115 123.557 161.195 123.374 163.244C123.094 166.323 122.1 168.938 120.558 171.158C124.363 168.68 126.922 165.266 127.385 160.649C127.561 158.889 127.483 157.106 127.253 155.357C126.821 152.068 126.513 153.071 123.81 154.214" fill="#F29A23"/>
<path id="Vector_35" fill-rule="evenodd" clip-rule="evenodd" d="M103.379 138.246C96.3258 136.864 95.839 133.399 91.1031 129.496C87.8822 126.839 85.857 125.859 83.9837 121.348C83.8279 120.907 83.7384 120.568 83.6994 120.302C82.3207 123.92 85.9194 134.546 92.2364 139.709C96.1739 139.299 99.0403 139.604 103.379 138.246Z" fill="#D06F2C"/>
<path id="Vector_36" fill-rule="evenodd" clip-rule="evenodd" d="M12.8912 134.226C10.017 129.672 12.3187 122.726 15.1929 118.617C19.5744 112.357 21.1089 104.088 28.0218 99.8579C31.9242 97.4696 36.6718 97.614 40.6833 95.6706C40.1146 94.8238 39.5811 93.9614 39.0748 93.0717C34.9426 95.3467 29.9107 95.0619 25.8097 97.5711C18.8967 101.801 17.3622 110.067 12.9808 116.33C9.5691 121.204 6.96749 130.062 12.8445 134.195C12.8601 134.207 12.8756 134.218 12.8873 134.226" fill="#CC4B40"/>
<path id="Vector_37" fill-rule="evenodd" clip-rule="evenodd" d="M56.2657 170.592C42.9655 173.613 27.8816 173.956 14.967 169.223C13.7675 169.305 12.6108 169.34 11.5476 169.32C24.4466 178.499 41.6803 178.889 56.4448 175.127C67.4861 172.317 77.4252 170.085 87.0527 163.755C88.2834 162.948 88.8598 163.002 88.8014 163.619C93.0855 160.021 93.7475 157.375 90.5968 159.221C79.797 165.55 68.6506 167.783 56.2657 170.592Z" fill="#D06F2C"/>
<path id="Vector_38" fill-rule="evenodd" clip-rule="evenodd" d="M81.351 171.424C79.4348 172.727 77.1603 174.023 74.5237 175.174C85.0586 177.527 108.781 178.826 120.558 171.158C120.94 170.608 121.29 170.038 121.598 169.437C109.458 173.265 92.3221 172.879 81.351 171.424Z" fill="#D06F2C"/>
<path id="Vector_39" fill-rule="evenodd" clip-rule="evenodd" d="M59.6267 5.33845C79.4153 5.33845 93.7281 21.666 95.4456 40.5067C96.1856 48.5768 94.4174 55.2967 91.9794 62.719C92.2754 62.8126 92.5675 62.8985 92.8557 62.9804C94.3746 63.398 95.3716 63.6439 96.9372 63.7882C99.792 55.3162 102.078 48.0031 101.252 39.0238C99.5311 20.1831 85.2183 3.85165 65.4297 3.85165C61.3715 3.85165 57.547 4.53846 54.0107 5.78722C55.8256 5.49064 57.695 5.33845 59.6228 5.33845" fill="#F9A870"/>
</g>
</g>
<defs>
<filter id="filter0_d_1_3" x="113.549" y="33.0453" width="68.4511" height="68.5675" filterUnits="userSpaceOnUse" color-interpolation-filters="sRGB">
<feFlood flood-opacity="0" result="BackgroundImageFix"/>
<feColorMatrix in="SourceAlpha" type="matrix" values="0 0 0 0 0 0 0 0 0 0 0 0 0 0 0 0 0 0 127 0" result="hardAlpha"/>
<feOffset dy="4"/>
<feGaussianBlur stdDeviation="2"/>
<feComposite in2="hardAlpha" operator="out"/>
<feColorMatrix type="matrix" values="0 0 0 0 0 0 0 0 0 0 0 0 0 0 0 0 0 0 0.25 0"/>
<feBlend mode="normal" in2="BackgroundImageFix" result="effect1_dropShadow_1_3"/>
<feBlend mode="normal" in="SourceGraphic" in2="effect1_dropShadow_1_3" result="shape"/>
</filter>
<clipPath id="clip0_1_3">
<rect width="178" height="181" fill="white"/>
</clipPath>
</defs>
</svg>
