<?xml version="1.0" encoding="UTF-8"?><svg xmlns="http://www.w3.org/2000/svg" viewBox="0 0 663.44 426.83"><defs><style>.k{fill:#fff;}.l{fill:#fafafa;}.m{fill:#f5f5f5;}.n{fill:#455a64;}.o{fill:#ae7461;}.p{opacity:.2;}.q{fill:#ffbf9d;}.r{opacity:0;}.s{fill:#e0e0e0;}.t{fill:#ff9a6c;}.u{fill:#ff725e;}.v{fill:#6f4439;}.w{opacity:.3;}.x{fill:#ebebeb;}.y{fill:#263238;}</style></defs><g id="a"><path class="s" d="M217.08,46.51c4.13-2.5,8.53-4.39,13.07-5.68l2.69-12.94,21.86-.38,3.15,12.84c4.58,1.13,9.05,2.87,13.27,5.22l11.05-7.24,15.73,15.19-6.85,11.3c2.5,4.14,4.39,8.54,5.68,13.08l12.94,2.69,.38,21.86-12.84,3.15c-1.13,4.58-2.87,9.05-5.22,13.27l7.24,11.05-15.19,15.73-11.3-6.85c-4.13,2.5-8.54,4.39-13.08,5.68l-2.69,12.94-21.86,.38-3.15-12.84c-4.58-1.13-9.05-2.87-13.27-5.22l-11.05,7.24-15.73-15.19,6.85-11.3c-2.5-4.14-4.39-8.54-5.68-13.08l-12.94-2.69-.38-21.86,12.84-3.15c1.13-4.58,2.87-9.05,5.22-13.27l-7.24-11.05,15.19-15.73,11.3,6.85h0Zm11.66,29.13c-9,9.32-8.74,24.17,.58,33.17,9.32,9,24.17,8.74,33.17-.58,9-9.32,8.74-24.17-.58-33.17-9.32-9-24.17-8.74-33.17,.58Z"/><path class="m" d="M117.93,20.64c2.62-1.59,5.42-2.79,8.3-3.61l1.71-8.21,13.88-.24,2,8.15c2.91,.72,5.74,1.82,8.42,3.31l7.01-4.6,9.98,9.64-4.35,7.17c1.59,2.62,2.79,5.42,3.61,8.3l8.21,1.71,.24,13.88-8.15,2c-.72,2.91-1.82,5.74-3.31,8.42l4.6,7.01-9.64,9.98-7.17-4.35c-2.62,1.59-5.42,2.79-8.3,3.61l-1.71,8.21-13.87,.24-2-8.15c-2.91-.72-5.74-1.82-8.42-3.31l-7.01,4.6-9.98-9.64,4.35-7.17c-1.59-2.62-2.79-5.42-3.61-8.3l-8.21-1.71-.24-13.88,8.15-2c.72-2.91,1.82-5.74,3.31-8.42l-4.6-7.01,9.64-9.98,7.17,4.35h0Zm7.4,18.48c-5.71,5.92-5.55,15.34,.37,21.05,5.91,5.71,15.34,5.54,21.05-.37,5.71-5.91,5.55-15.34-.37-21.05-5.92-5.71-15.34-5.54-21.05,.37Z"/><path class="m" d="M599.18,197.8c2.76-1.67,5.69-2.93,8.72-3.79l1.8-8.64,14.59-.26,2.1,8.57c3.06,.75,6.04,1.91,8.85,3.48l7.37-4.83,10.5,10.14-4.57,7.54c1.67,2.76,2.93,5.7,3.79,8.73l8.63,1.8,.26,14.59-8.57,2.1c-.75,3.06-1.91,6.04-3.48,8.85l4.83,7.37-10.13,10.5-7.54-4.57c-2.76,1.67-5.7,2.93-8.73,3.79l-1.8,8.64-14.59,.26-2.1-8.57c-3.06-.75-6.04-1.91-8.85-3.48l-7.37,4.83-10.5-10.14,4.57-7.54c-1.67-2.76-2.93-5.7-3.79-8.73l-8.63-1.8-.26-14.59,8.57-2.1c.75-3.06,1.91-6.04,3.48-8.85l-4.83-7.37,10.13-10.5,7.54,4.57h0Zm7.78,19.44c-6,6.22-5.83,16.13,.39,22.13,6.22,6,16.13,5.83,22.13-.39,6-6.22,5.83-16.13-.39-22.13-6.22-6-16.13-5.83-22.13,.39Z"/><path class="s" d="M50.72,128.09c3-1.81,6.19-3.19,9.48-4.12l1.95-9.39,15.86-.28,2.28,9.31c3.32,.82,6.56,2.08,9.62,3.79l8.02-5.26,11.41,11.02-4.97,8.19c1.81,3,3.19,6.19,4.12,9.49l9.39,1.95,.28,15.86-9.31,2.28c-.82,3.32-2.08,6.56-3.79,9.62l5.25,8.02-11.02,11.41-8.2-4.97c-3,1.81-6.19,3.19-9.49,4.12l-1.95,9.39-15.86,.28-2.28-9.31c-3.32-.82-6.56-2.08-9.62-3.79l-8.02,5.26-11.41-11.02,4.97-8.2c-1.81-3-3.19-6.19-4.12-9.49l-9.39-1.95-.28-15.86,9.31-2.28c.82-3.32,2.08-6.56,3.79-9.62l-5.25-8.02,11.02-11.41,8.2,4.97h0Zm8.46,21.13c-6.53,6.76-6.34,17.54,.42,24.06,6.76,6.53,17.54,6.34,24.06-.42,6.53-6.76,6.34-17.54-.42-24.06-6.76-6.53-17.54-6.34-24.06,.42Z"/></g><g id="b"><path class="y" d="M659.02,407.04c0,.14-147.54,.26-329.49,.26s-329.53-.12-329.53-.26,147.51-.26,329.53-.26,329.49,.12,329.49,.26Z"/></g><g id="c"><g><g><path class="n" d="M591.48,298.63c-1.92-6.54-7-9.92-12.74-10.02-5.19,1.13-7.01,6.36-7.42,11.65-.41,5.3,1.44,10.48,3.26,15.47,5.84,16.02,11.69,32.04,17.53,48.06,4.88-.73,9.77-1.47,14.65-2.2-5.53-21.56-9.02-41.61-15.29-62.96Z"/><path class="y" d="M578.94,288.18c.05,.04-.75,.78-1.68,2.46-.93,1.66-1.87,4.36-1.93,7.79-.09,3.43,.84,7.47,2.3,11.77,1.47,4.33,3.08,9.07,4.77,14.06,3.34,9.97,6.36,18.99,8.58,25.58,1.06,3.24,1.92,5.88,2.54,7.77,.28,.88,.5,1.59,.66,2.12,.15,.49,.21,.75,.2,.75-.02,0-.12-.24-.3-.72-.19-.53-.44-1.22-.76-2.09-.66-1.88-1.58-4.5-2.7-7.72-2.25-6.58-5.33-15.58-8.73-25.53-1.68-4.99-3.28-9.74-4.73-14.08-1.44-4.33-2.34-8.44-2.21-11.94,.11-3.5,1.13-6.22,2.13-7.88,1-1.68,1.86-2.36,1.86-2.36Z"/><path class="y" d="M603.5,360.15s-.14-.23-.36-.69c-.21-.46-.55-1.14-.92-2.04-.77-1.78-1.78-4.41-2.85-7.71-1.07-3.3-2.15-7.3-3.22-11.76-1.03-4.47-2.17-9.37-3.36-14.52-1.23-5.14-2.57-9.99-4.07-14.31-1.5-4.32-3.13-8.11-4.75-11.16-1.61-3.06-3.13-5.42-4.25-6.99-.54-.8-1.02-1.38-1.31-1.8-.3-.41-.45-.63-.44-.65,.01-.01,.19,.19,.52,.58,.32,.4,.83,.96,1.4,1.74,1.19,1.54,2.76,3.88,4.42,6.93,1.67,3.05,3.35,6.85,4.88,11.18,1.53,4.33,2.89,9.2,4.12,14.35,1.18,5.15,2.3,10.06,3.32,14.54,1.04,4.46,2.08,8.45,3.1,11.76,1.01,3.31,1.96,5.95,2.68,7.75,.34,.91,.65,1.59,.83,2.07,.19,.47,.28,.73,.26,.74Z"/><path class="y" d="M574.75,313.29c.04,.14-.75,.5-1.76,.78-1.01,.29-1.87,.41-1.91,.26-.04-.14,.75-.49,1.76-.78,1.01-.29,1.87-.41,1.91-.26Z"/><path class="y" d="M572.79,303.31c0,.15-1.11,.26-2.47,.37-1.36,.11-2.47,.18-2.5,.03-.03-.14,1.07-.46,2.45-.57,1.39-.11,2.52,.02,2.51,.17Z"/><path class="y" d="M574.08,294.07c-.09,.12-.91-.37-1.83-1.09-.92-.72-1.59-1.4-1.5-1.51,.09-.12,.91,.37,1.83,1.09,.92,.72,1.59,1.4,1.5,1.51Z"/><path class="y" d="M578.22,285.4c.15,.03,.14,.74,.15,1.61,0,.87,.04,1.58-.11,1.61-.14,.03-.42-.68-.43-1.61-.01-.93,.25-1.65,.39-1.62Z"/><path class="y" d="M587.56,289.03c.13,.08-.2,.82-.74,1.65-.53,.83-1.07,1.44-1.19,1.36-.13-.08,.2-.82,.74-1.65,.53-.83,1.07-1.44,1.19-1.36Z"/><path class="y" d="M593.92,299.13c.06,.14-.68,.61-1.66,1.05-.98,.45-1.82,.7-1.89,.56-.06-.14,.68-.61,1.66-1.05,.98-.45,1.82-.7,1.89-.56Z"/><path class="y" d="M597.97,309.62c.07,.13-.92,.75-2.29,1.11-1.37,.37-2.53,.33-2.54,.19-.01-.15,1.09-.36,2.4-.71,1.32-.35,2.37-.73,2.43-.59Z"/><path class="y" d="M581.26,307.27c-.14-.04-.07-.78,.16-1.65,.24-.87,.54-1.55,.69-1.51,.14,.04,.07,.78-.16,1.65-.24,.87-.54,1.55-.69,1.51Z"/><path class="y" d="M584.12,320.53c-.14-.05,.12-1.06,.58-2.24,.46-1.18,.94-2.1,1.08-2.04,.14,.05-.12,1.06-.58,2.24-.46,1.18-.94,2.1-1.08,2.04Z"/><path class="y" d="M578.55,324.42c-.05,.14-1-.07-2.14-.38-1.14-.31-2.07-.59-2.04-.74,.02-.15,1.01-.09,2.18,.22,1.17,.31,2.05,.76,2,.9Z"/><path class="y" d="M582.28,335.18c.09,.12-.51,.74-1.35,1.39-.84,.65-1.59,1.08-1.69,.97s.51-.74,1.35-1.39c.84-.65,1.59-1.08,1.69-.97Z"/><path class="y" d="M585.36,345.93c.04,.14-.73,.49-1.71,.77-.99,.28-1.82,.4-1.86,.25s.73-.49,1.71-.77c.99-.28,1.82-.4,1.86-.25Z"/><path class="y" d="M598.62,318.68c.08,.12-.56,.68-1.52,1.08-.96,.41-1.81,.48-1.84,.34-.04-.15,.72-.45,1.63-.84,.91-.38,1.65-.71,1.73-.59Z"/><path class="y" d="M601.35,335.49c-.06,.14-.86-.07-1.8-.46-.93-.39-1.64-.83-1.58-.96,.06-.14,.86,.07,1.8,.46,.93,.39,1.64,.83,1.58,.96Z"/><path class="y" d="M605.45,347.43c-.05,.14-1.11-.1-2.37-.53-1.26-.44-2.24-.9-2.19-1.05,.05-.14,1.11,.1,2.37,.53,1.26,.44,2.24,.9,2.19,1.04Z"/><path class="y" d="M586.42,357.69c-.08-.13,.86-.82,1.94-1.75,1.08-.92,1.91-1.74,2.03-1.64,.11,.09-.55,1.1-1.68,2.05-1.12,.96-2.22,1.46-2.29,1.33Z"/><path class="y" d="M595.73,351.15c-.15,.02-.39-.78-.8-1.71-.4-.93-.82-1.66-.7-1.75,.11-.09,.76,.53,1.2,1.54,.44,1,.45,1.91,.3,1.92Z"/><path class="y" d="M592.61,336.72c-.08,.12-.71-.14-1.4-.6-.69-.46-1.19-.93-1.11-1.05,.08-.12,.71,.14,1.41,.6,.69,.46,1.19,.93,1.11,1.05Z"/><path class="y" d="M603.34,324.72c.04,.14-.82,.49-1.94,.61-1.12,.12-2.04-.04-2.03-.18,0-.15,.89-.24,1.97-.36,1.08-.11,1.96-.22,2-.07Z"/><path class="y" d="M604.23,316c0,.14-.88,.2-1.87-.2-.98-.4-1.57-1.06-1.47-1.17,.1-.12,.78,.3,1.68,.67,.89,.37,1.67,.55,1.66,.71Z"/><path class="y" d="M605.93,339.89c-.02,.15-.76,.17-1.66,.05-.89-.12-1.6-.34-1.58-.49,.02-.15,.76-.17,1.66-.05,.89,.12,1.6,.34,1.58,.49Z"/></g><g><path class="y" d="M632.84,323.85c-.1,.11-.84-.43-1.64-1.21-.8-.77-1.36-1.49-1.26-1.6,.1-.11,.84,.43,1.64,1.21,.8,.77,1.36,1.49,1.26,1.6Z"/><g><path class="n" d="M659.78,290.78c.45-3.28,.86-6.66,.12-9.89-.75-3.23-2.89-6.34-6.06-7.31-3.62-1.11-7.61,.86-9.98,3.82-2.36,2.95-3.43,6.71-4.39,10.37-6.62,25.22-10.62,51.12-11.93,77.15l14.89,3.54c9.18-26.46,13.52-49.93,17.35-77.68Z"/><path class="y" d="M651.75,273.27s-.02,.08-.09,.23c-.08,.18-.19,.39-.31,.66-.31,.61-.72,1.45-1.25,2.51-.26,.55-.6,1.14-.89,1.82-.29,.68-.61,1.42-.95,2.22-.34,.8-.71,1.65-1.09,2.54-.34,.92-.69,1.9-1.06,2.92-1.53,4.08-2.96,9.07-4.32,14.66-1.35,5.6-2.48,11.84-3.52,18.4-2.02,13.15-3.27,25.14-4.43,33.79-.57,4.33-1.05,7.82-1.44,10.23-.19,1.17-.34,2.09-.45,2.77-.05,.29-.1,.53-.13,.72-.03,.16-.05,.24-.06,.24,0,0,0-.09,0-.25,.02-.2,.05-.43,.08-.73,.09-.68,.2-1.61,.35-2.79,.33-2.42,.75-5.92,1.27-10.25,1.06-8.66,2.25-20.65,4.27-33.83,1.04-6.58,2.19-12.82,3.57-18.43,1.4-5.6,2.86-10.6,4.45-14.68,.39-1.02,.75-1.99,1.1-2.92,.4-.9,.78-1.74,1.14-2.54,.35-.79,.69-1.52,.99-2.21,.31-.68,.66-1.26,.94-1.8,.57-1.04,1.01-1.87,1.34-2.47,.15-.26,.26-.46,.36-.64,.08-.14,.13-.21,.14-.21Z"/><path class="y" d="M653.15,273.41s.84,1.04,1.55,3.3c.75,2.24,1.02,5.73,.46,9.89-1.19,8.3-3.01,19.72-5.2,32.32-2.19,12.6-4.38,23.96-6.05,32.17-.84,4.1-1.54,7.42-2.04,9.71-.25,1.11-.45,1.98-.59,2.63-.07,.27-.12,.5-.17,.68-.04,.15-.07,.23-.08,.23,0,0,0-.08,.02-.24l.11-.69c.12-.65,.29-1.54,.49-2.65,.45-2.35,1.09-5.66,1.87-9.74,1.58-8.23,3.7-19.6,5.89-32.19,2.19-12.59,4.08-24.01,5.36-32.27,.61-4.13,.39-7.55-.28-9.78-.64-2.24-1.42-3.32-1.35-3.36Z"/><path class="y" d="M659.94,313.46c-.06,.14-1.31-.32-2.79-1.01-1.48-.69-2.62-1.36-2.56-1.5,.06-.14,1.31,.32,2.79,1.01,1.48,.69,2.62,1.36,2.56,1.5Z"/><path class="y" d="M663.2,298.25c.05,.14-1.23,.7-2.86,1.26-1.63,.55-2.99,.89-3.04,.74-.05-.14,1.23-.7,2.86-1.26,1.63-.55,2.99-.89,3.04-.74Z"/><path class="y" d="M663.44,285.6c-.02,.15-1.04,.1-2.26-.1-1.22-.2-2.2-.48-2.17-.63,.02-.15,1.04-.1,2.26,.1,1.22,.2,2.2,.48,2.17,.63Z"/><path class="y" d="M648.62,276.09c-.13,.07-.72-.82-1.3-1.98-.59-1.16-.95-2.16-.82-2.22s.72,.82,1.3,1.98c.59,1.16,.95,2.15,.82,2.22Z"/><path class="y" d="M642.76,283.2c-.02,.15-.99,.16-2.16,.02-1.18-.14-2.12-.37-2.1-.52,.02-.15,.99-.16,2.16-.02,1.18,.14,2.12,.37,2.1,.52Z"/><path class="y" d="M637.64,298.04c-.07,.13-1.05-.24-2.2-.83-1.15-.59-2.02-1.18-1.95-1.31,.07-.13,1.05,.24,2.2,.83,1.14,.59,2.02,1.18,1.95,1.31Z"/><path class="y" d="M636.04,310.78c.02,.15-.87,.37-1.98,.5-1.11,.13-2.03,.11-2.05-.04-.02-.15,.87-.37,1.98-.5,1.11-.13,2.03-.11,2.05,.04Z"/><path class="y" d="M632.33,331.51c.01,.15-.93,.35-2.1,.45-1.17,.1-2.13,.06-2.14-.09-.01-.15,.93-.35,2.1-.45,1.17-.1,2.13-.06,2.14,.09Z"/><path class="y" d="M630.09,342.93c.06,.14-.75,.61-1.81,1.04-1.06,.44-1.96,.68-2.02,.54-.06-.14,.75-.61,1.81-1.04,1.06-.44,1.96-.68,2.02-.54Z"/><path class="y" d="M638.28,356.91c-.14,.06-.71-.92-1.29-2.18-.58-1.27-.93-2.35-.8-2.41,.14-.06,.71,.92,1.29,2.18,.58,1.27,.93,2.35,.8,2.41Z"/><path class="y" d="M643.04,335.41c.09,.12-.73,.94-1.84,1.84-1.11,.9-2.09,1.54-2.18,1.42-.09-.12,.73-.94,1.84-1.84,1.11-.9,2.08-1.54,2.18-1.42Z"/><path class="y" d="M643.52,323.94c-.12,.09-.75-.54-1.41-1.4-.66-.86-1.1-1.64-.98-1.73,.12-.09,.75,.54,1.41,1.4,.66,.86,1.1,1.64,.98,1.73Z"/><path class="y" d="M646.76,309.53c.1,.11-.6,.92-1.56,1.81-.96,.89-1.82,1.52-1.93,1.41-.1-.11,.6-.92,1.56-1.81,.96-.89,1.82-1.52,1.93-1.41Z"/><path class="y" d="M648.81,299.05c-.11,.1-.91-.66-1.78-1.69-.87-1.03-1.48-1.94-1.36-2.04,.11-.1,.91,.66,1.78,1.69,.87,1.03,1.48,1.94,1.36,2.04Z"/><path class="y" d="M652.22,284.93c.12,.09-.4,1.01-1.17,2.05-.76,1.04-1.48,1.82-1.6,1.73-.12-.09,.4-1.01,1.17-2.05,.76-1.04,1.48-1.82,1.6-1.73Z"/><path class="y" d="M657.36,272.04c.12,.08-.35,1.01-1.05,2.06-.71,1.06-1.38,1.85-1.5,1.76-.12-.08,.35-1.01,1.05-2.06,.71-1.06,1.38-1.85,1.5-1.76Z"/><path class="y" d="M661.2,278.48c.05,.14-.59,.51-1.44,.82-.85,.31-1.57,.45-1.62,.31-.05-.14,.59-.51,1.44-.82,.85-.31,1.57-.45,1.62-.31Z"/><path class="y" d="M656.82,326.11c-.04,.14-1.39-.18-2.88-.99-1.49-.81-2.5-1.77-2.41-1.88,.1-.12,1.22,.62,2.66,1.4,1.44,.79,2.68,1.32,2.63,1.47Z"/><path class="y" d="M654.07,336.02c.01,.15-.92,.36-2.09,.48-1.17,.11-2.13,.08-2.15-.06-.01-.15,.92-.36,2.09-.48,1.17-.11,2.13-.08,2.15,.06Z"/><path class="y" d="M650.23,353.11c-.1,.1-1.18-.79-2.11-2.23-.94-1.44-1.32-2.79-1.19-2.83,.15-.06,.74,1.16,1.64,2.54,.9,1.39,1.77,2.42,1.65,2.53Z"/><path class="y" d="M625.22,358.73c-.09-.12,.59-.75,1.51-1.4,.92-.65,1.74-1.08,1.83-.95,.09,.12-.59,.75-1.51,1.4-.92,.65-1.74,1.08-1.82,.95Z"/></g></g><path class="n" d="M622.17,313.15c-.6-3.63-2.09-7.98-5.72-8.56-2.16-.35-4.33,.92-5.62,2.67-1.3,1.76-2.05,3.9-2.3,6.07-1.68,14.33-1.6,31,1.16,46.58l13.32,1.95c2.25-16.53,1.9-32.26-.83-48.72Z"/><path class="y" d="M616.44,304.59c.05,.05-.63,.52-1.4,1.72-.77,1.21-1.35,3.23-1.49,5.8-.11,2.57-.27,5.66-.34,9.06-.06,3.41,0,7.16,.2,11.1,.38,7.87,1.07,14.99,1.42,20.15,.18,2.58,.29,4.67,.35,6.12,.02,.66,.03,1.21,.04,1.67,0,.38,0,.58-.03,.58-.02,0-.05-.2-.1-.58-.04-.45-.09-1-.16-1.66-.14-1.54-.32-3.6-.54-6.1-.45-5.15-1.21-12.26-1.6-20.16-.19-3.95-.24-7.71-.15-11.14,.03-1.71,.13-3.34,.21-4.86,.1-1.51,.14-2.93,.26-4.23,.2-2.6,.86-4.69,1.72-5.89,.86-1.2,1.61-1.59,1.61-1.59Z"/><path class="y" d="M623.38,308.62c.08,.15-.7,.72-1.73,1.27-1.04,.55-1.94,.88-2.02,.73-.08-.15,.7-.72,1.73-1.27,1.04-.55,1.94-.88,2.02-.73Z"/><path class="y" d="M625.65,319.52c0,.17-1.1,.23-2.39-.1-1.29-.33-2.22-.92-2.14-1.07,.07-.16,1.07,.16,2.3,.47,1.23,.32,2.25,.53,2.24,.7Z"/><path class="y" d="M625.41,330.82c-.11,.13-1.06-.5-2.11-1.4-1.06-.9-1.82-1.74-1.71-1.87,.11-.13,1.06,.5,2.11,1.4,1.06,.9,1.82,1.74,1.71,1.87Z"/><g><rect class="u" x="579.54" y="355.28" width="77.06" height="13.66"/><polygon class="u" points="585.29 366.23 594.66 407.04 640.59 407.04 650.85 366.23 585.29 366.23"/><path class="y" d="M656.56,368.95c0,.15-17.38,.27-38.82,.27s-38.82-.12-38.82-.27,17.38-.27,38.82-.27,38.82,.12,38.82,.27Z"/></g><path class="y" d="M618.04,321.11c-.16,.07-.65-.71-1.1-1.74-.45-1.03-.69-1.92-.53-1.98,.16-.07,.65,.71,1.1,1.74,.45,1.03,.69,1.92,.53,1.98Z"/><path class="y" d="M616.26,333.48c-.15-.08,.2-1.09,.8-2.27,.59-1.18,1.19-2.07,1.35-1.99,.15,.08-.2,1.09-.8,2.27-.59,1.18-1.19,2.07-1.35,1.99Z"/><path class="y" d="M618.58,347.08c-.16,.05-.66-1.08-1.11-2.53-.45-1.45-.68-2.66-.52-2.71,.16-.05,.66,1.08,1.11,2.53,.45,1.45,.68,2.66,.52,2.71Z"/><path class="y" d="M605.09,352.71c-.11-.13,.56-.83,1.48-1.57,.93-.73,1.76-1.22,1.87-1.08,.11,.13-.56,.83-1.49,1.57-.93,.73-1.76,1.22-1.87,1.08Z"/></g></g><g id="d"><g id="e"><g><g><g><rect class="n" x="107.27" y="99.36" width="454.85" height="300.79" rx="14.57" ry="14.57"/><path class="n" d="M89.5,380.73h492.8v8.52c0,9.82-7.97,17.8-17.8,17.8H107.29c-9.82,0-17.8-7.97-17.8-17.8v-8.52h0Z"/><polygon class="y" points="289.86 377.9 295.97 387.63 382.02 387.63 387.7 377.9 289.86 377.9"/></g><g><path class="x" d="M131.59,119.91h405.82c1.81,0,3.27,1.47,3.27,3.27v238.05c0,1.81-1.47,3.27-3.27,3.27H131.59c-1.81,0-3.27-1.47-3.27-3.27V123.18c0-1.81,1.47-3.27,3.27-3.27Z"/><polygon class="k" points="540.24 364.87 127.88 364.87 128.32 138.19 540.24 138.19 540.24 364.87"/><path class="y" d="M162.14,129.36c0,1.82-1.47,3.29-3.29,3.29s-3.29-1.47-3.29-3.29,1.47-3.29,3.29-3.29,3.29,1.47,3.29,3.29Z"/><path class="y" d="M142.18,129.36c0,1.82-1.47,3.29-3.29,3.29s-3.29-1.47-3.29-3.29,1.48-3.29,3.29-3.29,3.29,1.47,3.29,3.29Z"/><path class="y" d="M151.76,129.36c0,1.82-1.47,3.29-3.29,3.29s-3.29-1.47-3.29-3.29,1.47-3.29,3.29-3.29,3.29,1.47,3.29,3.29Z"/></g><path class="y" d="M558.22,377.9c0,.16-100.95,.29-225.46,.29s-225.48-.13-225.48-.29,100.93-.29,225.48-.29,225.46,.13,225.46,.29Z"/></g><g><path class="s" d="M480.95,339.84h-6c-.28,0-.5-.22-.5-.5s.22-.5,.5-.5h5.5v-5.5c0-.28,.22-.5,.5-.5s.5,.22,.5,.5v6c0,.28-.22,.5-.5,.5Z"/><path class="s" d="M463.29,339.84h-11.66c-.28,0-.5-.22-.5-.5s.22-.5,.5-.5h11.66c.28,0,.5,.22,.5,.5s-.22,.5-.5,.5Zm-23.33,0h-11.66c-.28,0-.5-.22-.5-.5s.22-.5,.5-.5h11.66c.28,0,.5,.22,.5,.5s-.22,.5-.5,.5Zm-23.33,0h-11.67c-.28,0-.5-.22-.5-.5s.22-.5,.5-.5h11.67c.28,0,.5,.22,.5,.5s-.22,.5-.5,.5Zm-23.33,0h-11.66c-.28,0-.5-.22-.5-.5s.22-.5,.5-.5h11.66c.28,0,.5,.22,.5,.5s-.22,.5-.5,.5Z"/><path class="s" d="M369.97,339.84h-6c-.28,0-.5-.22-.5-.5v-6c0-.28,.22-.5,.5-.5s.5,.22,.5,.5v5.5h5.5c.28,0,.5,.22,.5,.5s-.22,.5-.5,.5Z"/><path class="s" d="M363.97,321.34c-.28,0-.5-.22-.5-.5v-12.5c0-.28,.22-.5,.5-.5s.5,.22,.5,.5v12.5c0,.28-.22,.5-.5,.5Zm0-25.01c-.28,0-.5-.22-.5-.5v-12.5c0-.28,.22-.5,.5-.5s.5,.22,.5,.5v12.5c0,.28-.22,.5-.5,.5Zm0-25.01c-.28,0-.5-.22-.5-.5v-12.51c0-.28,.22-.5,.5-.5s.5,.22,.5,.5v12.51c0,.28-.22,.5-.5,.5Z"/><path class="s" d="M363.97,246.31c-.28,0-.5-.22-.5-.5v-6c0-.28,.22-.5,.5-.5h6c.28,0,.5,.22,.5,.5s-.22,.5-.5,.5h-5.5v5.5c0,.28-.22,.5-.5,.5Z"/><path class="s" d="M463.29,240.31h-11.66c-.28,0-.5-.22-.5-.5s.22-.5,.5-.5h11.66c.28,0,.5,.22,.5,.5s-.22,.5-.5,.5Zm-23.33,0h-11.66c-.28,0-.5-.22-.5-.5s.22-.5,.5-.5h11.66c.28,0,.5,.22,.5,.5s-.22,.5-.5,.5Zm-23.33,0h-11.66c-.28,0-.5-.22-.5-.5s.22-.5,.5-.5h11.66c.28,0,.5,.22,.5,.5s-.22,.5-.5,.5Zm-23.33,0h-11.67c-.28,0-.5-.22-.5-.5s.22-.5,.5-.5h11.67c.28,0,.5,.22,.5,.5s-.22,.5-.5,.5Z"/><path class="s" d="M480.95,246.31c-.28,0-.5-.22-.5-.5v-5.5h-5.5c-.28,0-.5-.22-.5-.5s.22-.5,.5-.5h6c.28,0,.5,.22,.5,.5v6c0,.28-.22,.5-.5,.5Z"/><path class="s" d="M480.95,321.34c-.28,0-.5-.22-.5-.5v-12.51c0-.28,.22-.5,.5-.5s.5,.22,.5,.5v12.51c0,.28-.22,.5-.5,.5Zm0-25.01c-.28,0-.5-.22-.5-.5v-12.5c0-.28,.22-.5,.5-.5s.5,.22,.5,.5v12.5c0,.28-.22,.5-.5,.5Zm0-25.01c-.28,0-.5-.22-.5-.5v-12.5c0-.28,.22-.5,.5-.5s.5,.22,.5,.5v12.5c0,.28-.22,.5-.5,.5Z"/></g></g></g><g><g><path class="y" d="M364.69,35.88c-2.54,5.04-2.39,11.31,.38,16.19,1.35,2.37,3.35,4.85,2.62,7.48-.72,2.61-3.88,4.04-4.51,6.67-.74,3.1,2.34,5.74,3.01,8.84,.63,2.91-1.25,6.17-4.11,7.11,4.37,1.06,9.04,.9,13.33-.47,.41-1.81,.83-3.61,1.24-5.42-.53,1.94,.82,4,2.63,4.87,1.8,.87,3.92,.81,5.92,.54,9.54-1.32,18.34-7.36,22.99-15.78"/><path class="y" d="M421.47,35.56c-1.51-1.59-3.37-2.84-4.7-4.58-2.86-3.74-3.02-9.4-6.82-12.18-2.71-1.98-6.41-1.83-9.75-1.34-3.34,.49-6.83,1.22-10.01,.12-2.33-.8-4.25-2.52-6.58-3.33-3.32-1.16-7.02-.33-10.3,.99-3.37,1.35-6.61,3.26-8.88,6.09-2.27,2.83-3.45,6.67-2.46,10.13,.48,1.69,1.45,3.24,1.66,4.98,.23,1.92-.47,3.83-.55,5.76-.17,4.08,2.83,8.05,6.81,9.01l36.03,18.16c5.55-.47,15.99-8.02,18.01-13.2,2.02-5.19,1.35-16.58-2.45-20.6Z"/><path class="o" d="M368.76,47.26c-2.15-6.98-.77-17.07,6.34-18.98l23.38-2.82c2.16-.58,4.39,.58,5.14,2.67l17.76,49.97s.61,.69,1.41-.15c.21-.22,.57-.04,.52,.25-.78,4.64,.13,15.47-13.87,16.4-3.13,.21-9.27,.45-11.02-2.45l-3.32-7.97c-1.61-4.11-2.25-5.8-2.24-5.76,0,0-9.31,1.91-15.43-8.74-3.04-5.3-6.27-14.67-8.66-22.42Z"/><path class="y" d="M376.08,56.32c.26,.78,1.15,1.19,1.97,.93,.82-.27,1.28-1.11,1.01-1.89-.26-.78-1.15-1.19-1.97-.93-.82,.27-1.28,1.11-1.02,1.89Z"/><path class="y" d="M390.25,50.98c.26,.78,1.15,1.19,1.97,.93,.82-.27,1.28-1.11,1.01-1.89-.26-.78-1.15-1.19-1.97-.93-.82,.27-1.28,1.11-1.02,1.89Z"/><path class="y" d="M372.08,51.72c.27,.18,1.2-1.27,2.96-1.81,1.75-.57,3.35,.08,3.47-.23,.06-.14-.28-.52-.98-.82-.69-.3-1.77-.47-2.86-.12-1.09,.35-1.88,1.1-2.27,1.75-.4,.65-.45,1.16-.32,1.24Z"/><path class="y" d="M387.6,46.47c.31,.14,1.16-1.4,2.97-2.17,1.8-.79,3.53-.36,3.63-.68,.05-.15-.33-.48-1.1-.68-.75-.2-1.9-.23-3.03,.26-1.12,.49-1.89,1.33-2.24,2.02-.37,.69-.38,1.19-.23,1.26Z"/><path class="y" d="M386.91,59.46c-.03-.09-1.07,.12-2.74,.52-.42,.11-.83,.18-1-.07-.2-.25-.2-.75-.18-1.29,.01-1.11,.02-2.28,.04-3.5,.01-4.97-.14-9-.34-8.99-.2,0-.37,4.04-.38,9.01,0,1.22,.01,2.39,.02,3.5,.02,.51-.05,1.13,.39,1.65,.22,.26,.6,.36,.88,.33,.29-.02,.52-.1,.72-.17,1.63-.53,2.63-.9,2.6-.99Z"/><path class="v" d="M392.85,78.42s7.88-2.46,13.78-9.92c0,0-.83,9.44-12.68,12.77l-1.1-2.84Z"/><path class="v" d="M389.23,63.02c.49-.88,1.48-1.46,2.54-1.51,.74-.03,1.52,.21,2.04,.74,.52,.52,.73,1.34,.41,1.96-.36,.7-1.29,.98-2.11,.87-.83-.11-1.59-.53-2.31-.96-.2-.12-.41-.24-.54-.42-.14-.18-.2-.44-.08-.62"/><path class="y" d="M392.32,59.69c-.26,.08,.38,1.79-.63,3.55-1,1.77-2.9,2.28-2.83,2.52,.02,.12,.53,.17,1.31-.1,.77-.26,1.78-.93,2.4-2.01,.61-1.08,.62-2.22,.42-2.94-.2-.74-.56-1.08-.67-1.03Z"/><path class="y" d="M384.68,41.55c.38,.3,1.7-.77,3.52-1.61,1.8-.87,3.46-1.22,3.47-1.71,0-.23-.46-.45-1.24-.49-.78-.04-1.86,.14-2.95,.65-1.08,.51-1.91,1.25-2.37,1.87-.47,.63-.59,1.13-.42,1.27Z"/><path class="y" d="M370.18,46.92c.46,.27,1.77-.49,3.47-.97,1.68-.52,3.21-.6,3.44-1.08,.1-.23-.23-.53-.95-.71-.71-.18-1.83-.18-2.99,.16-1.16,.34-2.09,.95-2.58,1.49-.5,.54-.6,.97-.39,1.11Z"/><path class="y" d="M403.68,24.92c-1.75-1.07-3.96-1.01-6.02-.85-8.89,.68-17.7,2.42-26.19,5.16-.23,2.1,1.73,3.88,3.8,4.36,2.06,.47,4.21,.03,6.33-.16,2.11-.18,4.44-.03,6.01,1.38,1.67,1.5,2.04,4.03,3.63,5.6,2.74,2.72,7.85,1.59,10.57,4.32,2.06,2.07,1.85,5.4,2.72,8.18,.98,3.16,3.56,5.76,6.71,6.79,2.49,.81,5.27,.6,7.67-.47-3.88-9.67-7.76-19.35-11.65-29.02-.81-2.01-1.73-4.16-3.58-5.3Z"/><path class="y" d="M433.99,39.65c-2.13-.62-4.55-.89-6.04-2.51-2.18-2.37-1.46-6.69-4.1-8.54-2.41-1.68-6.24,.28-8.58-1.5-1.82-1.39-1.49-3.54-2.61-4.98-1.12-1.44-4.1-1.77-5.67-.79l-4.19,24.76c1.74,6.82,2.09,10.72,5.17,13.74,1.69,1.65,3.57,3.15,4.86,5.13,1.29,1.98,1.87,4.64,.71,6.71,8.03-3.06,13.4-10.52,18.28-17.59,1.72-2.49,3.44-4.99,5.17-7.48,.54-.78,1.09-1.6,1.19-2.54,.24-2.2-2.06-3.81-4.18-4.43Z"/><path class="n" d="M431.12,52.12s-.23,.23-.75,.55c-.52,.31-1.35,.73-2.49,.97-1.14,.24-2.62,.3-4.21-.2-1.59-.49-3.23-1.66-4.33-3.44-.55-.89-.96-1.93-1.13-3.07-.17-1.14-.05-2.34,.09-3.54,.14-1.2,.31-2.44,.09-3.67-.22-1.2-.81-2.47-1.95-3.06-1.15-.6-2.56-.21-4.01-.12-.73,.05-1.53-.03-2.22-.43-.69-.4-1.17-1.07-1.48-1.76-.65-1.42-.65-2.99-1-4.42-.18-.72-.45-1.42-.91-1.97-.46-.55-1.12-.91-1.85-1.03-1.49-.26-2.98,.29-4.41,.82-1.43,.56-3.02,.93-4.54,.72-1.52-.16-2.95-.75-4.12-1.65-1.16-.91-1.98-2.09-2.74-3.21-.76-1.12-1.48-2.22-2.39-3.1-.9-.87-1.99-1.48-3.1-1.86-2.26-.74-4.6-.59-6.49,.13-1.91,.72-3.35,1.99-4.33,3.26-1,1.28-1.58,2.58-1.92,3.67-.67,2.2-.54,3.5-.61,3.5,0,0-.02-.08-.02-.23,0-.16-.02-.39,0-.69,.02-.61,.12-1.51,.44-2.62,.32-1.11,.89-2.45,1.89-3.78,.99-1.32,2.45-2.66,4.43-3.42,1.96-.76,4.39-.94,6.75-.19,1.17,.39,2.32,1.03,3.28,1.94,.96,.91,1.7,2.04,2.46,3.15,.76,1.11,1.56,2.24,2.66,3.09,1.09,.83,2.45,1.39,3.88,1.54,1.44,.19,2.89-.15,4.32-.7,1.42-.52,3-1.13,4.67-.84,.82,.13,1.61,.56,2.14,1.2,.54,.64,.83,1.41,1.01,2.17,.37,1.52,.37,3.04,.97,4.34,.29,.64,.71,1.21,1.28,1.55,.58,.34,1.27,.42,1.96,.37,.69-.03,1.39-.16,2.11-.19,.71-.04,1.48,.03,2.13,.38,1.32,.7,1.94,2.11,2.17,3.39,.23,1.32,.03,2.6-.11,3.79-.15,1.2-.28,2.35-.12,3.43,.16,1.08,.54,2.08,1.05,2.94,1.04,1.72,2.6,2.87,4.12,3.37,1.53,.52,2.97,.48,4.09,.28,2.27-.45,3.25-1.42,3.28-1.33Z"/><path class="y" d="M435.23,33.98s.24,.11,.55,.51c.3,.38,.63,1.1,.56,2.06-.04,.47-.18,1.01-.5,1.5-.32,.49-.82,.94-1.45,1.22-1.23,.6-3.03,.55-4.4-.53-.68-.52-1.26-1.24-1.66-2.08-.4-.85-.58-1.81-.65-2.8-.17-1.95,.19-4.1-.7-6.06-.42-.95-1.13-1.87-2.14-2.22-1.02-.37-2.16-.03-3.23,.46-1.08,.47-2.17,1.15-3.52,1.24-.66,.04-1.36-.13-1.92-.5-.57-.36-1.01-.87-1.36-1.43-.71-1.13-.96-2.4-1.33-3.55-.34-1.17-.91-2.2-1.67-3.08-1.52-1.75-3.69-2.8-5.82-2.99-2.15-.21-4.15,.6-5.95,1.33-1.81,.74-3.56,1.44-5.27,1.55-1.69,.15-3.23-.11-4.49-.52-1.27-.41-2.28-.99-3.04-1.52-1.52-1.1-2.07-2-2.07-2,.05-.05,.65,.81,2.18,1.84,.77,.5,1.76,1.05,3.02,1.42,1.24,.38,2.74,.6,4.38,.44,1.64-.13,3.34-.82,5.14-1.58,1.79-.74,3.85-1.61,6.14-1.4,2.25,.18,4.53,1.28,6.14,3.12,.8,.92,1.42,2.05,1.77,3.25,.38,1.18,.63,2.41,1.28,3.44,.62,1.03,1.67,1.8,2.84,1.7,1.16-.07,2.24-.71,3.34-1.19,1.08-.5,2.38-.9,3.59-.46,1.19,.42,1.96,1.46,2.4,2.48,.46,1.04,.61,2.16,.64,3.2,.03,1.05,0,2.06,.06,3.02,.06,.96,.23,1.87,.59,2.67,.36,.79,.89,1.47,1.52,1.97,1.26,1.02,2.91,1.09,4.07,.56,.59-.25,1.06-.65,1.37-1.1,.31-.45,.45-.94,.51-1.39,.09-.9-.19-1.6-.45-1.99-.27-.4-.49-.54-.47-.57Z"/><path class="y" d="M355.72,77.22c.07-.04-.07,.94,.97,2,.51,.49,1.35,.98,2.37,.86,1-.11,2.08-.91,2.48-2.12,.2-.6,.16-1.28-.09-1.93-.25-.65-.69-1.25-1.21-1.81-1.02-1.11-2.53-2.13-3.2-3.88-.68-1.69-.63-3.77,.27-5.56,.44-.89,1.06-1.71,1.82-2.4,.76-.7,1.67-1.22,2.58-1.7,.9-.49,1.8-.94,2.55-1.55,.75-.6,1.31-1.38,1.48-2.27,.18-.89,0-1.8-.32-2.63-.32-.83-.79-1.58-1.32-2.28-1.04-1.39-2.21-2.66-2.81-4.17-.61-1.5-.66-3.06-.37-4.39,.28-1.35,.96-2.42,1.53-3.31,.58-.89,1.07-1.66,1.37-2.34,.63-1.36,.44-2.23,.51-2.22,0,0,.02,.05,.03,.15,0,.1,.04,.25,.02,.45,0,.4-.09,.99-.38,1.69-.28,.71-.76,1.5-1.31,2.41-.55,.91-1.18,1.95-1.42,3.23-.25,1.27-.18,2.76,.41,4.16,.58,1.42,1.72,2.65,2.8,4.05,.54,.7,1.05,1.49,1.39,2.38,.34,.88,.55,1.88,.35,2.9-.19,1.02-.84,1.92-1.65,2.56-.81,.65-1.73,1.12-2.63,1.6-.9,.48-1.77,.97-2.48,1.63-.71,.65-1.3,1.42-1.72,2.25-.84,1.66-.9,3.6-.28,5.18,.59,1.62,2.01,2.61,3.08,3.77,.54,.59,1,1.23,1.27,1.95,.27,.71,.31,1.5,.07,2.17-.47,1.35-1.68,2.18-2.79,2.29-1.14,.11-2.03-.46-2.54-1-.53-.56-.73-1.14-.81-1.53-.07-.4-.02-.6-.02-.6Z"/></g><g><g><rect class="m" x="356.91" y="173.66" width="122.69" height="98.51" rx="4.59" ry="4.59"/><path class="y" d="M475.01,272.17s.39,.01,1.1-.17c.7-.18,1.78-.65,2.62-1.83,.41-.58,.72-1.35,.79-2.23,.03-.88,0-1.87,0-2.92,0-2.12-.01-4.56-.02-7.31-.02-11-.05-26.91-.08-46.56,0-9.83-.02-20.6-.03-32.15,0-.73,.02-1.42-.21-2.09-.22-.66-.59-1.27-1.08-1.76-.5-.49-1.12-.86-1.79-1.07-.68-.22-1.39-.2-2.15-.19-2.99,0-6.02,0-9.1,0-6.16,0-12.49,0-18.99,.01-25.99,0-54.56,.01-84.55,.02-1.79-.03-3.49,1.18-4.07,2.84-.34,.82-.26,1.73-.27,2.67v2.78c0,3.7,0,7.38,0,11.03,0,7.3,0,14.5,0,21.57,0,14.14-.01,27.79-.02,40.78,0,3.25,0,6.46,0,9.62,0,.79,0,1.58,0,2.37,.01,.75,.2,1.49,.57,2.13,.73,1.3,2.14,2.16,3.61,2.2,6.15,0,12.13,.02,17.9,.02,11.56,.01,22.32,.02,32.15,.03,19.65,.03,35.55,.06,46.56,.08,5.49,.02,9.75,.04,12.66,.05,1.44,.01,2.54,.02,3.29,.03,.74,0,1.12,.03,1.12,.03,0,0-.38,.02-1.12,.03-.75,0-1.85,.01-3.29,.03-2.9,.01-7.17,.03-12.66,.05-11,.02-26.91,.05-46.56,.08-9.83,0-20.6,.02-32.15,.03-5.78,0-11.76,0-17.92,0-1.62-.04-3.19-1-3.99-2.43-.41-.71-.62-1.54-.63-2.36,0-.79,0-1.58,0-2.37,0-3.17,0-6.38,0-9.62,0-13,0-26.64-.02-40.78,0-7.07,0-14.27,0-21.57,0-3.65,0-7.33,0-11.03v-2.78c.01-.9-.08-1.91,.3-2.85,.66-1.87,2.56-3.22,4.56-3.18,29.99,0,58.56,.01,84.55,.02,6.5,0,12.83,0,18.99,.01,3.08,0,6.11,0,9.1,0,.73,0,1.53-.03,2.28,.22,.74,.24,1.42,.65,1.97,1.19,.54,.55,.95,1.22,1.19,1.94,.25,.73,.24,1.52,.23,2.22-.01,11.56-.02,22.32-.03,32.15-.03,19.65-.06,35.55-.08,46.56,0,2.75-.02,5.19-.02,7.31-.01,1.06,.01,2.03-.03,2.93-.08,.9-.41,1.69-.83,2.28-.87,1.2-1.98,1.66-2.69,1.82-.73,.16-1.12,.11-1.12,.11Z"/></g><g><rect class="n" x="376.55" y="167.72" width="84.04" height="111.81" transform="translate(193.19 641.25) rotate(-89.76)"/><g class="p"><polygon points="362.48 265.41 401.75 213.34 425.81 246.12 442.29 228.72 474.29 265.88 362.48 265.41"/></g><g class="p"><path d="M436.24,207.08c-.02,4.86-3.98,8.79-8.84,8.77-4.86-.02-8.79-3.98-8.77-8.84,.02-4.86,3.98-8.79,8.84-8.77,4.86,.02,8.79,3.98,8.77,8.84Z"/></g></g></g><g><path class="u" d="M363.88,100.33s-.61-1.23,2.88-5.15c3.49-3.92,27.61-12.84,27.61-12.84,0,0,9.38,11.34,18.09,3.55,6.35-5.67,7.34-12.54,7.34-12.54,0,0,21.29-1.19,21.74,.2l5.7,26.77-10,.06-73.36-.05Z"/><path class="o" d="M414.63,161.56l37.06-37.02-4.72-20.25,19.94-5.87s5.9,28.27,5.12,33.25c-1.53,9.64-47.01,37.17-47.01,37.17l-10.38-7.29Z"/><path class="u" d="M440.52,73.15s8.94,.53,16.2,8c7.68,7.91,16.87,28.65,16.87,28.65l-26.04,6.34-7.03-43Z"/><path class="o" d="M409.9,165.61l-10.4,6.49s-5.24,8.73-5.99,10.92c-.74,2.19-1.48,7.67-1.48,7.67,0,0,2.27,2.07,3.19-1.12l1.07-2.45-.9,5.68s2.3,1.78,3.42-1.24,1.62-5.9,1.62-5.9l3.56-4.89-3.59,11.68s-.68,2.35,1.41,2.15c.83-.08,2.68-4.2,2.68-4.2,0,0,1.52,1.97,2.78,.2,1.29-1.81,6.19-8.75,6.19-8.75,0,0,6.64-8.2,6.66-8.42,0-.04,4.88-4.58,4.88-4.58l-10.38-7.29-4.49,3.82c-.06,.09-.14,.17-.24,.23Z"/><path class="v" d="M395.42,192.59s.07-.23,.15-.66c.09-.46,.2-1.07,.34-1.8,.14-.78,.3-1.68,.47-2.68,.09-.51,.18-1.04,.27-1.58,.1-.54,.29-1.08,.51-1.62,.92-2.16,2.14-3.95,3.02-5.21,.44-.63,.82-1.13,1.08-1.48,.26-.34,.4-.54,.39-.55-.01,0-.17,.17-.46,.5-.28,.33-.68,.82-1.14,1.44-.92,1.25-2.16,3.02-3.1,5.22-.23,.55-.42,1.11-.52,1.67-.09,.55-.18,1.08-.26,1.59-.16,1-.3,1.91-.43,2.69-.11,.74-.2,1.35-.27,1.82-.06,.43-.08,.67-.07,.67Z"/><path class="v" d="M409.32,180.35s-.1,.11-.24,.34c-.14,.23-.34,.56-.59,.97-.49,.83-1.16,1.98-1.89,3.28h0l-.09,.24c-.58,1.43-1.1,2.73-1.46,3.67-.18,.47-.32,.86-.42,1.12-.09,.27-.14,.42-.13,.42,.01,0,.09-.13,.21-.39,.12-.26,.28-.63,.48-1.1,.4-.93,.94-2.22,1.52-3.65,.03-.08,.06-.16,.09-.23h0c.73-1.28,1.38-2.45,1.84-3.3,.23-.42,.41-.77,.53-1.01,.12-.24,.18-.38,.17-.38Z"/><g><g><path class="o" d="M350.97,97.82c.05,.11,.09,.21,.13,.32,.18,.5,.28,1.02,.32,1.55,.02,.24-.02,.51,.03,.75,.04,.16,.14,.29,.21,.44,.4,.95,.31,2.08,.27,3.09-.04,1.14-.02,2.34,.57,3.31,.59,.97,1.97,1.54,2.91,.9-.14,.71,.41,1.44,1.11,1.62,.7,.18,1.46-.11,1.98-.61,.52-.51,.81-1.2,.99-1.9-.05,.85,.79,1.58,1.64,1.59,.85,.01,1.63-.55,2.08-1.27,.45-.72,.62-1.58,.72-2.42,.1-.84,.29-2.42,.51-3.25,0,0,1.07,.17,1.55,.22,.66,.06,.14,.01,.14,.01,.36-.35,.63-.96,1.02-1.77,.68-1.4,1.2-2.29,1.72-3.56,.39-.95,.64-1.9,.05-2.52-1.42-1.49-4.18,1.54-4.18,1.54-.39-1.05-3.61-1.23-4.23,.18-.25-.77-.16-1.22-.78-1.74-.63-.52-1.49-.79-2.28-.57-.79,.21-1.43,.97-1.38,1.79-.66-1.07-2.03-1.64-3.26-1.36-.74,.17-1.39,.64-1.82,1.25-.22,.31-.37,.65-.46,1.02-.03,.13-.09,.28-.08,.42,0,.07,.03,.13,.07,.19,.14,.27,.33,.51,.46,.79Z"/><path class="o" d="M347.57,95.94c-.7-.02-1.46,.12-1.93,.64-.55,.62-.67,1.85-.6,2.68,.97,.18,1.47,.22,2.44,.4,.2,.04,.38-.01,.55,.11,.45,.32,.38,1.39,.56,1.91,.31,.9,1.47,1.34,2.36,1.01,.89-.33,1.47-1.28,1.51-2.23,.05-.95-.37-1.88-.99-2.61-.96-1.14-2.41-1.85-3.9-1.9Z"/><path class="v" d="M355.88,95.28c.18,0,.18,2.92,0,6.49-.18,3.58-.48,6.47-.66,6.46-.18,0-.18-2.91,0-6.49,.18-3.57,.48-6.47,.66-6.46Z"/><path class="v" d="M360.53,95.92c.17,0,.41,2.64,.13,5.89-.28,3.25-.96,5.82-1.13,5.78-.19-.04,.2-2.63,.47-5.84,.28-3.21,.34-5.83,.53-5.83Z"/></g><path class="v" d="M364.89,95.92c.19,0,.26,2.2-.08,4.87-.34,2.66-.75,4.79-.92,4.77-.19-.02-.07-2.2,.27-4.85,.34-2.64,.55-4.79,.73-4.79Z"/><path class="v" d="M348.97,96.48c0-.08,.47-.18,1.14,.12,.66,.29,1.42,1.06,1.79,2.09,.36,1.03,.47,1.92,.44,2.67-.08,.8-.66,1.04-.68,.93-.05-.07,.26-.35,.21-.95-.08-.58-.28-1.54-.59-2.43-.33-.91-.89-1.57-1.4-1.92-.51-.36-.92-.43-.91-.53Z"/></g></g></g></g><g id="f"><g><g><rect class="k" x="183.65" y="253.19" width="158.42" height="88.07" rx="8.65" ry="8.65"/><path class="y" d="M333.42,341.27s.42,0,1.23-.12c.8-.12,2.01-.41,3.35-1.26,1.33-.83,2.79-2.31,3.54-4.51,.39-1.1,.49-2.34,.45-3.68,0-1.34,0-2.77-.01-4.28-.02-12.11-.05-29.61-.08-51.23,0-2.7,0-5.47,0-8.3,0-1.42,0-2.85,0-4.29,0-1.45,.06-2.9-.39-4.28-.86-2.75-3.26-5.06-6.21-5.69-.74-.16-1.48-.22-2.25-.21h-2.33c-1.56,0-3.14,0-4.73,0-12.72,0-26.31,.02-40.61,.02-28.6,0-60.04,.01-93.04,.02-2.01,0-3.99,.74-5.49,2.05-1.52,1.29-2.53,3.14-2.81,5.1-.15,.97-.09,1.99-.1,3.01v3.04c0,2.02,0,4.04,0,6.05,0,8.04,0,15.96,0,23.74,0,7.78,0,15.43,0,22.91,0,3.74,0,7.45,0,11.11,.01,.91-.03,1.85,.03,2.72,.07,.88,.24,1.76,.58,2.57,.66,1.63,1.83,3.04,3.3,3.97,1.47,.94,3.2,1.38,4.94,1.32,1.77,0,3.52,0,5.26,0,3.48,0,6.92,0,10.31,0,6.77,0,13.35,0,19.71,.01,12.72,.01,24.56,.02,35.38,.03,21.62,.03,39.12,.06,51.23,.08,6.04,.02,10.73,.04,13.93,.05,1.58,.01,2.8,.02,3.62,.03,.82,0,1.23,.03,1.23,.03,0,0-.42,.02-1.23,.03-.83,0-2.04,.01-3.62,.03-3.19,.01-7.89,.03-13.93,.05-12.11,.02-29.61,.05-51.23,.08-10.82,0-22.66,.02-35.38,.03-6.36,0-12.94,0-19.71,.01-3.39,0-6.82,0-10.31,0-1.74,0-3.5,0-5.26,0-1.79,.07-3.66-.39-5.2-1.39-1.56-.98-2.8-2.46-3.49-4.19-.36-.86-.54-1.79-.62-2.72-.06-.94-.02-1.83-.03-2.75,0-3.66,0-7.37,0-11.11,0-7.49,0-15.13,0-22.91,0-7.78,0-15.7,0-23.74v-6.05c0-1.01,0-2.03,0-3.04,.01-1.01-.05-2.03,.11-3.08,.3-2.08,1.37-4.05,2.98-5.41,1.6-1.39,3.7-2.17,5.83-2.17,33,0,64.44,.01,93.04,.02,14.3,0,27.89,.02,40.61,.02,1.59,0,3.17,0,4.73,0,.78,0,1.56,0,2.33,0,.77,0,1.58,.05,2.34,.22,3.1,.67,5.6,3.09,6.5,5.98,.48,1.45,.4,2.98,.4,4.4,0,1.45,0,2.88,0,4.29,0,2.83,0,5.6,0,8.3-.03,21.62-.06,39.13-.08,51.23,0,1.51,0,2.94-.01,4.28,.04,1.33-.08,2.63-.48,3.73-.77,2.24-2.27,3.72-3.63,4.55-1.37,.84-2.59,1.12-3.4,1.22-.4,.07-.72,.06-.92,.07-.21,0-.31,0-.31,0Z"/></g><rect class="u" x="200.55" y="268.07" width="23.53" height="4.44"/><rect class="u" x="200.55" y="322.46" width="23.53" height="4.44"/><rect class="s" x="200.55" y="279.08" width="40.51" height="4.44"/><rect class="u" x="248.24" y="279.08" width="17.91" height="4.44"/><rect class="y" x="307.73" y="279.08" width="11.77" height="4.44"/><rect class="n" x="272.44" y="279.08" width="31.18" height="4.44"/><rect class="s" x="278.99" y="289.57" width="40.51" height="4.44" transform="translate(598.49 583.59) rotate(180)"/><rect class="n" x="253.91" y="289.57" width="17.91" height="4.44" transform="translate(525.72 583.59) rotate(180)"/><rect class="y" x="200.55" y="289.57" width="11.77" height="4.44" transform="translate(412.87 583.59) rotate(180)"/><rect class="u" x="216.43" y="289.57" width="31.18" height="4.44" transform="translate(464.04 583.59) rotate(180)"/><rect class="s" x="200.55" y="300.35" width="40.51" height="4.44"/><rect class="y" x="248.24" y="300.35" width="17.91" height="4.44"/><rect class="y" x="307.73" y="300.35" width="11.77" height="4.44"/><rect class="u" x="239.04" y="311.34" width="11.77" height="4.44"/><rect class="n" x="272.44" y="300.35" width="31.18" height="4.44"/><rect class="n" x="199.7" y="311.34" width="31.18" height="4.44"/></g></g><g id="g"><g><g><rect class="l" x="425.25" y="283.96" width="65.53" height="63.63" rx="8.1" ry="8.1"/><path class="y" d="M482.68,347.59c0-.05,.88,.04,2.43-.43,.77-.26,1.69-.69,2.6-1.43,.91-.74,1.8-1.83,2.38-3.24,.29-.71,.47-1.5,.54-2.34,.06-.84,.01-1.75,.02-2.69,0-1.88-.01-3.93-.02-6.12-.01-4.39-.02-9.4-.04-14.92,0-5.53-.02-11.59-.03-18.08,0-1.63,0-3.28,0-4.96,0-.84,.03-1.69-.1-2.5-.12-.82-.37-1.63-.76-2.37-.76-1.5-2.03-2.77-3.59-3.52-.78-.37-1.62-.64-2.49-.73-.86-.09-1.78-.05-2.69-.06-14.62,0-30.69,.01-47.56,.02-2.05,0-4.06,.83-5.49,2.25-1.45,1.41-2.3,3.38-2.34,5.37,0,4.11-.01,8.15-.02,12.13,0,7.96-.01,15.63-.02,22.94,0,3.66,0,7.22-.01,10.68,.01,.86-.03,1.74,.03,2.56,.08,.83,.26,1.63,.57,2.39,.64,1.5,1.73,2.79,3.07,3.62,1.34,.86,2.9,1.25,4.44,1.23,1.57,0,3.11,0,4.62,0,3.02,0,5.91,.01,8.68,.02,11.04,.03,19.99,.06,26.19,.08,3.08,.02,5.47,.04,7.12,.05l1.85,.03c.42,0,.63,.03,.63,.03,0,0-.21,.02-.63,.03-.44,0-1.05,.01-1.85,.03-1.65,.01-4.04,.03-7.12,.05-6.2,.02-15.14,.05-26.19,.08-2.76,0-5.66,.01-8.68,.02-1.51,0-3.05,0-4.62,0-1.59,.03-3.26-.38-4.67-1.28-1.42-.88-2.57-2.23-3.25-3.82-.33-.8-.53-1.65-.61-2.53-.07-.89-.02-1.72-.04-2.6,0-3.46,0-7.03-.01-10.68,0-7.31,0-14.98-.02-22.94,0-3.98,0-8.03,0-12.14,.04-2.12,.95-4.23,2.5-5.73,1.53-1.51,3.68-2.4,5.86-2.4,16.87,0,32.94,.01,47.56,.02,.91,0,1.81-.03,2.75,.07,.93,.1,1.82,.38,2.64,.78,1.66,.79,2.99,2.14,3.79,3.73,.86,1.57,.96,3.44,.9,5.08,0,1.68,0,3.33,0,4.96-.01,6.5-.02,12.55-.03,18.08-.01,5.53-.03,10.53-.04,14.92,0,2.2-.01,4.24-.02,6.12-.02,.94,.02,1.83-.05,2.71-.09,.86-.28,1.68-.58,2.4-.61,1.45-1.53,2.54-2.47,3.29-.95,.74-1.89,1.17-2.67,1.41-.79,.22-1.41,.3-1.83,.32-.42,.01-.63,0-.63,0Z"/></g><path class="y" d="M439.74,298.95h35.73l.06,11.97h-1.71c-.56-4.28-2.16-7.18-4.81-8.69-1.49-.83-3.71-1.29-6.67-1.37v31.26c0,2.18,.38,3.63,1.14,4.35,.76,.72,2.35,1.07,4.77,1.07v1.51h-21.15v-1.51c2.32,0,3.86-.36,4.62-1.09,.76-.72,1.14-2.17,1.14-4.34v-31.26c-2.9,.08-5.12,.53-6.66,1.37-2.84,1.55-4.44,4.45-4.81,8.69h-1.71l.06-11.97Z"/></g></g><g id="h"><g><g><path class="k" d="M501.89,187.72v119.65c0,3.55,2.88,6.43,6.43,6.43h77.14c3.55,0,6.43-2.88,6.43-6.43v-119.65c0-3.55-2.88-6.43-6.43-6.43h-77.14c-3.55,0-6.43,2.88-6.43,6.43Z"/><path class="y" d="M501.89,187.72s0-.09,0-.28c0-.19,.01-.47,.08-.84,.12-.73,.42-1.84,1.34-2.99,.9-1.12,2.5-2.27,4.67-2.39,2.12-.04,4.55-.03,7.3-.04,10.99-.02,26.88-.05,46.5-.08,4.91,0,10.05-.01,15.41-.02,2.68,0,5.41,0,8.2,0,2.89-.08,5.77,2,6.49,4.94,.2,.71,.25,1.49,.23,2.21,0,.73,0,1.46,0,2.19,0,1.47,0,2.95,0,4.44,0,2.98,0,6.01,0,9.09,0,6.15,0,12.48,.01,18.97,0,25.96,.01,54.5,.02,84.46,.01,1.95-.89,3.87-2.38,5.12-.73,.63-1.62,1.08-2.55,1.34-.93,.27-1.92,.25-2.83,.24-3.7,0-7.37,0-11.02,0-7.3,0-14.48,0-21.55,0-14.13,0-27.75-.01-40.74-.02h-2.43c-.81,0-1.67-.08-2.45-.35-1.58-.52-2.93-1.65-3.72-3.09-.4-.72-.66-1.51-.77-2.31-.11-.82-.06-1.6-.07-2.38,0-1.56,0-3.11,0-4.65,0-6.15,0-12.12,.01-17.89,.01-11.54,.02-22.3,.03-32.12,.03-19.63,.06-35.51,.08-46.5,.02-5.48,.04-9.74,.05-12.64,.01-1.44,.02-2.54,.03-3.29,0-.74,.03-1.12,.03-1.12,0,0,.02,.38,.03,1.12,0,.75,.01,1.85,.03,3.29,.01,2.9,.03,7.16,.05,12.64,.02,10.99,.05,26.87,.08,46.5,0,9.82,.02,20.57,.03,32.12,0,5.77,0,11.74,.01,17.89,0,1.54,0,3.09,0,4.65,0,.78-.03,1.57,.07,2.31,.1,.75,.35,1.48,.72,2.15,.73,1.34,2,2.39,3.46,2.87,.74,.25,1.5,.33,2.3,.32,.81,0,1.61,0,2.43,0,12.98,0,26.61,0,40.74-.02,7.06,0,14.25,0,21.55,0,3.65,0,7.32,0,11.02,0,.94,0,1.83,.02,2.69-.23,.86-.24,1.67-.65,2.35-1.23,1.37-1.15,2.2-2.92,2.19-4.72,0-29.96,.01-58.5,.02-84.46,0-6.49,0-12.82,.01-18.97,0-3.07,0-6.1,0-9.09,0-1.49,0-2.97,0-4.44,0-.73,0-1.46,0-2.19,.02-.74-.02-1.42-.21-2.1-.67-2.75-3.36-4.7-6.08-4.63-2.78,0-5.52,0-8.2,0-5.36,0-10.5-.01-15.41-.02-19.63-.03-35.51-.06-46.5-.08-2.74,0-5.19-.03-7.29,0-2.12,.09-3.7,1.21-4.6,2.3-.91,1.12-1.23,2.21-1.37,2.93-.14,.73-.1,1.11-.13,1.11Z"/></g><g><rect class="s" x="524.34" y="204.29" width="5.19" height="87.75" rx="2.45" ry="2.45"/><path class="y" d="M527.07,292.04c-.03-.06,.73,.1,1.63-.71,1.07-.81,.64-2.77,.7-5.03-.02-4.63-.06-11.27-.1-19.47-.02-8.23-.04-18.01-.06-28.87,0-5.43-.01-11.14-.02-17.05,0-2.96,0-5.96,0-9.02,0-1.53,0-3.06,0-4.61,0-.4,.02-.76-.07-1.08-.08-.33-.25-.64-.48-.89-.47-.53-1.13-.77-1.88-.72-.69,0-1.37,.35-1.76,.91-.2,.28-.32,.61-.37,.94-.04,.32-.02,.74-.02,1.12,0,1.55,0,3.09,0,4.61,0,3.05,0,6.06,0,9.02,0,5.91-.01,11.62-.02,17.05-.02,10.86-.05,20.65-.06,28.87-.04,8.2-.07,14.84-.1,19.47,0,1.14-.02,2.16-.02,3.05,0,.87,.48,1.52,.94,1.87,.47,.36,.94,.46,1.24,.49,.31,.03,.47,.03,.47,.04,0,0-.16,.03-.47,.02-.31-.01-.8-.09-1.31-.46-.5-.35-1.02-1.03-1.05-1.96,0-.89-.02-1.91-.03-3.06-.02-4.63-.05-11.27-.1-19.47-.02-8.23-.04-18.01-.06-28.87,0-5.44-.01-11.14-.02-17.05,0-2.96,0-5.97,0-9.02,0-1.53,0-3.07,0-4.61,0-.4-.02-.75,.03-1.2,.06-.43,.22-.85,.48-1.21,.5-.72,1.37-1.17,2.25-1.16,.81-.07,1.77,.25,2.33,.92,.29,.32,.5,.72,.61,1.14,.12,.44,.08,.86,.09,1.23,0,1.55,0,3.09,0,4.61,0,3.05,0,6.06,0,9.02,0,5.91-.01,11.61-.02,17.05-.02,10.86-.05,20.64-.06,28.87-.04,8.2-.07,14.84-.09,19.47-.01,1.14-.02,2.16-.03,3.05,.05,.91-.36,1.67-.82,2.06-.98,.82-1.75,.6-1.72,.62Z"/></g><g><rect class="s" x="544.3" y="204.29" width="5.19" height="87.75" rx="2.45" ry="2.45"/><path class="y" d="M547.04,292.04c-.03-.06,.73,.1,1.63-.71,1.07-.81,.64-2.77,.7-5.03-.02-4.63-.05-11.27-.1-19.47-.02-8.23-.04-18.01-.06-28.87,0-5.43-.01-11.14-.02-17.05,0-2.96,0-5.96,0-9.02,0-1.53,0-3.06,0-4.61,0-.4,.02-.76-.07-1.08-.08-.33-.25-.64-.48-.89-.47-.53-1.13-.77-1.88-.72-.69,0-1.37,.35-1.76,.91-.2,.28-.32,.61-.37,.94-.04,.32-.02,.74-.02,1.12,0,1.55,0,3.09,0,4.61,0,3.05,0,6.06,0,9.02,0,5.91-.01,11.62-.02,17.05-.02,10.86-.05,20.65-.06,28.87-.04,8.2-.07,14.84-.1,19.47,0,1.14-.02,2.16-.02,3.05,0,.87,.48,1.52,.94,1.87,.47,.36,.94,.46,1.24,.49,.31,.03,.47,.03,.47,.04,0,0-.16,.03-.47,.02-.31-.01-.8-.09-1.31-.46-.5-.35-1.02-1.03-1.05-1.96,0-.89-.02-1.91-.03-3.06-.02-4.63-.05-11.27-.09-19.47-.02-8.23-.04-18.01-.06-28.87,0-5.44-.01-11.14-.02-17.05,0-2.96,0-5.97,0-9.02,0-1.53,0-3.07,0-4.61,0-.4-.02-.75,.03-1.2,.06-.43,.22-.85,.48-1.21,.5-.72,1.37-1.17,2.25-1.16,.81-.07,1.77,.25,2.33,.92,.29,.32,.5,.72,.61,1.14,.12,.44,.08,.86,.09,1.23,0,1.55,0,3.09,0,4.61,0,3.05,0,6.06,0,9.02,0,5.91-.01,11.61-.02,17.05-.02,10.86-.05,20.64-.06,28.87-.04,8.2-.07,14.84-.1,19.47-.01,1.14-.02,2.16-.03,3.05,.05,.91-.36,1.67-.83,2.06-.98,.82-1.75,.6-1.72,.62Z"/></g><g><rect class="s" x="564.27" y="204.29" width="5.19" height="87.75" rx="2.45" ry="2.45"/><path class="y" d="M567,292.04c-.03-.06,.73,.1,1.63-.71,1.07-.81,.64-2.77,.7-5.03-.02-4.63-.05-11.27-.1-19.47-.02-8.23-.04-18.01-.06-28.87,0-5.43-.01-11.14-.02-17.05,0-2.96,0-5.96,0-9.02,0-1.53,0-3.06,0-4.61,0-.4,.02-.76-.07-1.08-.08-.33-.25-.64-.48-.89-.47-.53-1.13-.77-1.88-.72-.69,0-1.37,.35-1.76,.91-.2,.28-.32,.61-.37,.94-.04,.32-.02,.74-.02,1.12,0,1.55,0,3.09,0,4.61,0,3.05,0,6.06,0,9.02,0,5.91-.01,11.62-.02,17.05-.02,10.86-.05,20.65-.06,28.87-.04,8.2-.07,14.84-.09,19.47,0,1.14-.02,2.16-.02,3.05,0,.87,.48,1.52,.94,1.87,.47,.36,.94,.46,1.24,.49,.3,.03,.47,.03,.47,.04,0,0-.16,.03-.47,.02-.31-.01-.8-.09-1.31-.46-.5-.35-1.02-1.03-1.05-1.96,0-.89-.02-1.91-.03-3.06-.02-4.63-.06-11.27-.1-19.47-.02-8.23-.04-18.01-.06-28.87,0-5.44-.01-11.14-.02-17.05,0-2.96,0-5.97,0-9.02,0-1.53,0-3.07,0-4.61,0-.4-.02-.75,.03-1.2,.06-.43,.22-.85,.48-1.21,.5-.72,1.37-1.17,2.25-1.16,.81-.07,1.77,.25,2.33,.92,.29,.32,.5,.72,.61,1.14,.12,.44,.08,.86,.09,1.23,0,1.55,0,3.09,0,4.61,0,3.05,0,6.06,0,9.02,0,5.91-.01,11.61-.02,17.05-.02,10.86-.05,20.64-.06,28.87-.04,8.2-.07,14.84-.1,19.47-.01,1.14-.02,2.16-.03,3.05,.05,.91-.36,1.67-.83,2.06-.98,.82-1.75,.6-1.72,.62Z"/></g><path class="u" d="M526.6,245.42h-.95c-2.79,0-5.05-2.26-5.05-5.05h0c0-2.79,2.26-5.05,5.05-5.05h.95c2.79,0,5.05,2.26,5.05,5.05h0c0,2.79-2.26,5.05-5.05,5.05Z"/><path class="u" d="M547.87,264.45h-.95c-2.79,0-5.05-2.26-5.05-5.05h0c0-2.79,2.26-5.05,5.05-5.05h.95c2.79,0,5.05,2.26,5.05,5.05h0c0,2.79-2.26,5.05-5.05,5.05Z"/><path class="u" d="M567.11,228.59h-.95c-2.79,0-5.05-2.26-5.05-5.05h0c0-2.79,2.26-5.05,5.05-5.05h.95c2.79,0,5.05,2.26,5.05,5.05h0c0,2.79-2.26,5.05-5.05,5.05Z"/></g></g><g id="i"><g><g><rect class="k" x="489.75" y="43.36" width="123.59" height="123.59" rx="8.33" ry="8.33"/><path class="y" d="M605.01,166.96s.42,0,1.23-.13c.8-.12,2.01-.43,3.34-1.31,1.3-.88,2.74-2.4,3.36-4.66,.34-1.12,.32-2.38,.3-3.72,0-1.35,0-2.78-.01-4.3-.02-12.16-.05-29.73-.08-51.44,0-10.86-.02-22.75-.03-35.52,0-3.19,0-6.44,0-9.74-.01-1.64,.02-3.33-.03-4.97-.09-1.63-.72-3.23-1.74-4.52-1.03-1.29-2.47-2.27-4.09-2.73-1.61-.49-3.37-.27-5.12-.32-3.5,0-7.04,0-10.63,0-28.72,0-60.28,.01-93.42,.02-2.01,0-4,.77-5.46,2.13-1.48,1.35-2.41,3.25-2.58,5.22-.07,4.04-.02,8.14-.04,12.17,0,8.07,0,16.02,0,23.84,0,15.63-.01,30.7-.02,45.06,0,7.18,0,14.18-.01,20.98,0,1.7,0,3.39,0,5.06-.06,1.66,.3,3.28,1.13,4.66,.4,.7,.92,1.32,1.51,1.85,.58,.54,1.25,.99,1.96,1.33,1.43,.74,3.01,.85,4.61,.81,12.77,.01,24.66,.02,35.52,.03,21.71,.04,39.28,.06,51.44,.08,6.07,.02,10.78,.04,13.98,.05,1.59,.01,2.81,.02,3.64,.03,.82,0,1.24,.03,1.24,.03,0,0-.42,.02-1.24,.03-.83,0-2.05,.01-3.64,.03-3.21,.01-7.92,.03-13.98,.05-12.15,.02-29.73,.05-51.44,.08-10.86,0-22.75,.02-35.52,.03-1.57,.05-3.31-.07-4.8-.84-.75-.35-1.46-.82-2.07-1.4-.62-.56-1.17-1.22-1.59-1.95-.89-1.44-1.26-3.2-1.2-4.89,0-1.68,0-3.36,0-5.06,0-6.8,0-13.8-.01-20.98,0-14.36,0-29.43-.02-45.06,0-7.81,0-15.77,0-23.84,.02-4.04-.04-8.08,.04-12.21,.18-2.1,1.18-4.13,2.75-5.56,1.56-1.44,3.68-2.27,5.81-2.27,33.14,0,64.7,.01,93.42,.02,3.59,0,7.13,0,10.63,0,.87,0,1.75,0,2.61,0,.88,.01,1.78,.07,2.63,.34,1.71,.49,3.23,1.52,4.32,2.89,1.08,1.37,1.74,3.06,1.84,4.78,.05,1.7,.01,3.35,.02,5,0,3.3,0,6.55,0,9.74-.01,12.77-.02,24.66-.03,35.52-.03,21.71-.06,39.28-.08,51.44,0,1.52,0,2.95-.01,4.3,0,1.34,.02,2.63-.33,3.77-.65,2.29-2.13,3.82-3.45,4.7-1.36,.87-2.59,1.16-3.39,1.27-.41,.07-.72,.06-.93,.07-.21,0-.31,0-.31,0Z"/></g><g><g><g><path class="s" d="M557.33,103.99h-12.95c-6.29,0-11.39-5.1-11.39-11.39v-27.91h35.73v27.91c0,6.29-5.1,11.39-11.39,11.39Z"/><path class="y" d="M557.33,103.99c0-.08,1.21,.02,3.31-.61,1.03-.35,2.27-.91,3.5-1.87,1.23-.95,2.46-2.32,3.29-4.13,.91-1.8,1.14-3.99,1.04-6.42-.01-2.43-.02-5.03-.04-7.81-.02-5.56-.03-11.77-.05-18.46l.35,.35c-7.51,0-15.74,.02-24.33,.02-3.9,0-7.73,0-11.39,0l.37-.37c-.02,8.33-.03,16.17-.04,23.25,0,1.76-.04,3.5,0,5.14,.06,1.62,.48,3.17,1.16,4.53,1.36,2.73,3.73,4.62,6.14,5.48,2.42,.94,4.84,.64,6.91,.72,2.06,.02,3.83,.04,5.3,.06,1.4,.03,2.51,.05,3.33,.06,.35,.01,.63,.02,.86,.03,.19,.01,.29,.02,.29,.03s-.1,.02-.29,.03c-.23,0-.52,.02-.86,.03-.82,.02-1.93,.04-3.33,.06-1.47,.02-3.25,.04-5.3,.06-1.04,0-2.15,.01-3.33,.02-1.2,0-2.48-.22-3.74-.66-2.53-.87-5.04-2.81-6.49-5.67-.73-1.42-1.18-3.05-1.26-4.76-.06-1.69-.03-3.39-.04-5.17-.01-7.08-.03-14.92-.04-23.25v-.37h.37c3.66,0,7.49,0,11.39,0,8.59,0,16.82,.02,24.33,.02h.35v.35c-.02,6.69-.04,12.9-.06,18.46-.01,2.77-.03,5.38-.04,7.81,.08,2.39-.19,4.78-1.17,6.61-.89,1.87-2.18,3.26-3.47,4.22-1.29,.97-2.57,1.5-3.63,1.83-2.16,.57-3.37,.39-3.37,.39Z"/></g><path class="u" d="M533.18,64.95c5.2,3.79,10.56,6.28,16.99,6.15,6.43-.13,13.52-2.2,18.56-6.19l-35.55,.04Z"/><path class="y" d="M568.72,70.41s.11,.26,.26,.77c.16,.59,.36,1.33,.61,2.24,.52,2.05,1.23,4.85,2.1,8.26,.43,1.76,.91,3.67,1.41,5.71,.24,1.04,.54,2.05,.75,3.22,.19,1.17,.01,2.43-.48,3.58-.48,1.16-1.34,2.18-2.42,2.93-1.09,.73-2.44,1.15-3.79,1.14-2.59,.01-5.27,.03-8.02,.04-1.37,0-2.73,.01-4.07,.02-1.32,0-2.69,.06-4.01-.24-2.63-.53-4.92-2-6.47-3.9-.78-.94-1.39-1.99-1.81-3.07-.41-1.08-.75-2.1-1.1-3.1-.69-1.99-1.34-3.85-1.93-5.56-1.14-3.33-2.07-6.06-2.75-8.07-.29-.89-.52-1.62-.71-2.21-.15-.51-.22-.78-.2-.79,.02,0,.14,.24,.34,.74,.22,.57,.5,1.28,.84,2.16,.74,1.98,1.74,4.69,2.97,7.99,.62,1.7,1.3,3.55,2.02,5.53,.75,1.99,1.32,4.19,2.86,5.94,1.47,1.77,3.63,3.14,6.09,3.62,1.22,.27,2.51,.22,3.86,.21,1.34,0,2.69-.01,4.07-.02,2.74,0,5.42-.02,8.01-.03,1.24,0,2.42-.36,3.4-1,.97-.67,1.75-1.57,2.19-2.61,.45-1.03,.62-2.16,.46-3.22-.17-1.05-.48-2.15-.7-3.17-.47-2.05-.92-3.97-1.33-5.73-.77-3.43-1.4-6.25-1.87-8.32l-.47-2.27c-.1-.52-.14-.8-.12-.8Z"/><path class="y" d="M538.36,71.96c0,1.09-.88,1.97-1.97,1.97s-1.97-.88-1.97-1.97,.88-1.97,1.97-1.97,1.97,.88,1.97,1.97Z"/><path class="u" d="M568.35,65.04c.19,.84-.95,1.63-.94,2.5,.03,1.62-.97,3.12-2.49,3.67-.12,.04-.23,.11-.33,.19-.72,.57-.9,1.56-1.03,2.46-.22,1.49-.44,2.99-.66,4.48-.14,.93-.28,1.88-.74,2.7-.46,.82-1.33,1.47-2.27,1.41-1.35-.09-2.19-1.55-2.4-2.89-.26-1.68,.07-3.48-1.08-4.93-.53-.68-1.43-1.04-2.24-.75-2.05,.75-.8,4.01-2.74,4.76-.54,.21-1.16,.09-1.64-.24-1.01-.7-1.32-1.87-1.6-2.99-.44-1.76-.87-3.51-1.31-5.27l21.45-5.11"/></g><circle class="u" cx="517.32" cy="128.95" r="11.05"/><circle class="u" cx="551.54" cy="128.95" r="11.05"/><circle class="u" cx="585.77" cy="128.95" r="11.05"/><g class="r"><circle class="k" cx="517.32" cy="128.95" r="11.05"/></g><g class="p"><circle cx="585.77" cy="128.95" r="11.05"/></g><path class="y" d="M528.37,128.95c-.07,0-.01-.98-.45-2.67-.43-1.65-1.54-4.08-4.03-5.95-1.23-.92-2.78-1.69-4.57-2-1.77-.3-3.77-.24-5.67,.49-.96,.33-1.88,.84-2.73,1.47-.86,.62-1.63,1.4-2.28,2.29-1.33,1.77-2.07,4.03-2.09,6.37,.02,2.34,.77,4.61,2.09,6.37,.64,.9,1.42,1.67,2.28,2.29,.85,.64,1.77,1.14,2.73,1.47,1.9,.73,3.9,.79,5.67,.49,1.79-.31,3.34-1.09,4.57-2,2.49-1.87,3.6-4.3,4.03-5.95,.44-1.69,.38-2.68,.45-2.67,0,0,.14,.99-.24,2.72-.38,1.7-1.46,4.23-4,6.21-1.26,.97-2.86,1.8-4.72,2.14-1.84,.33-3.93,.29-5.93-.46-1-.34-1.97-.87-2.87-1.53-.9-.65-1.72-1.46-2.4-2.4-1.4-1.85-2.19-4.23-2.21-6.69,.02-2.45,.81-4.84,2.21-6.69,.68-.94,1.5-1.75,2.4-2.4,.89-.66,1.86-1.18,2.87-1.53,2-.75,4.08-.79,5.93-.46,1.86,.34,3.46,1.17,4.72,2.14,2.55,1.98,3.63,4.51,4,6.21,.38,1.74,.24,2.72,.24,2.72Z"/><path class="y" d="M562.59,128.95c-.07,0-.01-.98-.45-2.67-.43-1.65-1.54-4.08-4.03-5.95-1.23-.92-2.78-1.69-4.57-2-1.77-.3-3.77-.24-5.67,.49-.96,.33-1.88,.84-2.73,1.47-.86,.62-1.63,1.4-2.28,2.29-1.32,1.77-2.07,4.03-2.09,6.37,.02,2.34,.77,4.61,2.09,6.37,.64,.9,1.42,1.67,2.28,2.29,.85,.64,1.77,1.14,2.73,1.47,1.9,.73,3.9,.79,5.67,.49,1.79-.31,3.34-1.09,4.57-2,2.49-1.87,3.6-4.3,4.03-5.95,.44-1.69,.38-2.68,.45-2.67,0,0,.14,.99-.24,2.72-.38,1.7-1.46,4.23-4,6.21-1.26,.97-2.86,1.8-4.72,2.14-1.84,.33-3.93,.29-5.93-.46-1-.34-1.97-.87-2.87-1.53-.9-.65-1.72-1.46-2.4-2.4-1.4-1.85-2.19-4.23-2.21-6.69,.02-2.45,.81-4.84,2.21-6.69,.68-.94,1.5-1.75,2.4-2.4,.89-.66,1.86-1.18,2.87-1.53,2-.75,4.08-.79,5.93-.46,1.86,.34,3.46,1.17,4.72,2.14,2.55,1.98,3.63,4.51,4,6.21,.38,1.74,.24,2.72,.24,2.72Z"/><path class="y" d="M596.79,128.95c-.07,0-.01-.98-.45-2.67-.43-1.65-1.54-4.08-4.03-5.95-1.23-.92-2.78-1.69-4.57-2-1.77-.3-3.77-.24-5.67,.49-.96,.33-1.88,.84-2.73,1.47-.86,.62-1.63,1.4-2.28,2.29-1.33,1.77-2.07,4.03-2.09,6.37,.02,2.34,.77,4.61,2.09,6.37,.64,.9,1.42,1.67,2.28,2.29,.85,.64,1.77,1.14,2.73,1.47,1.9,.73,3.9,.79,5.67,.49,1.79-.31,3.34-1.09,4.57-2,2.49-1.87,3.6-4.3,4.03-5.95,.44-1.69,.38-2.68,.45-2.67,0,0,.14,.99-.24,2.72-.38,1.7-1.46,4.23-4,6.21-1.26,.97-2.86,1.8-4.72,2.14-1.84,.33-3.93,.29-5.93-.46-1-.34-1.97-.87-2.87-1.53-.9-.65-1.72-1.46-2.4-2.4-1.4-1.85-2.19-4.23-2.21-6.69,.02-2.45,.81-4.84,2.21-6.69,.68-.94,1.5-1.75,2.4-2.4,.89-.66,1.86-1.18,2.87-1.53,2-.75,4.08-.79,5.93-.46,1.86,.34,3.46,1.17,4.72,2.14,2.55,1.98,3.63,4.51,4,6.21,.38,1.74,.24,2.72,.24,2.72Z"/></g></g></g><g id="j"><g><g><path class="y" d="M96.75,157.09c.89,1.34,2.31,2.6,3.92,2.53,.48-.02,1.73-.39,1.73-.39,.54,.37,.29,2.28-.13,2.78-.42,.5-1.28,1.17-1.28,1.17,1.81,1.12,3.55,.73,5.6,.13-.56,3.38-3.07,6.37-6.31,7.5-1.03,.36-2.27,.52-3.15-.13-.78-.57-1.05-1.6-1.23-2.54-.69-3.48-.94-7.04-.75-10.58l1.6-.46Z"/><g><g><path class="q" d="M54.96,172.11l-2.8,45.31c-.48,7.71,.4,19.12,12.62,19.32h0c10.61-.63,13.91-10.49,14.34-17.68,.21-3.41,.39-6.26,.43-6.6,0,0,11.6-.37,13.14-11.74,.74-5.49,1.35-16.93,1.78-27.28,.46-11.12-7.71-20.73-18.75-22.08l-1.1-.13c-11.93-.76-19.24,8.94-19.67,20.89Z"/><path class="t" d="M79.57,212.44s-7.23-.46-14.28-6.2c0,0,2.6,8.76,14.08,9.13l.2-2.93Z"/><path class="y" d="M74.4,176.44c-.24,.22-1.5-.91-3.41-1.05-1.91-.17-3.38,.72-3.57,.47-.09-.11,.16-.52,.81-.93,.64-.41,1.69-.77,2.88-.67,1.19,.1,2.15,.63,2.69,1.13,.55,.51,.72,.95,.6,1.05Z"/><path class="y" d="M74.48,182.04c-.07,.82-.82,1.43-1.67,1.37-.85-.06-1.49-.77-1.41-1.58,.07-.82,.82-1.43,1.67-1.37,.85,.06,1.49,.77,1.42,1.58Z"/><path class="y" d="M78.54,189.98c0-.1,1.11-.15,2.9-.16,.45,0,.89-.03,1-.32,.14-.31,.02-.81-.14-1.36-.29-1.13-.59-2.32-.9-3.56-1.24-5.07-2.08-9.21-1.88-9.26,.2-.05,1.38,4.02,2.62,9.09,.3,1.25,.58,2.44,.85,3.58,.11,.53,.33,1.14,.02,1.78-.16,.32-.52,.52-.81,.56-.3,.05-.55,.03-.77,.01-1.78-.12-2.89-.25-2.88-.35Z"/><path class="y" d="M75.16,170.44c-.25,.39-1.71-.15-3.54-.33-1.83-.22-3.38,0-3.53-.44-.06-.21,.28-.55,.95-.83,.67-.28,1.67-.47,2.77-.35,1.1,.12,2.03,.52,2.62,.93,.59,.42,.85,.83,.74,1.02Z"/><path class="y" d="M92.31,173.24c-.22,.34-1.69-.12-3.5-.27-1.8-.18-3.32,.01-3.49-.36-.08-.18,.24-.47,.88-.72,.64-.24,1.61-.41,2.7-.31,1.08,.1,2.03,.43,2.63,.79,.61,.36,.88,.7,.78,.86Z"/><path class="q" d="M54.52,179.94c-.18-.11-7.54-3.27-8.24,4.54-.71,7.81,7.28,6.91,7.32,6.69,.03-.22,.93-11.23,.93-11.23Z"/><path class="t" d="M51.48,187.99s-.14,.08-.38,.17c-.23,.08-.63,.12-1.02-.07-.8-.38-1.37-1.75-1.29-3.16,.04-.71,.25-1.38,.56-1.91,.29-.55,.7-.92,1.12-.95,.42-.06,.69,.22,.77,.45,.09,.23,.02,.38,.06,.4,.02,.02,.18-.12,.15-.44-.02-.16-.09-.35-.26-.52-.17-.17-.44-.27-.73-.27-.61-.01-1.2,.49-1.53,1.08-.37,.59-.62,1.33-.67,2.14-.09,1.58,.58,3.12,1.68,3.55,.54,.19,1.01,.07,1.26-.09,.26-.17,.32-.34,.29-.36Z"/><path class="y" d="M44.74,166.75c1.77-2.68,2.31-5.96,3.35-8.99,1.04-3.04,2.92-6.14,5.99-7.07l.07,.03c2.77-.96,6.11-.81,8.25,1.18,.75-4.04,4.48-7.09,8.5-7.93,4.02-.85,10.36,.09,14.1,1.81,2.89,1.33,5.61,3.9,8.9,7.64,1.38,1.57,2.65,3.26,3.76,5.04l2.93,10.83-3.23,5.45c-.2,.37-.4,.74-.64,1.11v-.03l-2.89,11.37c-.01-3.22,.41-14.1,.4-17.33-4.95-.46-9.34-2.68-12.48-6.53-1.66-2.03-2.92-4.53-5.21-5.81-2.95-1.65-6.62-.73-9.86,.22l.14-.12c-1.7,.69-3.26,1.7-4.58,2.97,.41,6.36-.57,12.81-2.86,18.76-.34,.9-1.25,2.73-2.17,3.04-1.79,.59-2.18-1.22-3.19-2.22-.74-.74-1.9-.89-3.16-.94-.65-1.99-1.25-5.32-1.75-8.23-1.08,.27-2.21,.3-3.3,.06,.38-.79,.75-1.58,1.13-2.37-.45,.26-.92,.52-1.44,.57-.52,.05-1.1-.17-1.31-.65-.27-.62,.17-1.29,.54-1.85Z"/><path class="n" d="M65.92,153.39s-.49,.28-1.2,.99c-.7,.71-1.5,1.96-1.94,3.7-.22,.86-.38,1.84-.43,2.89-.06,1.05-.03,2.18,0,3.37,.02,1.19,.04,2.45-.1,3.75-.07,.65-.18,1.31-.35,1.96-.18,.64-.38,1.34-.9,1.88-.41,.44-1.08,.61-1.64,.46-.57-.13-1.06-.46-1.41-.89-.69-.89-.82-1.99-.96-2.96l.24,.04c-.43,.84-.88,1.67-1.51,2.32-.62,.65-1.45,1.07-2.28,1.1-.41,.02-.82-.07-1.17-.26-.35-.19-.6-.5-.76-.83-.15-.33-.23-.69-.19-1.02,.04-.34,.18-.65,.41-.87l.12,.11c-.93,.96-1.89,1.45-2.54,1.72-.33,.13-.6,.21-.77,.26-.18,.04-.27,.06-.28,.05,0,0,.09-.04,.26-.1,.17-.06,.43-.15,.75-.3,.64-.29,1.57-.8,2.46-1.75l.12,.11c-.4,.39-.46,1.1-.16,1.69,.15,.29,.38,.57,.69,.73,.31,.17,.68,.25,1.06,.23,.76-.04,1.54-.42,2.12-1.05,.59-.62,1.02-1.43,1.45-2.27l.18-.36,.06,.4c.14,.97,.28,2.02,.91,2.83,.31,.39,.77,.68,1.26,.8,.5,.12,1.03-.02,1.39-.39,.45-.46,.66-1.12,.83-1.76,.17-.64,.28-1.28,.35-1.92,.14-1.28,.12-2.53,.11-3.72-.02-1.19-.04-2.32,.03-3.39,.06-1.06,.24-2.05,.47-2.92,.47-1.76,1.32-3.03,2.05-3.73,.74-.7,1.27-.92,1.27-.92Z"/><path class="n" d="M100.7,166.24s-.03,.03-.1,.07c-.08,.05-.18,.12-.3,.19-.13,.09-.29,.19-.5,.29-.2,.1-.43,.23-.71,.33-1.09,.45-2.81,.87-4.93,.64-2.1-.22-4.59-1.09-6.77-2.88-2.2-1.75-4.08-4.27-5.58-7.11-.76-1.42-1.37-2.87-2.05-4.22-.68-1.35-1.44-2.6-2.38-3.6-.93-1.01-2.04-1.78-3.19-2.16-.58-.2-1.16-.27-1.73-.29-.56,0-1.1,.09-1.6,.23-1,.28-1.82,.79-2.45,1.32-.63,.53-1.07,1.11-1.37,1.61-.57,1.02-.63,1.7-.67,1.68,0,0,0-.04,.02-.12,.02-.09,.04-.21,.07-.35,.07-.3,.22-.74,.5-1.27,.29-.51,.73-1.11,1.36-1.67,.64-.55,1.47-1.08,2.5-1.38,.51-.15,1.07-.24,1.66-.25,.58,0,1.2,.08,1.8,.28,1.2,.39,2.34,1.17,3.3,2.2,.97,1.02,1.75,2.3,2.43,3.65,.69,1.36,1.3,2.8,2.05,4.21,1.49,2.83,3.34,5.31,5.5,7.05,2.13,1.77,4.57,2.64,6.63,2.89,2.08,.25,3.79-.13,4.87-.55,1.09-.42,1.62-.82,1.64-.79Z"/><path class="y" d="M91.8,178.02c-.24,.22-1.5-.91-3.41-1.05-1.91-.17-3.38,.72-3.57,.47-.09-.11,.16-.52,.81-.93,.64-.41,1.69-.77,2.88-.67,1.19,.1,2.15,.63,2.69,1.13,.55,.51,.72,.95,.6,1.05Z"/><path class="y" d="M90.02,183.57c-.07,.82-.82,1.43-1.67,1.37-.85-.06-1.49-.77-1.41-1.58,.07-.82,.82-1.43,1.67-1.37,.85,.06,1.49,.77,1.42,1.58Z"/></g><path class="y" d="M78.42,196.39c0,.07-.45,.2-1.2,.1-.74-.09-1.77-.47-2.61-1.29-.83-.83-1.21-1.87-1.3-2.6-.1-.75,.03-1.2,.1-1.2,.09,0,.1,.45,.29,1.12,.18,.66,.57,1.55,1.31,2.29,.73,.73,1.63,1.12,2.29,1.3,.67,.18,1.12,.2,1.12,.28Z"/></g></g><g><g><path class="u" d="M141.37,221.28l-30.08,26.6-29.03-23.43-2.19,30.78,18.01,14.42c7.45,2.9,15.56,4.34,21.48-1.04l33.32-33.77-11.5-13.56Z"/><path class="u" d="M23.51,236.07s.7-11.57,11.06-17.67c1.51-.89,14.01-6.35,14.01-6.35l3.72-5.32,22.81,14.55,2.88,2.63,2.34-5.64,2.78,4.22-1.17-.19,.33,2.15,1.42,9.35,1,26.79c-.01-.28,.43,9.41,.15,13.89-1.03,16.89-3.91,59.92-4.93,62.95-1.26,3.76-4.82,3.87-4.82,3.87l-59.64-16.79c-3.37-.29-6.44-9.44-1.4-12.39l9.47-76.05Z"/></g><g><g class="w"><path d="M28.28,244.21s24.84,46.31,33.34,50.88c8.5,4.56,22.22,1.66,22.22,1.66v-3.75l-55.56-48.78Z"/></g><g><path class="u" d="M45.93,224.26c3.44,1.55,35.31,43.43,35.31,43.43l45.11-.37,2.93,21.11s-47.3,6.84-58.33,4.43c-11.03-2.41-43.29-49.29-45.26-52.46-3.13-5.03-.46-13,4.38-17.22"/><path class="y" d="M30.09,223.17s-.16,.18-.49,.5c-.34,.31-.8,.82-1.36,1.52-1.09,1.4-2.61,3.67-3.39,6.99-.36,1.64-.57,3.58-.07,5.58,.4,2.05,1.92,3.8,3.25,5.82,2.77,3.99,5.98,8.48,9.61,13.39,3.64,4.9,7.69,10.23,12.24,15.78,2.28,2.77,4.68,5.61,7.25,8.43,2.58,2.81,5.3,5.67,8.41,8.22,1.56,1.24,3.22,2.5,5.13,3.1l.36,.12,.38,.05,.76,.11c.51,.06,1.01,.16,1.53,.19,1.04,.05,2.08,.09,3.13,.14,4.22,.05,8.53-.21,12.91-.5,8.76-.65,17.81-1.64,27.05-2.79,4.21-.53,8.37-1.08,12.47-1.66l-.22,.29c-1-7.23-1.98-14.28-2.93-21.11l.25,.22c-16.55,.12-31.8,.23-45.11,.33h-.11l-.06-.08c-10.31-13.54-18.94-24.58-25.07-32.16-3.07-3.79-5.52-6.71-7.25-8.64-.86-.97-1.55-1.68-2.04-2.13-.48-.46-.8-.61-.78-.63,0,0,.33,.13,.83,.58,.51,.44,1.21,1.14,2.09,2.09,1.77,1.9,4.25,4.8,7.34,8.57,6.19,7.54,14.86,18.54,25.22,32.06l-.17-.08c13.31-.12,28.57-.26,45.11-.41h.22l.03,.22c.95,6.83,1.93,13.88,2.94,21.11l.04,.26-.26,.04c-4.1,.58-8.27,1.13-12.48,1.66-9.25,1.15-18.31,2.13-27.08,2.78-4.39,.29-8.71,.54-12.95,.48-1.06-.05-2.12-.1-3.17-.14-.52-.03-1.05-.14-1.57-.2l-.78-.11-.39-.06-.38-.12c-2.05-.66-3.71-1.95-5.3-3.2-3.14-2.58-5.86-5.45-8.45-8.28-2.57-2.84-4.97-5.68-7.24-8.47-4.54-5.57-8.58-10.92-12.2-15.84-3.62-4.92-6.81-9.44-9.56-13.44-.68-1-1.34-1.97-1.96-2.92-.61-.96-1.09-1.98-1.29-3.01-.5-2.06-.27-4.02,.12-5.68,.82-3.36,2.38-5.62,3.51-7.01,.58-.69,1.06-1.19,1.41-1.49,.34-.31,.52-.46,.52-.46Z"/></g><g><path class="u" d="M48.58,212.05c.22,.51,21.07,14.52,21.07,14.52l5.03-4.83,2.68,2.15"/><path class="y" d="M77.35,223.9s-.28-.15-.75-.5c-.54-.41-1.21-.92-2.02-1.53h.2c-1.31,1.28-3.01,2.95-4.97,4.88l-.14,.13-.16-.11c-1.91-1.28-4.05-2.72-6.31-4.23-4.12-2.79-7.82-5.35-10.47-7.24-2.65-1.89-4.25-3.14-4.16-3.25,2.19,1.47,7.35,4.96,14.92,10.06,2.25,1.53,4.38,2.97,6.28,4.27l-.29,.03c2-1.88,3.74-3.51,5.08-4.76l.1-.09,.1,.09,1.93,1.64c.44,.39,.67,.61,.65,.63Z"/></g><path class="y" d="M82.76,227.72s.12,.55,.25,1.55c.13,1,.3,2.46,.48,4.26,.37,3.6,.8,8.58,1.11,14.1,.31,5.52,.44,10.52,.45,14.14,0,1.81,0,3.27-.04,4.29-.03,1.01-.06,1.57-.1,1.57-.04,0-.07-.56-.11-1.57-.03-1.1-.08-2.54-.13-4.28-.11-3.61-.29-8.61-.6-14.12-.31-5.51-.68-10.49-.96-14.1-.13-1.73-.23-3.17-.32-4.27-.07-1.01-.09-1.57-.05-1.57Z"/><g><path class="u" d="M17.89,312.13c14.02-1.03,27.94-3.48,41.46-7.32"/><path class="y" d="M59.35,304.8s-.55,.23-1.57,.54c-1.02,.32-2.51,.74-4.35,1.23-3.69,.98-8.83,2.18-14.58,3.2-5.74,1.01-10.99,1.65-14.79,1.99-1.9,.17-3.44,.28-4.51,.33-1.07,.05-1.66,.07-1.66,.03,0-.04,.58-.12,1.64-.23,1.15-.13,2.66-.29,4.49-.5,3.79-.43,9.01-1.12,14.74-2.13,5.73-1.01,10.87-2.15,14.58-3.04,1.79-.44,3.26-.8,4.39-1.07,1.04-.25,1.61-.38,1.62-.34Z"/></g></g><g><g><path class="n" d="M76.62,400.26l-28.48-9.74s-19.46,25.67-24.9,24.39l16.9-55.89,44.99,13.36-8.52,27.89Z"/><path class="s" d="M55.79,373.97c.03-1.17-.96-2.29-2.13-2.37-1.17-.08-2.31,.92-2.36,2.09-.05,1.17,1.1,2.55,2.27,2.49,1.17-.05,2.45-1.3,2.22-2.44"/><path class="s" d="M38.98,358.62l4.36,1.29-16.6,53.65s-1.84,2.16-3.5,1.35l15.74-56.29Z"/><path class="y" d="M48.15,391.51c-.27-.09,.02-1.49-.45-3.1-.43-1.62-1.4-2.67-1.22-2.89,.13-.24,1.64,.66,2.17,2.62,.55,1.95-.27,3.5-.5,3.37Z"/><path class="y" d="M43.95,396.64c-.28-.02-.39-1.34-1.26-2.62-.84-1.3-2.01-1.91-1.92-2.18,.03-.27,1.69,.02,2.75,1.63,1.07,1.6,.7,3.24,.44,3.16Z"/><path class="y" d="M35.93,397.85c.02-.27,1.5-.23,2.78,.92,1.29,1.14,1.49,2.61,1.23,2.66-.27,.09-.82-.98-1.89-1.92-1.05-.95-2.17-1.38-2.12-1.66Z"/><path class="y" d="M54.89,393.01c-.21-.19,.54-1.33,.9-2.9,.39-1.57,.24-2.92,.52-3,.25-.1,.9,1.38,.45,3.23-.44,1.85-1.69,2.87-1.87,2.67Z"/></g><path class="y" d="M80.08,324.32c1.1-.3,49.32,51.43,50.42,59.98,1.1,8.55-.66,16-6.36,20.83-5.7,4.82-70.59-10.96-70.59-10.96l6.14-27.18-23.46-7.89,20.96-38.36,22.88,3.59Z"/><g class="w"><path d="M91.49,335.79l1.54,1.66s-27.64,29-36.12,28.6l-13.57-4.6,45.92-28.18,2.23,2.52Z"/></g><path class="n" d="M59.53,367.7c-.04,.14,10.03,3.22,22.49,6.88,12.46,3.66,22.6,6.52,22.64,6.38,.04-.14-10.03-3.22-22.49-6.88-12.46-3.66-22.59-6.52-22.63-6.38Z"/><g><path class="n" d="M113.82,377.14l-8.48,26.91s24.5,17.66,23.42,22.78l-52.76-14.57,11.5-42.47,26.33,7.35Z"/><path class="s" d="M89.65,397.26c-1.1,0-2.12,.95-2.17,2.05-.05,1.1,.91,2.15,2.01,2.17,1.1,.02,2.36-1.08,2.29-2.18-.08-1.1-1.27-2.26-2.34-2.02"/><path class="s" d="M75.64,413.36l1.11-4.12,50.65,14.34s2.07,1.67,1.34,3.25l-53.11-13.47Z"/><path class="y" d="M106.26,404.02c-.08,.26-1.4,.02-2.9,.49-1.51,.44-2.47,1.37-2.68,1.21-.22-.12,.59-1.55,2.41-2.1,1.82-.56,3.29,.17,3.17,.4Z"/><path class="y" d="M111.16,407.83c0,.27-1.25,.4-2.42,1.24-1.2,.81-1.75,1.93-2,1.85-.25-.03-.02-1.58,1.47-2.61,1.47-1.04,3.02-.73,2.96-.48Z"/><path class="y" d="M112.48,415.32c-.25,0-.25-1.4,.8-2.62,1.04-1.24,2.41-1.46,2.46-1.21,.09,.25-.9,.79-1.75,1.81-.87,1-1.24,2.07-1.51,2.02Z"/><path class="y" d="M107.52,397.67c-.17,.21-1.26-.48-2.74-.78-1.48-.33-2.75-.16-2.82-.42-.1-.23,1.27-.88,3.01-.49,1.74,.37,2.73,1.52,2.54,1.69Z"/></g><g class="w"><polygon points="77.54 399.58 81.13 385.48 78.46 384.24 94.77 339.83 97.88 342.54 85.06 383.22 80.48 400.2 77.54 399.58"/></g><g><path class="y" d="M15.45,324.51s96.42-33.59,98.18-34.25c.48-.18,1.37-.39,2.42-.61,6.4-1.32,13.13,.01,18.35,3.93,4.38,3.29,8.03,8.56,6.85,16.84-2.63,18.41-26.16,81.27-26.16,81.27l-32.56-9.79c-.19-.06-.37-.59-.27-.43,.27,.43,16.52-51.94,16.11-51.32-.44,.66-32.86,26.82-46.34,31.63-13.84,4.95-27.54-.97-34.13-10.19-3.16-4.42-5.83-16.85-2.45-27.1Z"/><path class="n" d="M15.45,324.51s-.12,.34-.32,1.02c-.23,.68-.47,1.72-.75,3.08-.49,2.73-.9,6.89-.17,12.16,.39,2.62,.98,5.55,2.28,8.52,.33,.74,.71,1.48,1.18,2.19,.49,.69,1.03,1.37,1.58,2.05,1.18,1.31,2.45,2.63,3.97,3.77,2.96,2.37,6.63,4.26,10.78,5.4,2.08,.54,4.27,.95,6.54,1.01,2.27,.14,4.61-.07,6.96-.5,.58-.13,1.17-.25,1.76-.38,.59-.14,1.16-.35,1.75-.52,1.19-.31,2.3-.86,3.47-1.33,1.14-.51,2.25-1.12,3.39-1.68,1.11-.63,2.23-1.26,3.36-1.9,4.47-2.66,8.97-5.68,13.56-8.9,4.58-3.23,9.25-6.68,13.99-10.33,2.37-1.82,4.76-3.7,7.15-5.63,.59-.49,1.19-.98,1.79-1.48,.15-.13,.29-.24,.45-.39l.24-.22,.12-.11c-.18-.04,.49,.01-.39-.11-.02-.18,0-.04-.02-.05-.09,.35-.2,.74-.31,1.11-.45,1.49-.9,2.99-1.35,4.51-3.69,12.08-7.64,24.76-11.84,37.89-.53,1.64-1.07,3.28-1.61,4.94-.28,.82-.55,1.65-.85,2.46-.02,.07-.11,.25-.08,.21,.85,.35,.27-.52-.11,.23,.01,.07,.03,.09,.04,.13,.03,.06,.05,.12,.09,.18,.06,.1,.15,.28,.39,.35l.31,.09,1.26,.38c3.36,1.01,6.75,2.03,10.16,3.06,6.83,2.05,13.77,4.14,20.79,6.25l.25,.07,.09-.24c1.07-2.92,2.23-6.05,3.39-9.21,5.2-14.32,10.14-28.35,14.56-42.03,2.2-6.84,4.31-13.58,6.06-20.27,.46-1.67,.82-3.35,1.23-5.02,.39-1.67,.66-3.36,.95-5.03,.46-3.38,.12-6.88-1.27-9.95-1.37-3.08-3.74-5.56-6.4-7.4-2.68-1.85-5.73-3.06-8.84-3.61-3.11-.55-6.28-.47-9.27,.19-.75,.19-1.49,.38-2.23,.57-.71,.25-1.42,.5-2.12,.74-1.41,.49-2.81,.98-4.19,1.47-11.09,3.88-21.41,7.5-30.84,10.8-18.83,6.61-34.07,11.96-44.62,15.66-5.25,1.85-9.33,3.29-12.1,4.27-1.37,.49-2.42,.86-3.14,1.12-.7,.25-1.06,.4-1.06,.4,0,0,.38-.11,1.1-.36,.73-.25,1.79-.61,3.18-1.08,2.79-.96,6.89-2.37,12.17-4.19,10.56-3.66,25.82-8.95,44.67-15.48,9.42-3.27,19.74-6.86,30.82-10.71,1.38-.48,2.78-.97,4.19-1.46,.7-.25,1.41-.49,2.12-.74,.72-.18,1.44-.36,2.17-.54,2.93-.64,6.04-.72,9.08-.17,3.04,.54,6.02,1.73,8.64,3.54,2.6,1.8,4.9,4.22,6.22,7.2,1.35,2.96,1.68,6.36,1.22,9.67-.29,1.65-.56,3.33-.95,4.98-.41,1.66-.76,3.33-1.23,5-1.75,6.67-3.87,13.41-6.06,20.24-4.42,13.66-9.36,27.69-14.56,42.01-1.16,3.15-2.31,6.29-3.39,9.2l.34-.17c-7.03-2.11-13.96-4.2-20.79-6.25-3.42-1.03-6.8-2.04-10.17-3.05l-1.26-.38-.31-.09s-.1,.22-.02,.03c.05-.06,0-.02,.01-.04-.02-.02-.04-.05-.06-.09-.02-.04-.04-.08-.05-.11-.07,0,.12-.07-.14,0,.02-.04-.85,.27,.1,.21,.15-.22,.13-.26,.19-.38,.31-.83,.58-1.66,.86-2.48,.54-1.65,1.08-3.3,1.61-4.94,4.2-13.14,8.13-25.82,11.81-37.91,.45-1.51,.9-3.02,1.35-4.51,.11-.38,.22-.74,.31-1.14,0-.06,.02,.03,0-.2-.86-.11-.3-.03-.49-.03l-.1,.09-.19,.17c-.12,.12-.29,.25-.43,.37-.6,.49-1.19,.98-1.78,1.47-2.39,1.93-4.77,3.81-7.13,5.63-4.73,3.65-9.38,7.11-13.95,10.34-4.57,3.23-9.06,6.25-13.51,8.91-1.13,.64-2.24,1.28-3.34,1.9-1.14,.56-2.24,1.17-3.37,1.68-1.15,.46-2.25,1.01-3.42,1.32-.58,.17-1.15,.38-1.73,.52-.58,.13-1.16,.25-1.74,.38-2.32,.43-4.63,.64-6.87,.52-2.25-.06-4.41-.45-6.47-.98-4.1-1.12-7.75-2.98-10.68-5.31-1.5-1.12-2.77-2.43-3.94-3.71-.55-.67-1.09-1.34-1.57-2.02-.46-.69-.84-1.41-1.17-2.15-1.31-2.93-1.91-5.85-2.31-8.45-.75-5.24-.38-9.38,.07-12.11,.26-1.37,.48-2.4,.69-3.08,.19-.68,.28-1.05,.28-1.05Z"/></g><path class="n" d="M113.24,315.75c-.03-.05-1.09,.47-2.68,1.5-1.6,1.03-3.71,2.61-5.82,4.61-2.1,2.01-3.77,4.06-4.84,5.64-.54,.79-.94,1.44-1.19,1.91-.25,.47-.38,.73-.35,.75,.07,.04,.7-.95,1.84-2.45,1.13-1.5,2.82-3.49,4.9-5.48,2.08-1.98,4.14-3.58,5.67-4.68,1.53-1.1,2.52-1.74,2.47-1.81Z"/><path class="n" d="M102.13,312.12c-.06-.03-.54,.9-1.15,2.46-.61,1.56-1.33,3.77-1.89,6.27-.55,2.5-.84,4.81-.95,6.49-.11,1.67-.07,2.71,0,2.71,.08,0,.17-1.03,.38-2.68,.2-1.65,.54-3.93,1.09-6.41,.55-2.48,1.21-4.68,1.73-6.26,.52-1.58,.87-2.56,.8-2.59Z"/></g></g><g><g><path class="n" d="M142.18,262.99l12.34-24.93c.84-1.69,2.57-2.77,4.48-2.77h31c1.15,0,1.89,1.22,1.34,2.22l-20.98,38.85c-.59,1.09-1.73,1.77-2.98,1.77h-32.15l6.96-15.14Z"/><path class="y" d="M191.13,237.7s-.21,.04-.62,.05c-.47,0-1.06,.02-1.78,.03-1.62,0-3.83,0-6.53,0-5.58-.05-13.15-.11-21.52-.18-1.02,.04-2.03,.21-2.86,.69-.83,.47-1.43,1.26-1.9,2.09-.9,1.7-1.66,3.48-2.44,5.1-1.54,3.25-2.93,6.2-4.11,8.69-1.16,2.41-2.12,4.39-2.82,5.84-.32,.64-.58,1.16-.79,1.58-.19,.36-.29,.54-.31,.53-.02,0,.05-.21,.21-.58,.18-.43,.41-.97,.69-1.62,.66-1.47,1.56-3.47,2.65-5.92,1.15-2.51,2.5-5.47,4-8.75,.78-1.64,1.5-3.37,2.43-5.16,.49-.87,1.14-1.76,2.11-2.31,.95-.55,2.06-.72,3.13-.77,8.44,.06,16.03,.24,21.55,.35,2.69,.07,4.9,.14,6.53,.18,.72,.03,1.3,.06,1.77,.08,.41,.02,.62,.05,.62,.07Z"/><path class="k" d="M172.03,243.16c.75,.39,.78,1,.46,1.54-.32,.54-1.03,.78-1.64,.62-.4-.11-.78-.41-.85-.82-.08-.41,.3-1.28,.95-1.42,0,0,.71-.12,1.08,.08Z"/></g><g><path class="q" d="M123.23,272.6l2.14-2.18s3.14-4.53,4.42-5.94c1.28-1.42,8.99-6.37,8.99-6.37,0,0,3.71-4.99,4.28-4.99s2.38,.32,1.89,2.64c-.47,2.23-1.32,5.24-2.04,6.69l16.46,.36c1.04,.02,2.04,.46,2.68,1.27,.43,.54,.61,1.14-.16,1.52-1.71,.85-8.7,2.55-8.7,2.55l3.12-.8s.67,2.96-1.31,4.37c-1.96,1.4-2.1,1.67-2.1,1.67,0,0-.1,2.8-.95,3.93-.86,1.13-10.13,5.86-10.13,5.86,0,0-5.92,1.74-8.92,1.59-3-.14-6.08,1.54-6.42,1.63-.34,.09-3.26-13.81-3.26-13.81Z"/><path class="t" d="M144.5,262.53c0,.16-2.08,.25-4.62,.51-2.55,.28-4.65,.41-4.66,.23,0-.14,2.03-.52,4.6-.8,2.58-.27,4.69-.09,4.68,.06Z"/><path class="t" d="M142.3,269.77c-.05-.17,2.95-.99,6.72-1.42,1.88-.24,3.59-.4,4.82-.54,1.23-.13,1.99-.23,2.01-.15,.02,.07-.72,.32-1.95,.55-1.22,.24-2.93,.47-4.8,.71-3.76,.43-6.76,.98-6.8,.84Z"/><path class="t" d="M142.3,275.11c0-.17,2.4-.24,5.3-.74,2.9-.49,5.19-1.21,5.24-1.05,.06,.14-2.18,1.12-5.15,1.62-2.96,.51-5.4,.32-5.39,.17Z"/><path class="t" d="M143.3,281.1c-.16,.03-.4-.62-.53-1.43-.14-.82-.12-1.5,.04-1.53,.16-.03,.4,.62,.53,1.43,.14,.82,.12,1.5-.04,1.53Z"/><path class="t" d="M141.82,273.93c-.17-.01-.25-.54-.53-1.1-.27-.57-.64-.96-.54-1.1,.07-.14,.72,.13,1.07,.85,.35,.72,.16,1.38,.01,1.36Z"/><path class="t" d="M139.94,266.76c-.16,.02-.33-.32-.53-.71-.19-.39-.37-.73-.26-.85,.1-.12,.53,.1,.78,.59,.25,.49,.17,.96,0,.97Z"/></g></g><path class="q" d="M145.48,221.32s.37-4.68,2.79-7.66c6.36-7.82,4.24-14.79,4.24-14.79,2.2-2.43,5.86,.48,6.58,6.05,1.49,11.57-.49,24.6-.61,25.07-.16,.63-6.75,3.43-6.75,3.43l-8.79-10.27,2.53-1.82Z"/><g><g><rect class="k" x="154.98" y="151.18" width="165.56" height="80.77" rx="8.65" ry="8.65"/><path class="y" d="M311.89,231.95s.42,0,1.22-.12c.8-.11,2.01-.41,3.35-1.25,1.33-.83,2.79-2.31,3.54-4.51,.39-1.09,.5-2.34,.45-3.68,0-1.34,0-2.77-.01-4.28-.02-12.1-.05-29.59-.08-51.2,0-1.35,0-2.72,0-4.1,0-.69,0-1.39,0-2.09,0-.7,.01-1.4-.09-2.08-.36-2.74-2.22-5.32-4.86-6.5-1.31-.64-2.77-.8-4.27-.76-1.5,0-3.02,0-4.56,0-3.07,0-6.19,0-9.37,0-12.71,0-26.29,.02-40.58,.02-28.58,0-60,.01-92.98,.02-2,0-3.98,.74-5.49,2.04-1.52,1.29-2.53,3.14-2.81,5.09-.15,.97-.09,1.99-.1,3,0,1.01,0,2.03,0,3.04v6.05c0,8.03,0,15.95,0,23.72,0,7.78,0,15.42,0,22.9,0,1.87,0,3.73,0,5.58-.07,1.82,.43,3.61,1.41,5.1,1,1.47,2.44,2.64,4.1,3.22,1.65,.68,3.45,.5,5.24,.52,28.58,.02,54.32,.04,75.94,.06,21.61,.03,39.1,.06,51.2,.08,6.04,.02,10.73,.04,13.92,.05,1.58,.01,2.79,.02,3.62,.03,.82,0,1.23,.03,1.23,.03,0,0-.42,.02-1.23,.03-.83,0-2.04,.01-3.62,.03-3.19,.01-7.88,.03-13.92,.05-12.1,.02-29.59,.05-51.2,.08-21.62,.02-47.36,.03-75.94,.06-.9,0-1.78,.02-2.7-.02-.92-.02-1.84-.21-2.71-.53-1.76-.62-3.28-1.86-4.34-3.41-1.04-1.56-1.57-3.49-1.5-5.37,0-1.85,0-3.71,0-5.58,0-7.48,0-15.12,0-22.9,0-7.78,0-15.69,0-23.72v-6.05c0-1.01,0-2.02,0-3.04,.01-1.01-.05-2.03,.11-3.08,.3-2.08,1.37-4.04,2.98-5.41,1.6-1.38,3.7-2.17,5.83-2.17,32.98,0,64.4,.01,92.98,.02,14.29,0,27.87,.02,40.58,.02,3.18,0,6.3,0,9.37,0,1.53,0,3.05,0,4.56,0,1.5-.03,3.08,.14,4.44,.81,2.77,1.24,4.71,3.94,5.07,6.81,.11,.72,.09,1.44,.09,2.13v2.09c0,1.38,0,2.75,0,4.1-.03,21.61-.06,39.1-.08,51.2,0,1.51,0,2.94-.01,4.28,.04,1.33-.08,2.63-.48,3.73-.78,2.23-2.28,3.72-3.63,4.55-1.37,.84-2.59,1.12-3.4,1.22-.4,.07-.72,.06-.92,.07-.21,0-.31,0-.31,0Z"/></g><g><polygon class="x" points="195.16 188.95 195.16 199.61 220.26 210.37 220.47 200.17 206.45 193.92 220.47 187.93 220.47 178.05 195.16 188.95"/><polygon class="x" points="280.36 200.32 280.36 189.67 255.04 178.91 254.83 189.1 268.97 195.36 254.83 201.35 254.83 211.23 280.36 200.32"/><path class="x" d="M239.22,169.25c0,.27-14.74,50-14.33,49.92,.42-.09,10.98,0,10.98,0l14.54-49.91h-11.19Z"/></g><path class="s" d="M172.2,161.89c0,1.81-1.56,3.28-3.49,3.28s-3.49-1.47-3.49-3.28,1.56-3.28,3.49-3.28,3.49,1.47,3.49,3.28Z"/><path class="s" d="M181.78,161.89c0,1.81-1.56,3.28-3.49,3.28s-3.49-1.47-3.49-3.28,1.56-3.28,3.49-3.28,3.49,1.47,3.49,3.28Z"/><path class="s" d="M191.36,161.89c0,1.81-1.56,3.28-3.49,3.28s-3.49-1.47-3.49-3.28,1.56-3.28,3.49-3.28,3.49,1.47,3.49,3.28Z"/></g></g></g></svg>