<?xml version="1.0" encoding="utf-8"?>
<!-- Generator: Adobe Illustrator 26.1.0, SVG Export Plug-In . SVG Version: 6.00 Build 0)  -->
<svg version="1.1" xmlns="http://www.w3.org/2000/svg" xmlns:xlink="http://www.w3.org/1999/xlink" x="0px" y="0px"
	 viewBox="0 0 750 500" style="enable-background:new 0 0 750 500;" xml:space="preserve">
<style type="text/css">
	.st0{fill:url(#SVGID_1_);}
	.st1{fill:url(#SVGID_00000104688575607411965690000012520645047918644918_);}
	.st2{fill:url(#SVGID_00000007391692348832164470000005727466246718630538_);}
	.st3{fill:url(#SVGID_00000065790983068861980850000014725320814900362405_);}
	.st4{fill:url(#SVGID_00000119085460759413924450000015061970536018998711_);}
	.st5{fill:url(#SVGID_00000003791322572325805000000003296691086111670463_);}
	.st6{fill:url(#SVGID_00000124867454569440542800000010899913967206353851_);}
	.st7{fill:#FFFFFF;}
	.st8{fill:#FFCC14;}
	.st9{fill:#17253B;}
	.st10{font-family:'Bitter-Regular';}
	.st11{font-size:6.3721px;}
	.st12{font-size:8.4961px;}
	.st13{fill:none;stroke:#17253B;stroke-width:0.7086;stroke-linecap:round;stroke-linejoin:round;stroke-miterlimit:10;}
	.st14{fill:none;stroke:#FFFFFF;stroke-width:0.7086;stroke-linecap:round;stroke-miterlimit:10;}
	.st15{fill:#1A273D;}
	.st16{font-size:4.0953px;}
	.st17{font-family:'Bitter-BoldItalic';}
	.st18{font-size:17.3356px;}
	.st19{fill:none;}
	.st20{font-family:'Bitter-Light';}
	.st21{fill:none;stroke:#FFFFFF;stroke-width:0.3543;stroke-linecap:round;stroke-linejoin:round;stroke-miterlimit:10;}
	.st22{fill:#F0E1BB;}
	.st23{fill:#FFA114;}
	.st24{fill:#F7EEDD;}
	.st25{fill:url(#SVGID_00000028312938035731390790000011561990607846899349_);}
	.st26{font-size:3.7455px;}
	.st27{font-size:4.994px;}
	.st28{font-size:2.4072px;}
	.st29{font-size:10.1898px;}
	.st30{opacity:0.3;fill:#FFFFFF;}
	.st31{fill:url(#SVGID_00000099654448845892782100000003837198533996950710_);}
	.st32{fill:none;stroke:#17253B;stroke-width:0.3083;stroke-linecap:round;stroke-linejoin:round;stroke-miterlimit:10;}
	.st33{fill:none;stroke:#17253B;stroke-width:0.3083;stroke-linecap:round;stroke-miterlimit:10;}
	.st34{font-size:2.9125px;}
	.st35{font-size:6.2614px;}
	.st36{font-size:1.4792px;}
	.st37{fill:none;stroke:#FFFFFF;stroke-width:0.2177;stroke-linecap:round;stroke-linejoin:round;stroke-miterlimit:10;}
</style>
<g id="BACKGROUND">
</g>
<g id="OBJECTS">
	<g>
		
			<radialGradient id="SVGID_1_" cx="-2032.3999" cy="-1870.0858" r="322.575" gradientTransform="matrix(0.514 3.000000e-04 -1.030650e-05 0.0139 1316.1475 447.4423)" gradientUnits="userSpaceOnUse">
			<stop  offset="0" style="stop-color:#A5A9B3"/>
			<stop  offset="5.613504e-03" style="stop-color:#A6AAB4"/>
			<stop  offset="0.4563" style="stop-color:#D6D8DC"/>
			<stop  offset="0.8003" style="stop-color:#F4F4F6"/>
			<stop  offset="0.9946" style="stop-color:#FFFFFF"/>
		</radialGradient>
		<path class="st0" d="M440.53,421.03c0,3.88-75.68,6.97-169.03,6.91c-93.35-0.06-169.02-3.25-169.01-7.13
			c0-3.88,75.68-6.97,169.02-6.91C364.86,413.96,440.54,417.15,440.53,421.03z"/>
		
			<radialGradient id="SVGID_00000016062718911615519140000010388675885640908716_" cx="-1734.9598" cy="-1849.0687" r="322.5748" gradientTransform="matrix(0.514 3.000000e-04 -1.030650e-05 0.0139 1316.1414 455.6273)" gradientUnits="userSpaceOnUse">
			<stop  offset="0" style="stop-color:#A5A9B3"/>
			<stop  offset="5.613504e-03" style="stop-color:#A6AAB4"/>
			<stop  offset="0.4563" style="stop-color:#D6D8DC"/>
			<stop  offset="0.8003" style="stop-color:#F4F4F6"/>
			<stop  offset="0.9946" style="stop-color:#FFFFFF"/>
		</radialGradient>
		<path style="fill:url(#SVGID_00000016062718911615519140000010388675885640908716_);" d="M593.41,429.6
			c0,3.88-75.68,6.97-169.03,6.91c-93.35-0.06-169.02-3.25-169.01-7.13c0-3.88,75.68-6.97,169.02-6.91
			C517.74,422.53,593.41,425.72,593.41,429.6z"/>
		
			<radialGradient id="SVGID_00000134249617635799301480000012197531937059976084_" cx="-3140.2683" cy="-1836.412" r="322.5471" gradientTransform="matrix(0.3229 2.000000e-04 -1.030650e-05 0.0139 1619.7247 460.9477)" gradientUnits="userSpaceOnUse">
			<stop  offset="0" style="stop-color:#A5A9B3"/>
			<stop  offset="5.613504e-03" style="stop-color:#A6AAB4"/>
			<stop  offset="0.4563" style="stop-color:#D6D8DC"/>
			<stop  offset="0.8003" style="stop-color:#F4F4F6"/>
			<stop  offset="0.9946" style="stop-color:#FFFFFF"/>
		</radialGradient>
		<path style="fill:url(#SVGID_00000134249617635799301480000012197531937059976084_);" d="M711.92,434.94
			c0,3.88-47.54,6.99-106.18,6.95c-58.64-0.04-106.17-3.21-106.17-7.09c0-3.88,47.54-6.99,106.17-6.95
			C664.39,427.89,711.92,431.07,711.92,434.94z"/>
	</g>
	<g>
		<g>
			<g>
				
					<linearGradient id="SVGID_00000044177265571832367930000012804680737875902096_" gradientUnits="userSpaceOnUse" x1="310.3232" y1="346.2246" x2="310.3232" y2="453.8608">
					<stop  offset="0" style="stop-color:#1E2226"/>
					<stop  offset="1" style="stop-color:#373D47"/>
				</linearGradient>
				<path style="fill:url(#SVGID_00000044177265571832367930000012804680737875902096_);" d="M273.76,330.74v87.8h73.13v-87.8
					H273.76z M327.43,370.47c0,8.09-6.56,14.66-14.66,14.66h-4.89c-8.1,0-14.66-6.57-14.66-14.66v-15.88
					c0-8.09,6.56-14.66,14.66-14.66h4.89c8.1,0,14.66,6.57,14.66,14.66V370.47z"/>
				
					<linearGradient id="SVGID_00000131369685736247626790000006947739690059946406_" gradientUnits="userSpaceOnUse" x1="223.6809" y1="418.5327" x2="397.6383" y2="418.5327">
					<stop  offset="5.376340e-03" style="stop-color:#DCE5ED"/>
					<stop  offset="0.1567" style="stop-color:#E1EAF1"/>
					<stop  offset="0.3442" style="stop-color:#F1F8FE"/>
					<stop  offset="0.3583" style="stop-color:#F2F9FF"/>
					<stop  offset="0.7273" style="stop-color:#F2F9FF"/>
					<stop  offset="0.8442" style="stop-color:#EDF4FB"/>
					<stop  offset="0.9891" style="stop-color:#DDE6EE"/>
					<stop  offset="1" style="stop-color:#DCE5ED"/>
				</linearGradient>
				<polygon style="fill:url(#SVGID_00000131369685736247626790000006947739690059946406_);" points="405.72,422.3 214.93,422.3 
					222.76,414.77 397.88,414.77 				"/>
				<g>
					
						<linearGradient id="SVGID_00000166647416148355176600000002057323693621837224_" gradientUnits="userSpaceOnUse" x1="310.3232" y1="366.2324" x2="310.3232" y2="113.7201">
						<stop  offset="0" style="stop-color:#293445"/>
						<stop  offset="1" style="stop-color:#454F61"/>
					</linearGradient>
					<path style="fill:url(#SVGID_00000166647416148355176600000002057323693621837224_);" d="M526.27,105.46
						c0-7.16-5.81-12.97-12.97-12.97H107.35c-7.16,0-12.97,5.81-12.97,12.97v223.29h431.89V105.46z"/>
					
						<linearGradient id="SVGID_00000142894533660250711250000007174871102640013203_" gradientUnits="userSpaceOnUse" x1="310.3232" y1="359.0419" x2="310.3232" y2="200.2415">
						<stop  offset="0" style="stop-color:#293445"/>
						<stop  offset="1" style="stop-color:#454F61"/>
					</linearGradient>
					<path style="fill:url(#SVGID_00000142894533660250711250000007174871102640013203_);" d="M94.38,328.75v20.98
						c0,7.16,5.81,12.97,12.97,12.97H513.3c7.16,0,12.97-5.81,12.97-12.97v-20.98H94.38z"/>
				</g>
				<path class="st7" d="M106.85,328.75V104.87c0-0.28,0.22-0.5,0.5-0.5H513.3c0.28,0,0.5,0.22,0.5,0.5v223.88H106.85z"/>
				<path class="st8" d="M513.3,104.37H335.07l-63.56,224.38H513.8V104.87C513.8,104.59,513.57,104.37,513.3,104.37z"/>
			</g>
			<g>
				<g>
					<g>
						<text transform="matrix(1 0 0 1 219.6104 123.7539)"><tspan x="0" y="0" class="st9 st10 st11">Home       Features       Portofolio</tspan><tspan x="84.29" y="0" class="st9 st10 st12">       </tspan><tspan x="96.9" y="0" class="st9 st10 st11">About Us       Contact Us</tspan></text>
					</g>
					<g>
						<g>
							<line class="st13" x1="119.08" y1="117.9" x2="131.46" y2="117.9"/>
							<line class="st13" x1="119.08" y1="121.31" x2="131.46" y2="121.31"/>
							<line class="st13" x1="119.08" y1="124.72" x2="131.46" y2="124.72"/>
						</g>
					</g>
					<g>
						<g>
							<path class="st14" d="M500.73,121.08c0,1-0.81,1.81-1.81,1.81c-1,0-1.81-0.81-1.81-1.81c0-1,0.81-1.81,1.81-1.81
								C499.92,119.27,500.73,120.08,500.73,121.08z"/>
							<line class="st14" x1="500.24" y1="122.4" x2="501.56" y2="123.72"/>
						</g>
						<line class="st14" x1="497.11" y1="126.77" x2="438.18" y2="126.77"/>
					</g>
				</g>
				<g>
					<path class="st15" d="M374.42,297.23c3.13,0,5.66-2.53,5.66-5.66c0-3.13-2.53-5.66-5.66-5.66h-41.67
						c-3.12,0-5.66,2.53-5.66,5.66c0,3.12,2.54,5.66,5.66,5.66H374.42z"/>
					<path class="st7" d="M372.05,291.57c0,1.45,1.18,2.63,2.64,2.63c1.45,0,2.63-1.18,2.63-2.63c0-1.46-1.18-2.64-2.63-2.64
						C373.24,288.93,372.05,290.11,372.05,291.57z M375.83,291.57l-1.42,1.41l-0.4-0.4l1.01-1.01l-1.01-1.02l0.4-0.4L375.83,291.57z
						"/>
					<text transform="matrix(1 0 0 1 332.292 292.9043)" class="st7 st10 st16">browse by category</text>
				</g>
				<g>
					<g>
						<text transform="matrix(1 0 0 1 327.0996 197.7793)"><tspan x="0" y="0" class="st15 st17 st18">Responsive</tspan><tspan x="0" y="20.49" class="st15 st17 st18">Website Design</tspan></text>
					</g>
					<g>
						<rect x="327.1" y="228.29" class="st19" width="164.32" height="24.4"/>
						<text transform="matrix(1 0 0 1 327.1006 231.1943)"><tspan x="0" y="0" class="st9 st20 st16">Lorem ipsum dolor sit amet, consectetuer adipiscing elit, sed diam nonummy nibh euismod </tspan><tspan x="0" y="6.83" class="st9 st20 st16">tincidunt ut laoreet dolore magna aliquam erat volutpat. Ut wisi enim ad minim veniam, quis </tspan><tspan x="0" y="13.65" class="st9 st20 st16">nostrud exerci tation ullamcorper suscipit lobortis nisl ut </tspan></text>
					</g>
				</g>
				<g>
					<rect x="327.1" y="261.54" class="st21" width="104.64" height="9.34"/>
					<text transform="matrix(1 0 0 1 331.9561 267.6963)" class="st7 st10 st16">what do you need?</text>
					<path class="st7" d="M423.38,266.21c0,1.54,1.25,2.79,2.79,2.79c1.54,0,2.79-1.25,2.79-2.79c0-1.54-1.25-2.79-2.79-2.79
						C424.63,263.42,423.38,264.67,423.38,266.21z M427.38,266.21l-1.5,1.5l-0.43-0.42l1.08-1.07l-1.08-1.08l0.43-0.42
						L427.38,266.21z"/>
				</g>
				<g>
					<path class="st22" d="M249.53,240.19c-1.34,0-2.62,0.26-3.79,0.74c0.05-0.46,0.08-0.93,0.08-1.41
						c0-7.37-5.97-13.34-13.34-13.34c-7.37,0-13.34,5.97-13.34,13.34c0,0.24,0.02,0.47,0.04,0.7c-0.21-0.01-0.41-0.03-0.62-0.03
						c-5.64,0-10.2,4.57-10.2,10.2c0,5.64,4.57,10.2,10.2,10.2h30.98c5.64,0,10.2-4.57,10.2-10.2
						C259.74,244.75,255.17,240.19,249.53,240.19z"/>
					<g>
						<g>
							<polygon class="st8" points="166.23,235.13 145.79,239.25 136.06,273.52 139.55,275.62 155.92,258.32 							"/>
							<polygon class="st23" points="155.92,258.32 166.23,235.13 147.94,266.76 							"/>
							<polygon class="st8" points="193.97,262.88 189.85,283.32 155.58,293.04 153.49,289.55 170.78,273.19 							"/>
							<polygon class="st23" points="170.78,273.19 193.97,262.88 162.35,281.17 							"/>
						</g>
						<g>
							<path class="st8" d="M155.9,258.31l7.45,7.45l7.45,7.45c0,0,5.75-1.62,14.92-6.03l-23.79-23.79
								C157.52,252.56,155.9,258.31,155.9,258.31z"/>
							<path class="st24" d="M215.24,180.26c-9.19,5.5-18.98,13.8-29.08,25.9c-12.01,14.39-19.64,27.66-24.23,37.22l23.79,23.79
								c9.56-4.6,22.83-12.22,37.22-24.23c12.1-10.1,20.4-19.89,25.9-29.08c-5.98-4.6-12-9.87-17.87-15.74
								C225.11,192.26,219.84,186.24,215.24,180.26z"/>
							<path class="st8" d="M257.05,172.05c-10.8-2.52-25.33-1.66-41.81,8.21c4.6,5.98,9.87,12,15.73,17.86
								c5.87,5.87,11.89,11.13,17.87,15.74C258.72,197.38,259.57,182.85,257.05,172.05z"/>
						</g>
						<path class="st15" d="M226.01,225.91c-6.3,6.3-16.51,6.3-22.81,0c-6.3-6.3-6.3-16.51,0-22.81c6.3-6.3,16.51-6.3,22.81,0
							C232.31,209.39,232.31,219.61,226.01,225.91z"/>
						<path class="st8" d="M223.8,223.7c-5.08,5.08-13.31,5.08-18.39,0c-5.08-5.08-5.08-13.31,0-18.39c5.08-5.08,13.31-5.08,18.39,0
							C228.88,210.38,228.88,218.62,223.8,223.7z"/>
					</g>
					<path class="st23" d="M187.08,194.66c-1.34,0-2.62,0.27-3.79,0.74c0.05-0.46,0.07-0.93,0.07-1.41
						c0-7.37-5.97-13.34-13.34-13.34c-7.37,0-13.34,5.97-13.34,13.34c0,0.24,0.02,0.47,0.04,0.7c-0.21-0.01-0.41-0.03-0.62-0.03
						c-5.63,0-10.2,4.57-10.2,10.2c0,5.64,4.57,10.2,10.2,10.2h30.98c5.64,0,10.2-4.57,10.2-10.2
						C197.28,199.22,192.72,194.66,187.08,194.66z"/>
					<path class="st8" d="M195.58,159.45l0.75,1.94l-1.18,1.7c-0.65,0.94-0.25,1.65,0.89,1.59l0,0l2.07-0.11l1.25,1.65l0,0
						c0.69,0.91,1.49,0.75,1.79-0.35l0.53-2l1.96-0.68c1.08-0.37,1.17-1.19,0.22-1.8l-1.74-1.13l-0.04-2.08
						c-0.02-1.14-0.76-1.48-1.65-0.76l-1.61,1.31l-1.99-0.6C195.73,157.79,195.17,158.39,195.58,159.45z"/>
					<path class="st15" d="M264.45,216.07l2.54-0.88l0.88-2.54c0.27-0.77,0.71-0.77,0.98,0l0.88,2.54l2.54,0.88
						c0.77,0.27,0.77,0.71,0,0.98l-2.54,0.88l-0.88,2.54c-0.27,0.77-0.71,0.77-0.98,0l-0.88-2.54l-2.54-0.88
						C263.68,216.78,263.68,216.34,264.45,216.07z"/>
					<path class="st15" d="M127.11,222.36l3.42-1.19l1.19-3.42c0.36-1.04,0.96-1.04,1.32,0l1.19,3.42l3.42,1.19
						c1.04,0.37,1.04,0.96,0,1.32l-3.42,1.19l-1.19,3.42c-0.36,1.04-0.96,1.04-1.32,0l-1.19-3.42l-3.42-1.19
						C126.07,223.32,126.07,222.72,127.11,222.36z"/>
					<g>
						<path class="st8" d="M217.48,282.93l1.42-6c0.3-1.26-0.48-2.53-1.75-2.83c-1.26-0.3-2.53,0.48-2.82,1.74
							c-0.09,0.36-0.08,0.74,0,1.08l1.42,6c0.11,0.48,0.59,0.77,1.07,0.66C217.16,283.51,217.4,283.25,217.48,282.93z"/>
						<path class="st8" d="M219.47,285.08l5.9-1.77c1.24-0.37,1.95-1.68,1.57-2.92c-0.37-1.24-1.68-1.95-2.92-1.57
							c-0.36,0.11-0.68,0.3-0.94,0.54l-4.48,4.23c-0.36,0.34-0.38,0.9-0.04,1.26C218.8,285.09,219.16,285.17,219.47,285.08z"/>
						<path class="st8" d="M218.6,287.88l4.48,4.23c0.94,0.89,2.43,0.84,3.32-0.1c0.89-0.94,0.84-2.43-0.1-3.32
							c-0.27-0.26-0.6-0.44-0.94-0.54l-5.9-1.77c-0.47-0.14-0.97,0.13-1.11,0.6C218.26,287.31,218.37,287.65,218.6,287.88z"/>
						<path class="st8" d="M215.75,288.52l-1.42,6c-0.3,1.26,0.48,2.53,1.75,2.82c1.26,0.3,2.53-0.48,2.83-1.75
							c0.09-0.37,0.08-0.74,0-1.08l-1.42-6c-0.11-0.48-0.59-0.78-1.07-0.66C216.07,287.94,215.82,288.21,215.75,288.52z"/>
						<path class="st8" d="M213.76,286.38l-5.9,1.77c-1.24,0.37-1.95,1.68-1.57,2.92c0.37,1.24,1.68,1.95,2.92,1.57
							c0.36-0.11,0.68-0.3,0.94-0.54l4.48-4.23c0.36-0.34,0.38-0.9,0.04-1.26C214.42,286.36,214.07,286.28,213.76,286.38z"/>
						<path class="st8" d="M214.62,283.58l-4.48-4.22c-0.94-0.89-2.43-0.84-3.32,0.1c-0.89,0.94-0.84,2.43,0.1,3.32
							c0.27,0.26,0.6,0.44,0.94,0.54l5.9,1.77c0.47,0.14,0.97-0.13,1.11-0.6C214.97,284.15,214.86,283.8,214.62,283.58z"/>
					</g>
				</g>
			</g>
		</g>
		<g>
			<g>
				
					<linearGradient id="SVGID_00000031920711322768818250000004471186746847817348_" gradientUnits="userSpaceOnUse" x1="468.1051" y1="422.5401" x2="518.4169" y2="224.1279">
					<stop  offset="0" style="stop-color:#293445"/>
					<stop  offset="1" style="stop-color:#454F61"/>
				</linearGradient>
				<path style="fill:url(#SVGID_00000031920711322768818250000004471186746847817348_);" d="M371.51,430.94
					c-7.21,0-13.11-5.9-13.11-13.11V257.51c0-7.21,5.9-13.11,13.11-13.11h236.24c7.21,0,13.11,5.9,13.11,13.11v160.32
					c0,7.21-5.9,13.11-13.11,13.11H371.51z"/>
				<path class="st7" d="M368.32,257.51c0-1.73,1.46-3.18,3.19-3.18h236.24c1.73,0,3.18,1.46,3.18,3.18v160.32
					c0,1.73-1.46,3.19-3.18,3.19H371.51c-1.73,0-3.19-1.46-3.19-3.19V257.51z"/>
			</g>
			<g>
				<path class="st22" d="M457.63,351.88c-0.8,0-1.57,0.16-2.27,0.44c0.03-0.28,0.05-0.56,0.05-0.84c0-4.41-3.57-7.98-7.98-7.98
					c-4.41,0-7.98,3.57-7.98,7.98c0,0.14,0.01,0.28,0.02,0.42c-0.12-0.01-0.25-0.02-0.37-0.02c-3.37,0-6.1,2.73-6.1,6.1
					c0,3.37,2.73,6.1,6.1,6.1h18.53c3.37,0,6.1-2.73,6.1-6.1C463.73,354.61,461,351.88,457.63,351.88z"/>
				<g>
					<g>
						<polygon class="st8" points="407.8,348.86 395.57,351.32 389.75,371.82 391.84,373.07 401.63,362.73 						"/>
						<polygon class="st23" points="401.63,362.73 407.8,348.86 396.86,367.77 						"/>
						<polygon class="st8" points="424.39,365.45 421.93,377.67 401.43,383.49 400.17,381.41 410.52,371.62 						"/>
						<polygon class="st23" points="410.52,371.62 424.39,365.45 405.47,376.39 						"/>
					</g>
					<g>
						<path class="st8" d="M401.62,362.72l4.46,4.46l4.46,4.46c0,0,3.44-0.97,8.93-3.61l-14.23-14.23
							C402.59,359.28,401.62,362.72,401.62,362.72z"/>
						<path class="st24" d="M437.11,316.04c-5.5,3.29-11.35,8.25-17.4,15.49c-7.18,8.61-11.75,16.55-14.49,22.26l14.23,14.23
							c5.72-2.75,13.66-7.31,22.26-14.5c7.24-6.04,12.2-11.9,15.49-17.4c-3.58-2.75-7.17-5.9-10.69-9.41
							C443.02,323.21,439.87,319.61,437.11,316.04z"/>
						<path class="st8" d="M462.12,311.12c-6.46-1.51-15.15-0.99-25.01,4.91c2.75,3.58,5.9,7.18,9.41,10.69
							c3.51,3.51,7.11,6.66,10.69,9.41C463.12,326.27,463.63,317.58,462.12,311.12z"/>
					</g>
					<path class="st15" d="M443.56,343.33c-3.77,3.77-9.88,3.77-13.65,0c-3.77-3.77-3.77-9.88,0-13.64c3.77-3.77,9.88-3.77,13.65,0
						C447.32,333.46,447.32,339.57,443.56,343.33z"/>
					<path class="st8" d="M442.23,342.01c-3.04,3.04-7.96,3.04-11,0c-3.04-3.04-3.04-7.96,0-11c3.04-3.04,7.96-3.04,11,0
						C445.27,334.05,445.27,338.98,442.23,342.01z"/>
				</g>
				<path class="st23" d="M420.27,324.64c-0.8,0-1.57,0.16-2.27,0.44c0.03-0.28,0.04-0.56,0.04-0.84c0-4.41-3.57-7.98-7.98-7.98
					c-4.41,0-7.98,3.57-7.98,7.98c0,0.14,0.01,0.28,0.02,0.42c-0.12-0.01-0.25-0.02-0.37-0.02c-3.37,0-6.1,2.73-6.1,6.1
					c0,3.37,2.73,6.1,6.1,6.1h18.53c3.37,0,6.1-2.73,6.1-6.1C426.37,327.38,423.64,324.64,420.27,324.64z"/>
				<path class="st8" d="M425.36,303.59l0.45,1.16l-0.71,1.02c-0.39,0.56-0.15,0.99,0.53,0.95l0,0l1.24-0.07l0.75,0.99l0,0
					c0.41,0.54,0.89,0.45,1.07-0.21l0.32-1.2l1.17-0.41c0.64-0.22,0.7-0.71,0.13-1.08l-1.04-0.67l-0.03-1.24
					c-0.01-0.68-0.46-0.88-0.99-0.46l-0.96,0.79l-1.19-0.36C425.44,302.59,425.11,302.95,425.36,303.59z"/>
				<path class="st15" d="M466.55,337.45l1.52-0.53l0.53-1.52c0.16-0.46,0.42-0.46,0.58,0l0.53,1.52l1.52,0.53
					c0.46,0.16,0.46,0.42,0,0.58l-1.52,0.53l-0.53,1.52c-0.16,0.46-0.42,0.46-0.58,0l-0.53-1.52l-1.52-0.53
					C466.09,337.88,466.09,337.61,466.55,337.45z"/>
				<path class="st15" d="M384.4,341.21l2.05-0.71l0.71-2.05c0.22-0.62,0.57-0.62,0.79,0l0.71,2.05l2.05,0.71
					c0.62,0.22,0.62,0.57,0,0.79l-2.05,0.71l-0.71,2.05c-0.21,0.62-0.57,0.62-0.79,0l-0.71-2.05L384.4,342
					C383.78,341.79,383.78,341.43,384.4,341.21z"/>
				<g>
					<path class="st8" d="M438.45,377.45l0.85-3.59c0.18-0.76-0.29-1.51-1.04-1.69c-0.75-0.18-1.51,0.29-1.69,1.04
						c-0.05,0.22-0.05,0.44,0,0.65l0.85,3.59c0.07,0.29,0.36,0.46,0.64,0.39C438.26,377.79,438.41,377.64,438.45,377.45z"/>
					<path class="st8" d="M439.64,378.73l3.53-1.06c0.74-0.22,1.16-1.01,0.94-1.75c-0.22-0.74-1.01-1.16-1.75-0.94
						c-0.21,0.06-0.41,0.18-0.56,0.32l-2.68,2.53c-0.21,0.2-0.22,0.54-0.02,0.75C439.25,378.74,439.46,378.79,439.64,378.73z"/>
					<path class="st8" d="M439.12,380.4l2.68,2.53c0.56,0.53,1.45,0.51,1.99-0.06c0.53-0.56,0.5-1.45-0.06-1.98
						c-0.16-0.15-0.36-0.26-0.56-0.32l-3.53-1.06c-0.28-0.08-0.58,0.07-0.66,0.36C438.92,380.06,438.98,380.27,439.12,380.4z"/>
					<path class="st8" d="M437.42,380.79l-0.85,3.59c-0.18,0.75,0.29,1.51,1.04,1.69c0.75,0.18,1.51-0.29,1.69-1.04
						c0.05-0.22,0.05-0.44,0-0.65l-0.85-3.59c-0.07-0.29-0.35-0.46-0.64-0.4C437.61,380.44,437.46,380.6,437.42,380.79z"/>
					<path class="st8" d="M436.23,379.51l-3.53,1.06c-0.74,0.22-1.16,1-0.94,1.75c0.22,0.74,1.01,1.17,1.75,0.94
						c0.21-0.07,0.41-0.18,0.56-0.32l2.68-2.53c0.21-0.2,0.22-0.54,0.02-0.75C436.62,379.5,436.41,379.45,436.23,379.51z"/>
					<path class="st8" d="M436.75,377.83l-2.68-2.53c-0.57-0.53-1.45-0.51-1.99,0.06c-0.53,0.56-0.5,1.45,0.06,1.99
						c0.16,0.15,0.36,0.26,0.56,0.32l3.53,1.06c0.28,0.08,0.58-0.08,0.66-0.36C436.95,378.17,436.89,377.97,436.75,377.83z"/>
				</g>
			</g>
			<path class="st8" d="M607.75,254.32h-96.59l-47.22,166.69h143.81c1.73,0,3.18-1.46,3.18-3.19V257.51
				C610.93,255.78,609.47,254.32,607.75,254.32z"/>
			<g>
				<g>
					<g>
						<g>
							<text transform="matrix(1 0 0 1 436.3057 270.9727)"><tspan x="0" y="0" class="st9 st10 st26">Home       Features       Portofolio</tspan><tspan x="49.54" y="0" class="st9 st10 st27">       </tspan><tspan x="56.96" y="0" class="st9 st10 st26">About Us       Contact Us</tspan></text>
						</g>
						<g>
							<g>
								<line class="st13" x1="377.22" y1="267.53" x2="384.49" y2="267.53"/>
								<line class="st13" x1="377.22" y1="269.54" x2="384.49" y2="269.54"/>
								<line class="st13" x1="377.22" y1="271.54" x2="384.49" y2="271.54"/>
							</g>
						</g>
						<g>
							<g>
								<path class="st14" d="M601.55,269.4c0,0.59-0.48,1.07-1.07,1.07c-0.59,0-1.06-0.48-1.06-1.07c0-0.59,0.48-1.07,1.06-1.07
									C601.07,268.34,601.55,268.82,601.55,269.4z"/>
								<line class="st14" x1="601.26" y1="270.18" x2="602.04" y2="270.96"/>
							</g>
							<line class="st14" x1="599.42" y1="272.75" x2="564.78" y2="272.75"/>
						</g>
					</g>
					<g>
						<path class="st15" d="M531.52,386.83c1.84,0,3.33-1.49,3.33-3.33c0-1.84-1.49-3.33-3.33-3.33h-24.49
							c-1.84,0-3.33,1.49-3.33,3.33c0,1.84,1.49,3.33,3.33,3.33H531.52z"/>
						<path class="st7" d="M530.13,383.5c0,0.85,0.69,1.55,1.54,1.55c0.86,0,1.55-0.69,1.55-1.55c0-0.86-0.69-1.55-1.55-1.55
							C530.82,381.95,530.13,382.64,530.13,383.5z M532.35,383.5l-0.83,0.83l-0.23-0.23l0.6-0.6l-0.6-0.6l0.23-0.24L532.35,383.5z"
							/>
						<text transform="matrix(1 0 0 1 506.7539 384.2852)" class="st7 st10 st28">browse by category</text>
					</g>
					<g>
						<g>
							<text transform="matrix(1 0 0 1 503.7012 328.3701)"><tspan x="0" y="0" class="st15 st17 st29">Responsive</tspan><tspan x="0" y="12.04" class="st15 st17 st29">Website Design</tspan></text>
						</g>
						<g>
							<rect x="503.7" y="346.3" class="st19" width="96.59" height="14.34"/>
							<text transform="matrix(1 0 0 1 503.7031 348.0127)"><tspan x="0" y="0" class="st9 st20 st28">Lorem ipsum dolor sit amet, consectetuer adipiscing elit, sed diam nonummy nibh euismod </tspan><tspan x="0" y="4.01" class="st9 st20 st28">tincidunt ut laoreet dolore magna aliquam erat volutpat. Ut wisi enim ad minim veniam, quis </tspan><tspan x="0" y="8.02" class="st9 st20 st28">nostrud exerci tation ullamcorper suscipit lobortis nisl ut </tspan></text>
						</g>
					</g>
					<g>
						<rect x="503.7" y="365.85" class="st21" width="61.51" height="5.49"/>
						<text transform="matrix(1 0 0 1 506.5566 369.4658)" class="st7 st10 st28">what do you need?</text>
						<path class="st7" d="M560.3,368.6c0,0.9,0.73,1.64,1.64,1.64s1.64-0.73,1.64-1.64c0-0.91-0.74-1.64-1.64-1.64
							S560.3,367.69,560.3,368.6z M562.64,368.6l-0.88,0.88l-0.25-0.25l0.63-0.63l-0.63-0.63l0.25-0.25L562.64,368.6z"/>
					</g>
				</g>
			</g>
			<g>
				<polygon class="st30" points="358.39,379.16 410.17,430.94 520.16,430.94 358.39,269.17 				"/>
				<polygon class="st30" points="526.27,244.4 620.86,338.99 620.86,260.14 605.12,244.4 				"/>
			</g>
		</g>
		<g>
			<g>
				
					<linearGradient id="SVGID_00000156551491749311473720000006289662574134826666_" gradientUnits="userSpaceOnUse" x1="584.9297" y1="365.8477" x2="655.6201" y2="365.8477">
					<stop  offset="0" style="stop-color:#293445"/>
					<stop  offset="1" style="stop-color:#454F61"/>
				</linearGradient>
				<path style="fill:url(#SVGID_00000156551491749311473720000006289662574134826666_);" d="M655.62,429.49
					c0,4.2-3.44,7.64-7.64,7.64h-55.41c-4.2,0-7.64-3.44-7.64-7.64V302.2c0-4.2,3.44-7.64,7.64-7.64h55.41
					c4.2,0,7.64,3.44,7.64,7.64V429.49z"/>
				<g>
					<path class="st7" d="M653.23,302.2c0-2.9-2.36-5.25-5.25-5.25h-55.41c-2.9,0-5.25,2.36-5.25,5.25v67.88l65.91-8.52V302.2z"/>
					<path class="st8" d="M587.32,370.09v59.4c0,2.9,2.36,5.25,5.25,5.25h55.41c2.89,0,5.25-2.36,5.25-5.25v-67.93L587.32,370.09z"
						/>
				</g>
			</g>
			<g>
				<path class="st22" d="M636.36,341.1c-0.43,0-0.84,0.08-1.22,0.24c0.02-0.15,0.02-0.3,0.02-0.45c0-2.37-1.92-4.29-4.29-4.29
					c-2.37,0-4.29,1.92-4.29,4.29c0,0.08,0.01,0.15,0.01,0.23c-0.07,0-0.13-0.01-0.2-0.01c-1.81,0-3.28,1.47-3.28,3.28
					c0,1.81,1.47,3.29,3.28,3.29h9.98c1.81,0,3.28-1.47,3.28-3.29C639.64,342.57,638.17,341.1,636.36,341.1z"/>
				<g>
					<g>
						<polygon class="st8" points="609.54,339.48 602.96,340.8 599.83,351.83 600.95,352.51 606.22,346.94 						"/>
						<polygon class="st23" points="606.22,346.94 609.54,339.48 603.65,349.66 						"/>
						<polygon class="st8" points="618.47,348.41 617.14,354.99 606.11,358.12 605.43,356.99 611,351.73 						"/>
						<polygon class="st23" points="611,351.73 618.47,348.41 608.29,354.3 						"/>
					</g>
					<g>
						<path class="st8" d="M606.21,346.94l2.4,2.4l2.4,2.4c0,0,1.85-0.52,4.81-1.94l-7.66-7.66
							C606.73,345.08,606.21,346.94,606.21,346.94z"/>
						<path class="st24" d="M625.31,321.81c-2.96,1.77-6.11,4.44-9.36,8.34c-3.87,4.63-6.32,8.91-7.8,11.98l7.66,7.66
							c3.08-1.48,7.35-3.93,11.98-7.8c3.89-3.25,6.56-6.41,8.34-9.36c-1.92-1.48-3.86-3.18-5.75-5.07
							C628.49,325.67,626.8,323.73,625.31,321.81z"/>
						<path class="st8" d="M638.78,319.17c-3.48-0.81-8.16-0.54-13.46,2.64c1.48,1.92,3.18,3.86,5.07,5.75
							c1.89,1.89,3.83,3.59,5.75,5.07C639.31,327.32,639.59,322.64,638.78,319.17z"/>
					</g>
					<path class="st15" d="M628.78,336.5c-2.03,2.03-5.32,2.03-7.34,0c-2.03-2.03-2.03-5.32,0-7.34c2.03-2.03,5.32-2.03,7.34,0
						C630.81,331.19,630.81,334.48,628.78,336.5z"/>
					<path class="st8" d="M628.07,335.79c-1.63,1.64-4.29,1.64-5.92,0c-1.64-1.63-1.64-4.28,0-5.92c1.63-1.63,4.29-1.63,5.92,0
						C629.7,331.51,629.7,334.16,628.07,335.79z"/>
				</g>
				<path class="st23" d="M616.25,326.44c-0.43,0-0.84,0.09-1.22,0.24c0.02-0.15,0.03-0.3,0.03-0.45c0-2.37-1.92-4.29-4.29-4.29
					c-2.37,0-4.29,1.92-4.29,4.29c0,0.08,0.01,0.15,0.01,0.22c-0.07,0-0.13-0.01-0.2-0.01c-1.81,0-3.28,1.47-3.28,3.29
					c0,1.81,1.47,3.29,3.28,3.29h9.98c1.82,0,3.28-1.47,3.28-3.29C619.53,327.92,618.06,326.44,616.25,326.44z"/>
				<path class="st8" d="M618.99,315.11l0.24,0.62l-0.38,0.55c-0.21,0.3-0.08,0.53,0.29,0.51l0,0l0.67-0.04l0.4,0.53l0,0
					c0.22,0.29,0.48,0.24,0.58-0.11l0.17-0.64l0.63-0.22c0.35-0.12,0.38-0.38,0.07-0.58l-0.56-0.36l-0.01-0.67
					c-0.01-0.37-0.25-0.48-0.53-0.25l-0.52,0.42l-0.64-0.19C619.03,314.58,618.85,314.77,618.99,315.11z"/>
				<path class="st15" d="M641.16,333.34l0.82-0.29l0.28-0.82c0.09-0.25,0.23-0.25,0.31,0l0.29,0.82l0.81,0.29
					c0.25,0.09,0.25,0.23,0,0.32l-0.81,0.28l-0.29,0.82c-0.09,0.25-0.23,0.25-0.31,0l-0.28-0.82l-0.82-0.28
					C640.91,333.57,640.91,333.42,641.16,333.34z"/>
				<path class="st15" d="M596.94,335.36l1.1-0.38l0.38-1.1c0.12-0.33,0.31-0.33,0.42,0l0.39,1.1l1.1,0.38
					c0.33,0.12,0.33,0.31,0,0.42l-1.1,0.38l-0.39,1.1c-0.12,0.33-0.31,0.33-0.42,0l-0.38-1.1l-1.1-0.38
					C596.61,335.67,596.61,335.48,596.94,335.36z"/>
				<g>
					<path class="st8" d="M626.04,354.86l0.46-1.93c0.1-0.41-0.15-0.81-0.56-0.91c-0.41-0.1-0.81,0.16-0.91,0.56
						c-0.03,0.12-0.03,0.24,0,0.35l0.46,1.93c0.04,0.16,0.19,0.25,0.34,0.21C625.93,355.05,626.01,354.96,626.04,354.86z"/>
					<path class="st8" d="M626.68,355.55l1.9-0.57c0.4-0.12,0.63-0.54,0.51-0.94c-0.12-0.4-0.54-0.62-0.94-0.51
						c-0.12,0.04-0.22,0.1-0.3,0.17l-1.44,1.36c-0.12,0.11-0.12,0.29-0.01,0.41C626.46,355.56,626.58,355.58,626.68,355.55z"/>
					<path class="st8" d="M626.4,356.45l1.44,1.36c0.3,0.29,0.78,0.27,1.07-0.03c0.29-0.3,0.27-0.78-0.03-1.07
						c-0.09-0.08-0.19-0.14-0.3-0.17l-1.9-0.57c-0.15-0.04-0.31,0.04-0.36,0.19C626.29,356.27,626.32,356.38,626.4,356.45z"/>
					<path class="st8" d="M625.48,356.66l-0.46,1.93c-0.1,0.4,0.16,0.81,0.56,0.91c0.41,0.1,0.81-0.16,0.91-0.56
						c0.03-0.12,0.03-0.24,0-0.35l-0.46-1.93c-0.04-0.15-0.19-0.25-0.34-0.21C625.58,356.48,625.5,356.56,625.48,356.66z"/>
					<path class="st8" d="M624.84,355.97l-1.9,0.57c-0.4,0.12-0.62,0.54-0.51,0.94c0.12,0.4,0.54,0.63,0.94,0.51
						c0.12-0.04,0.22-0.1,0.3-0.17l1.44-1.36c0.12-0.11,0.12-0.29,0.01-0.41C625.05,355.97,624.94,355.94,624.84,355.97z"/>
					<path class="st8" d="M625.12,355.07l-1.44-1.36c-0.3-0.29-0.78-0.27-1.07,0.03c-0.29,0.3-0.27,0.78,0.03,1.07
						c0.09,0.08,0.19,0.14,0.3,0.17l1.9,0.57c0.15,0.04,0.31-0.04,0.36-0.19C625.23,355.25,625.19,355.14,625.12,355.07z"/>
				</g>
			</g>
			<g>
				<g>
					<g>
						<g>
							<line class="st32" x1="590.62" y1="304.01" x2="595.46" y2="304.01"/>
							<line class="st32" x1="590.62" y1="305.34" x2="595.46" y2="305.34"/>
							<line class="st32" x1="590.62" y1="306.68" x2="595.46" y2="306.68"/>
						</g>
					</g>
					<g>
						<g>
							<path class="st33" d="M649.61,305.25c0,0.39-0.32,0.71-0.71,0.71c-0.39,0-0.71-0.32-0.71-0.71c0-0.39,0.32-0.71,0.71-0.71
								C649.29,304.55,649.61,304.86,649.61,305.25z"/>
							<line class="st33" x1="649.41" y1="305.77" x2="649.93" y2="306.29"/>
						</g>
						<line class="st33" x1="648.19" y1="307.48" x2="625.15" y2="307.48"/>
					</g>
				</g>
				<g>
					<path class="st15" d="M635.09,418.8c2.23,0,4.02-1.8,4.02-4.02c0-2.22-1.8-4.02-4.02-4.02h-29.63c-2.23,0-4.03,1.8-4.03,4.02
						c0,2.22,1.8,4.02,4.03,4.02H635.09z"/>
					<path class="st7" d="M633.41,414.77c0,1.04,0.84,1.87,1.87,1.87c1.04,0,1.88-0.84,1.88-1.87c0-1.04-0.84-1.87-1.88-1.87
						C634.25,412.9,633.41,413.74,633.41,414.77z M636.1,414.77l-1.01,1.01l-0.28-0.29l0.72-0.72l-0.72-0.72l0.28-0.28L636.1,414.77
						z"/>
					<text transform="matrix(1 0 0 1 605.1309 415.7236)" class="st7 st10 st34">browse by category</text>
				</g>
				<g>
					<g>
						<text transform="matrix(1 0 0 1 590.6172 379.6689)"><tspan x="0" y="0" class="st15 st17 st35">Responsive</tspan><tspan x="0" y="7.4" class="st15 st17 st35">Website Design</tspan></text>
					</g>
					<g>
						<rect x="590.62" y="390.69" class="st19" width="59.35" height="8.81"/>
						<text transform="matrix(1 0 0 1 590.6182 391.7402)"><tspan x="0" y="0" class="st9 st20 st36">Lorem ipsum dolor sit amet, consectetuer adipiscing elit, sed diam nonummy nibh euismod </tspan><tspan x="0" y="2.47" class="st9 st20 st36">tincidunt ut laoreet dolore magna aliquam erat volutpat. Ut wisi enim ad minim veniam, quis </tspan><tspan x="0" y="4.93" class="st9 st20 st36">nostrud exerci tation ullamcorper suscipit lobortis nisl ut </tspan></text>
					</g>
				</g>
				<g>
					<rect x="590.6" y="402.7" class="st37" width="59.35" height="3.38"/>
					<text transform="matrix(1 0 0 1 592.3564 404.9229)" class="st7 st10 st36">what do you need?</text>
					<path class="st7" d="M646.93,404.39c0,0.55,0.45,1.01,1.01,1.01c0.55,0,1.01-0.45,1.01-1.01c0-0.56-0.45-1.01-1.01-1.01
						C647.38,403.38,646.93,403.83,646.93,404.39z M648.38,404.39l-0.54,0.54l-0.15-0.15l0.39-0.39l-0.39-0.39l0.15-0.15
						L648.38,404.39z"/>
				</g>
				<polygon class="st15" points="622.6,426.3 620.27,428.62 617.95,426.3 617.1,426.3 620.27,429.48 623.45,426.3 				"/>
			</g>
			<g>
				<path class="st30" d="M599.83,437.13h48.15c3.37,0,6.25-2.22,7.25-5.27l-70.31-70.3v60.67L599.83,437.13z"/>
				<polygon class="st30" points="598.2,294.56 655.62,351.98 655.62,308.49 641.69,294.56 				"/>
			</g>
		</g>
	</g>
</g>
</svg>
